# Cliff formation generated by cliff_generator.py
# Vertices 542 Faces 852
# No noise used, only authored geological features
v 24.075000 -0.000000 -10.000000
v 5.872727 -0.000000 -10.000000
v 23.153648 -0.000000 -4.471885
v 6.484705 -0.000000 -3.268249
v 20.663069 2.729545 -10.000000
v 9.703862 2.633905 -10.000000
v 19.940184 2.515780 -4.059455
v 9.974133 2.403957 -3.347842
v 17.282436 -0.000000 -4.047935
v 16.641531 -0.000000 -4.001657
v 17.283247 -0.000000 -3.861066
v 16.764484 -0.000000 -3.871239
v 17.199468 2.485028 -3.863758
v 17.283218 2.485968 -3.869738
v 17.283251 2.485702 -3.862115
v 16.612786 1.738163 -3.874948
v 17.282436 -0.000000 -4.047935
v 20.392749 -0.000000 -4.272526
v 17.283247 -0.000000 -3.861066
v 20.437866 -0.000000 -3.799202
v 19.940184 2.515780 -4.059455
v 19.909903 2.506826 -3.810614
v 20.403215 2.153279 -4.118883
v 20.433724 2.086376 -3.800164
v 17.283218 2.485968 -3.869738
v 17.283251 2.485702 -3.862115
v 20.392749 -0.000000 -4.272526
v 21.134305 -0.000000 -4.326072
v 20.437866 -0.000000 -3.799202
v 20.732045 -0.000000 -3.793433
v 20.403215 2.153279 -4.118883
v 20.886721 1.774749 -4.180938
v 20.433724 2.086376 -3.800164
v 20.581942 1.967408 -3.797207
v 21.134305 -0.000000 -4.326072
v 21.680951 -0.000000 -4.365545
v 20.732045 -0.000000 -3.793433
v 22.489361 -0.000000 -3.758971
v 20.886721 1.774749 -4.180938
v 21.725268 1.118260 -4.288561
v 20.581942 1.967408 -3.797207
v 22.464682 0.456207 -3.759647
v 23.040278 -0.000000 -3.791667
v 23.153648 -0.000000 -4.471885
v 22.910583 -0.000000 -3.750711
v 21.680951 -0.000000 -4.365545
v 22.489361 -0.000000 -3.758971
v 22.869565 0.131224 -3.751570
v 21.725268 1.118260 -4.288561
v 22.464682 0.456207 -3.759647
v 10.853059 -0.000000 -3.583681
v 14.165168 -0.000000 -3.822843
v 13.786998 -0.000000 -2.984537
v 14.146884 -0.000000 -3.399660
v 11.626256 2.422494 -3.465810
v 14.139936 2.450699 -3.645296
v 13.631600 2.425695 -3.056348
v 14.148913 2.395296 -3.649917
v 14.125958 -0.000000 -2.915317
v 13.786998 -0.000000 -2.984537
v 14.146884 -0.000000 -3.399660
v 14.148536 2.450795 -3.645910
v 14.139936 2.450699 -3.645296
v 14.118855 2.426473 -2.956858
v 13.631600 2.425695 -3.056348
v 14.148913 2.395296 -3.649917
v 15.247412 -0.000000 -3.900990
v 14.537035 -0.000000 -3.849694
v 16.764484 -0.000000 -3.871239
v 14.125958 -0.000000 -2.915317
v 17.290154 -0.000000 -2.269152
v 14.146884 -0.000000 -3.399660
v 17.285601 -0.000000 -3.318484
v 14.148536 2.450795 -3.645910
v 16.600546 2.478308 -3.820993
v 14.118855 2.426473 -2.956858
v 17.289988 2.431535 -2.309360
v 17.286579 2.458944 -3.095060
v 16.612786 1.738163 -3.874948
v 14.148913 2.395296 -3.649917
v 17.283247 -0.000000 -3.861066
v 16.764484 -0.000000 -3.871239
v 17.285601 -0.000000 -3.318484
v 17.199468 2.485028 -3.863758
v 16.600546 2.478308 -3.820993
v 17.283251 2.485702 -3.862115
v 17.286579 2.458944 -3.095060
v 16.612786 1.738163 -3.874948
v 17.854219 -0.000000 -2.153964
v 18.262050 -0.000000 -2.282753
v 17.290154 -0.000000 -2.269152
v 17.285601 -0.000000 -3.318484
v 17.439223 2.431773 -2.278889
v 17.914974 2.441206 -2.430119
v 17.289988 2.431535 -2.309360
v 17.286579 2.458944 -3.095060
v 20.007399 -0.000000 -2.833915
v 18.262050 -0.000000 -2.282753
v 17.283247 -0.000000 -3.861066
v 20.437866 -0.000000 -3.799202
v 17.285601 -0.000000 -3.318484
v 20.471322 -0.000000 -3.448205
v 19.815428 2.478888 -3.034229
v 20.012756 2.327206 -3.080576
v 19.909903 2.506826 -3.810614
v 20.433724 2.086376 -3.800164
v 20.449919 2.050863 -3.630985
v 17.914974 2.441206 -2.430119
v 17.283251 2.485702 -3.862115
v 17.286579 2.458944 -3.095060
v 20.514608 -0.000000 -2.994087
v 20.007399 -0.000000 -2.833915
v 20.471322 -0.000000 -3.448205
v 20.491836 1.958945 -3.193100
v 20.012756 2.327206 -3.080576
v 20.449919 2.050863 -3.630985
v 20.514608 -0.000000 -2.994087
v 22.621877 -0.000000 -3.659540
v 20.732045 -0.000000 -3.793433
v 22.489361 -0.000000 -3.758971
v 20.471322 -0.000000 -3.448205
v 20.491836 1.958945 -3.193100
v 22.573265 0.358985 -3.681977
v 20.581942 1.967408 -3.797207
v 22.464682 0.456207 -3.759647
v 20.449919 2.050863 -3.630985
v 6.872568 -0.000000 -3.159850
v 10.220108 -0.000000 -2.278919
v 6.875706 -0.000000 -3.296483
v 10.066832 -0.000000 -3.526909
v 9.999927 2.382011 -2.712968
v 6.873108 0.262837 -3.201209
v 9.974133 2.403957 -3.347842
v 6.874843 0.268776 -3.277148
v 10.152068 2.381940 -2.672920
v 10.068160 2.405012 -3.354556
v 12.192000 -0.000000 -1.760000
v 12.244008 -0.000000 -1.760000
v 10.220108 -0.000000 -2.278919
v 10.066832 -0.000000 -3.526909
v 10.475298 -0.000000 -3.556403
v 12.256585 0.016589 -1.745623
v 10.152068 2.381940 -2.672920
v 11.456722 2.381332 -2.329494
v 10.068160 2.405012 -3.354556
v 10.420092 2.408960 -3.379685
v 12.725403 -0.000000 -1.760000
v 12.244008 -0.000000 -1.760000
v 10.853059 -0.000000 -3.583681
v 10.475298 -0.000000 -3.556403
v 13.786998 -0.000000 -2.984537
v 12.630644 0.112665 -1.662357
v 12.256585 0.016589 -1.745623
v 12.717729 2.380745 -1.997557
v 11.456722 2.381332 -2.329494
v 11.626256 2.422494 -3.465810
v 10.420092 2.408960 -3.379685
v 13.631600 2.425695 -3.056348
v 14.076042 -0.000000 -1.760000
v 12.725403 -0.000000 -1.760000
v 14.125958 -0.000000 -2.915317
v 13.786998 -0.000000 -2.984537
v 14.056355 0.478858 -1.344989
v 12.630644 0.112665 -1.662357
v 14.062286 2.380119 -1.643628
v 12.717729 2.380745 -1.997557
v 14.118855 2.426473 -2.956858
v 13.631600 2.425695 -3.056348
v 16.606667 -0.000000 -1.760000
v 14.076042 -0.000000 -1.760000
v 17.291425 -0.000000 -1.976239
v 14.125958 -0.000000 -2.915317
v 17.290154 -0.000000 -2.269152
v 14.657571 0.633280 -1.211157
v 14.056355 0.478858 -1.344989
v 14.816342 2.379767 -1.445136
v 17.290326 2.428821 -2.231558
v 14.062286 2.380119 -1.643628
v 14.118855 2.426473 -2.956858
v 17.289988 2.431535 -2.309360
v 17.854219 -0.000000 -2.153964
v 17.291425 -0.000000 -1.976239
v 17.290154 -0.000000 -2.269152
v 17.439223 2.431773 -2.278889
v 17.290326 2.428821 -2.231558
v 17.289988 2.431535 -2.309360
v 20.663069 2.729545 -10.000000
v 20.637573 2.749942 -10.000000
v 9.703862 2.633905 -10.000000
v 10.086932 2.897266 -10.000000
v 20.199610 2.592495 -6.191375
v 19.863600 2.860624 -6.186284
v 9.835739 2.521703 -6.754121
v 10.506860 2.978383 -6.678667
v 9.835739 2.521703 -6.754121
v 9.927402 2.443716 -4.498029
v 10.846978 3.044083 -3.988570
v 10.506860 2.978383 -6.678667
v 9.987845 2.454467 -4.005169
v 9.988074 2.427033 -4.005153
v 14.160487 2.460588 -3.923344
v 14.044606 2.550453 -6.525585
v 14.262643 2.544298 -6.294866
v 14.158522 2.999544 -3.923610
v 14.043027 2.933879 -6.492582
v 14.259800 2.936881 -6.262377
v 14.160487 2.460588 -3.923344
v 14.376275 2.462323 -3.919113
v 14.262643 2.544298 -6.294866
v 15.393767 2.512371 -5.097957
v 14.158522 2.999544 -3.923610
v 14.329271 2.997247 -3.920260
v 14.259800 2.936881 -6.262377
v 15.355256 2.952050 -5.099042
v 14.272049 2.552006 -6.513235
v 16.510425 2.567296 -6.391693
v 14.262643 2.544298 -6.294866
v 15.393767 2.512371 -5.097957
v 14.269253 2.931032 -6.480677
v 16.457569 2.903491 -6.365521
v 14.259800 2.936881 -6.262377
v 15.355256 2.952050 -5.099042
v 14.376275 2.462323 -3.919113
v 16.548061 2.479789 -3.876530
v 15.393767 2.512371 -5.097957
v 14.329271 2.997247 -3.920260
v 16.505455 2.967978 -3.877572
v 15.355256 2.952050 -5.099042
v 17.199468 2.485028 -3.863758
v 17.283218 2.485968 -3.869738
v 16.548061 2.479789 -3.876530
v 17.272455 2.572501 -6.350316
v 16.510425 2.567296 -6.391693
v 15.393767 2.512371 -5.097957
v 17.283252 2.957516 -3.862314
v 16.505455 2.967978 -3.877572
v 17.272576 2.893234 -6.322632
v 16.457569 2.903491 -6.365521
v 15.355256 2.952050 -5.099042
v 17.283251 2.591686 -3.862160
v 19.940184 2.515780 -4.059455
v 20.108770 2.565633 -5.444865
v 19.418380 2.924294 -3.992485
v 19.763287 2.874970 -5.691995
v 17.283218 2.485968 -3.869738
v 17.272455 2.572501 -6.350316
v 19.028100 2.584493 -6.254987
v 17.567616 2.953692 -3.856736
v 17.283252 2.957516 -3.862314
v 17.272576 2.893234 -6.322632
v 19.047500 2.870895 -6.229230
v 17.283251 2.591686 -3.862160
v 20.199610 2.592495 -6.191375
v 20.108770 2.565633 -5.444865
v 19.863600 2.860624 -6.186284
v 19.763287 2.874970 -5.691995
v 19.028100 2.584493 -6.254987
v 19.047500 2.870895 -6.229230
v 10.846978 3.044083 -3.988570
v 10.892819 3.052938 -3.626002
v 9.987845 2.454467 -4.005169
v 10.013528 2.459035 -3.795751
v 11.626256 2.422494 -3.465810
v 14.139936 2.450699 -3.645296
v 9.988074 2.427033 -4.005153
v 14.160487 2.460588 -3.923344
v 10.013940 2.419920 -3.795020
v 14.148960 2.451143 -3.655751
v 11.824916 3.044911 -3.435525
v 14.049378 3.009577 -3.598683
v 14.158522 2.999544 -3.923610
v 14.149430 3.005169 -3.713635
v 14.148536 2.450795 -3.645910
v 16.600546 2.478308 -3.820993
v 14.376275 2.462323 -3.919113
v 16.548061 2.479789 -3.876530
v 14.148960 2.451143 -3.655751
v 14.144755 3.008062 -3.605679
v 16.592428 2.969182 -3.785209
v 14.329271 2.997247 -3.920260
v 16.505455 2.967978 -3.877572
v 14.149430 3.005169 -3.713635
v 10.925245 3.059202 -3.369536
v 10.892819 3.052938 -3.626002
v 10.413274 2.706492 -3.357858
v 10.013528 2.459035 -3.795751
v 10.014648 2.459234 -3.786619
v 11.626256 2.422494 -3.465810
v 10.420092 2.408960 -3.379685
v 10.013940 2.419920 -3.795020
v 10.014485 2.419771 -3.790598
v 11.824916 3.044911 -3.435525
v 19.940184 2.515780 -4.059455
v 19.909903 2.506826 -3.810614
v 19.418380 2.924294 -3.992485
v 19.383602 2.929267 -3.821113
v 17.283218 2.485968 -3.869738
v 17.283251 2.485702 -3.862115
v 17.567616 2.953692 -3.856736
v 17.283251 2.591686 -3.862160
v 11.626256 2.422494 -3.465810
v 14.139936 2.450699 -3.645296
v 13.631600 2.425695 -3.056348
v 11.824916 3.044911 -3.435525
v 14.049378 3.009577 -3.598683
v 13.592906 3.029686 -3.074229
v 14.148536 2.450795 -3.645910
v 14.139936 2.450699 -3.645296
v 14.118855 2.426473 -2.956858
v 13.631600 2.425695 -3.056348
v 14.144755 3.008062 -3.605679
v 14.049378 3.009577 -3.598683
v 14.117102 3.025171 -2.967108
v 13.592906 3.029686 -3.074229
v 14.148536 2.450795 -3.645910
v 16.600546 2.478308 -3.820993
v 14.118855 2.426473 -2.956858
v 17.289988 2.431535 -2.309360
v 17.286579 2.458944 -3.095060
v 14.144755 3.008062 -3.605679
v 16.592428 2.969182 -3.785209
v 14.117102 3.025171 -2.967108
v 17.289950 2.997847 -2.318724
v 17.286786 2.978797 -3.047825
v 17.199468 2.485028 -3.863758
v 16.600546 2.478308 -3.820993
v 17.283251 2.485702 -3.862115
v 17.286579 2.458944 -3.095060
v 17.283367 2.958207 -3.835887
v 16.592428 2.969182 -3.785209
v 17.286786 2.978797 -3.047825
v 17.283251 2.591686 -3.862160
v 17.439223 2.431773 -2.278889
v 17.914974 2.441206 -2.430119
v 17.342696 2.997393 -2.307945
v 17.837458 2.986423 -2.463031
v 17.289988 2.431535 -2.309360
v 17.286579 2.458944 -3.095060
v 17.289950 2.997847 -2.318724
v 17.286786 2.978797 -3.047825
v 19.815428 2.478888 -3.034229
v 19.194301 2.956338 -2.888341
v 19.909903 2.506826 -3.810614
v 19.383602 2.929267 -3.821113
v 17.914974 2.441206 -2.430119
v 17.837458 2.986423 -2.463031
v 17.283251 2.485702 -3.862115
v 17.286579 2.458944 -3.095060
v 17.567616 2.953692 -3.856736
v 17.283367 2.958207 -3.835887
v 17.286786 2.978797 -3.047825
v 17.283251 2.591686 -3.862160
v 11.028565 3.079160 -2.552350
v 10.149176 2.483163 -2.689663
v 11.007536 3.075098 -2.718672
v 10.068196 2.468759 -3.349987
v 10.413274 2.706492 -3.357858
v 10.152068 2.381940 -2.672920
v 11.456722 2.381332 -2.329494
v 11.221144 3.077804 -2.501457
v 10.068160 2.405012 -3.354556
v 10.420092 2.408960 -3.379685
v 10.925245 3.059202 -3.369536
v 11.007536 3.075098 -2.718672
v 10.413274 2.706492 -3.357858
v 12.717729 2.380745 -1.997557
v 11.456722 2.381332 -2.329494
v 12.744082 3.067078 -2.098991
v 11.221144 3.077804 -2.501457
v 11.626256 2.422494 -3.465810
v 10.420092 2.408960 -3.379685
v 13.631600 2.425695 -3.056348
v 11.824916 3.044911 -3.435525
v 13.592906 3.029686 -3.074229
v 14.062286 2.380119 -1.643628
v 12.717729 2.380745 -1.997557
v 14.064400 3.057779 -1.750070
v 12.744082 3.067078 -2.098991
v 14.118855 2.426473 -2.956858
v 13.631600 2.425695 -3.056348
v 14.117102 3.025171 -2.967108
v 13.592906 3.029686 -3.074229
v 14.816342 2.379767 -1.445136
v 14.877459 3.052053 -1.535203
v 17.290326 2.428821 -2.231558
v 17.290068 2.998560 -2.291449
v 14.062286 2.380119 -1.643628
v 14.064400 3.057779 -1.750070
v 14.118855 2.426473 -2.956858
v 17.289988 2.431535 -2.309360
v 14.117102 3.025171 -2.967108
v 17.289950 2.997847 -2.318724
v 20.637573 2.749942 -10.000000
v 18.175931 4.719255 -10.000000
v 10.086932 2.897266 -10.000000
v 12.695358 4.690558 -10.000000
v 19.418380 2.924294 -3.992485
v 17.548062 4.388542 -3.752440
v 10.925245 3.059202 -3.369536
v 12.792800 4.345808 -3.412134
v 12.792800 4.345808 -3.412134
v 12.795068 4.337783 -3.258769
v 12.084349 3.857739 -3.395975
v 11.824916 3.044911 -3.435525
v 14.049378 3.009577 -3.598683
v 13.592906 3.029686 -3.074229
v 13.831350 4.355141 -3.486457
v 13.509355 4.333875 -3.112839
v 14.144755 3.008062 -3.605679
v 14.049378 3.009577 -3.598683
v 14.117102 3.025171 -2.967108
v 13.592906 3.029686 -3.074229
v 14.135595 4.357876 -3.508230
v 13.831350 4.355141 -3.486457
v 14.113281 4.330571 -2.989456
v 13.509355 4.333875 -3.112839
v 17.117987 4.314131 -2.375589
v 17.289471 4.317888 -2.430137
v 17.289929 3.306597 -2.323830
v 14.144755 3.008062 -3.605679
v 16.592428 2.969182 -3.785209
v 14.117102 3.025171 -2.967108
v 17.289950 2.997847 -2.318724
v 17.286786 2.978797 -3.047825
v 14.135595 4.357876 -3.508230
v 16.569101 4.379744 -3.682381
v 14.113281 4.330571 -2.989456
v 17.287329 4.343749 -2.923804
v 17.283367 2.958207 -3.835887
v 16.592428 2.969182 -3.785209
v 17.286786 2.978797 -3.047825
v 17.283816 4.386167 -3.733529
v 16.569101 4.379744 -3.682381
v 17.287329 4.343749 -2.923804
v 17.419324 4.320733 -2.471443
v 17.675781 4.123599 -2.531678
v 17.447757 4.335709 -2.754363
v 17.342696 2.997393 -2.307945
v 17.837458 2.986423 -2.463031
v 17.289471 4.317888 -2.430137
v 17.289929 3.306597 -2.323830
v 17.289950 2.997847 -2.318724
v 17.286786 2.978797 -3.047825
v 17.287329 4.343749 -2.923804
v 19.194301 2.956338 -2.888341
v 17.675781 4.123599 -2.531678
v 19.383602 2.929267 -3.821113
v 17.548062 4.388542 -3.752440
v 17.447757 4.335709 -2.754363
v 18.258082 3.832676 -3.843567
v 17.837458 2.986423 -2.463031
v 17.567616 2.953692 -3.856736
v 17.283367 2.958207 -3.835887
v 17.286786 2.978797 -3.047825
v 17.283816 4.386167 -3.733529
v 17.287329 4.343749 -2.923804
v 12.790393 4.273223 -2.277248
v 11.184857 3.185086 -2.527946
v 10.925245 3.059202 -3.369536
v 11.007536 3.075098 -2.718672
v 12.795068 4.337783 -3.258769
v 12.809243 4.287634 -2.300482
v 12.084349 3.857739 -3.395975
v 12.744082 3.067078 -2.098991
v 11.221144 3.077804 -2.501457
v 11.824916 3.044911 -3.435525
v 13.592906 3.029686 -3.074229
v 13.509355 4.333875 -3.112839
v 12.809631 4.286261 -2.274244
v 12.790393 4.273223 -2.277248
v 12.809243 4.287634 -2.300482
v 14.064400 3.057779 -1.750070
v 12.744082 3.067078 -2.098991
v 14.068199 4.275404 -1.941327
v 14.117102 3.025171 -2.967108
v 13.592906 3.029686 -3.074229
v 14.113281 4.330571 -2.989456
v 13.509355 4.333875 -3.112839
v 14.877459 3.052053 -1.535203
v 14.987952 4.267469 -1.698034
v 17.290068 2.998560 -2.291449
v 17.117987 4.314131 -2.375589
v 17.289929 3.306597 -2.323830
v 14.064400 3.057779 -1.750070
v 14.068199 4.275404 -1.941327
v 14.117102 3.025171 -2.967108
v 17.289950 2.997847 -2.318724
v 14.113281 4.330571 -2.989456
v 18.175931 4.719255 -10.000000
v 15.914344 6.528525 -10.000000
v 12.695358 4.690558 -10.000000
v 15.354551 6.518754 -10.000000
v 15.586291 6.578463 -8.406218
v 15.351256 6.108394 -3.470492
v 17.548062 4.388542 -3.752440
v 12.792800 4.345808 -3.412134
v 14.129428 5.266646 -3.442622
v 13.728419 4.990380 -3.433475
v 14.110659 5.226378 -3.004792
v 13.479489 4.800064 -3.126640
v 14.135595 4.357876 -3.508230
v 13.831350 4.355141 -3.486457
v 14.113281 4.330571 -2.989456
v 13.509355 4.333875 -3.112839
v 15.351256 6.108394 -3.470492
v 15.317981 6.041844 -2.771716
v 17.071193 4.588336 -2.389675
v 17.289425 4.420584 -2.440933
v 16.556113 5.165127 -3.625128
v 17.287386 4.484889 -2.910979
v 14.129428 5.266646 -3.442622
v 14.110659 5.226378 -3.004792
v 17.117987 4.314131 -2.375589
v 17.289471 4.317888 -2.430137
v 14.135595 4.357876 -3.508230
v 16.569101 4.379744 -3.682381
v 14.113281 4.330571 -2.989456
v 17.287329 4.343749 -2.923804
v 17.283882 4.595366 -3.718534
v 16.556113 5.165127 -3.625128
v 17.287386 4.484889 -2.910979
v 17.283816 4.386167 -3.733529
v 16.569101 4.379744 -3.682381
v 17.287329 4.343749 -2.923804
v 12.809631 4.286261 -2.274244
v 14.070899 5.141075 -2.077301
v 12.809243 4.287634 -2.300482
v 14.110659 5.226378 -3.004792
v 13.479489 4.800064 -3.126640
v 14.068199 4.275404 -1.941327
v 14.113281 4.330571 -2.989456
v 13.509355 4.333875 -3.112839
v 15.279752 5.965386 -1.968910
v 15.317981 6.041844 -2.771716
v 17.071193 4.588336 -2.389675
v 15.132797 5.860766 -1.911490
v 14.070899 5.141075 -2.077301
v 14.110659 5.226378 -3.004792
v 14.987952 4.267469 -1.698034
v 17.117987 4.314131 -2.375589
v 14.068199 4.275404 -1.941327
v 14.113281 4.330571 -2.989456
f 3 4 2
f 3 2 1
f 6 5 1
f 6 1 2
f 7 3 1
f 7 1 5
f 4 8 6
f 4 6 2
f 8 7 5
f 8 5 6
f 7 8 4
f 7 4 3
f 11 12 10
f 11 10 9
f 13 15 14
f 16 13 14
f 16 14 9
f 16 9 10
f 15 13 16
f 15 16 12
f 15 12 11
f 14 15 11
f 14 11 9
f 12 16 10
f 20 19 17
f 20 17 18
f 22 24 23
f 22 23 21
f 25 26 22
f 25 22 21
f 25 21 23
f 25 23 18
f 25 18 17
f 24 22 26
f 24 26 19
f 24 19 20
f 19 26 25
f 19 25 17
f 24 20 18
f 24 18 23
f 30 29 27
f 30 27 28
f 33 34 32
f 33 32 31
f 31 32 28
f 31 28 27
f 34 33 29
f 34 29 30
f 29 33 31
f 29 31 27
f 34 30 28
f 34 28 32
f 38 37 35
f 38 35 36
f 41 42 40
f 41 40 39
f 39 40 36
f 39 36 35
f 41 37 38
f 41 38 42
f 37 41 39
f 37 39 35
f 42 38 36
f 42 36 40
f 43 45 47
f 43 47 46
f 43 46 44
f 50 48 43
f 50 43 44
f 50 44 49
f 48 45 43
f 49 44 46
f 50 47 45
f 50 45 48
f 47 50 49
f 47 49 46
f 54 53 51
f 54 51 52
f 57 56 55
f 55 56 58
f 55 58 52
f 55 52 51
f 57 55 51
f 57 51 53
f 54 52 58
f 57 53 54
f 57 54 58
f 57 58 56
f 59 60 61
f 65 64 62
f 65 62 63
f 63 62 66
f 64 65 60
f 64 60 59
f 64 59 61
f 64 61 66
f 64 66 62
f 60 65 63
f 60 63 66
f 60 66 61
f 73 71 70
f 73 70 72
f 73 72 68
f 73 68 67
f 73 67 69
f 76 77 78
f 76 78 75
f 76 75 74
f 80 74 75
f 80 75 79
f 80 79 67
f 80 67 68
f 79 69 67
f 77 76 70
f 77 70 71
f 70 76 74
f 70 74 80
f 70 80 72
f 77 71 73
f 77 73 78
f 72 80 68
f 78 73 69
f 78 69 79
f 78 79 75
f 83 82 81
f 87 86 84
f 87 84 85
f 85 84 88
f 88 84 86
f 88 86 81
f 88 81 82
f 87 83 81
f 87 81 86
f 83 87 85
f 83 85 88
f 83 88 82
f 90 89 91
f 90 91 92
f 94 93 89
f 94 89 90
f 95 93 94
f 95 94 96
f 93 95 91
f 93 91 89
f 91 95 96
f 91 96 92
f 94 90 92
f 94 92 96
f 97 98 101
f 97 101 99
f 97 99 100
f 97 100 102
f 103 104 107
f 103 107 106
f 103 106 105
f 104 103 108
f 104 108 98
f 104 98 97
f 110 108 103
f 110 103 105
f 110 105 109
f 109 105 106
f 109 106 100
f 109 100 99
f 101 110 109
f 101 109 99
f 107 102 100
f 107 100 106
f 104 97 102
f 104 102 107
f 98 108 110
f 98 110 101
f 111 112 113
f 115 114 116
f 114 115 112
f 114 112 111
f 114 111 113
f 114 113 116
f 112 115 116
f 112 116 113
f 117 121 119
f 117 119 120
f 117 120 118
f 122 123 125
f 122 125 124
f 122 124 126
f 122 117 118
f 122 118 123
f 124 125 120
f 124 120 119
f 117 122 126
f 117 126 121
f 121 126 124
f 121 124 119
f 123 118 120
f 123 120 125
f 128 127 129
f 128 129 130
f 131 133 134
f 131 134 132
f 135 131 132
f 135 132 127
f 135 127 128
f 131 135 136
f 131 136 133
f 133 136 130
f 133 130 129
f 133 129 134
f 127 132 134
f 127 134 129
f 135 128 130
f 135 130 136
f 138 137 139
f 138 139 140
f 138 140 141
f 142 137 138
f 144 143 139
f 144 139 137
f 144 137 142
f 143 144 146
f 143 146 145
f 145 146 141
f 145 141 140
f 139 143 145
f 139 145 140
f 144 142 138
f 144 138 141
f 144 141 146
f 147 148 150
f 147 150 149
f 147 149 151
f 152 153 148
f 152 148 147
f 154 155 153
f 154 153 152
f 155 154 158
f 155 158 156
f 155 156 157
f 157 156 149
f 157 149 150
f 156 158 151
f 156 151 149
f 154 152 147
f 154 147 151
f 154 151 158
f 148 153 155
f 148 155 157
f 148 157 150
f 159 160 162
f 159 162 161
f 163 164 160
f 163 160 159
f 165 166 164
f 165 164 163
f 166 165 167
f 166 167 168
f 168 167 161
f 168 161 162
f 165 163 159
f 165 159 161
f 165 161 167
f 160 164 166
f 160 166 168
f 160 168 162
f 171 169 170
f 171 170 172
f 171 172 173
f 174 175 170
f 174 170 169
f 177 176 174
f 177 174 169
f 177 169 171
f 176 178 175
f 176 175 174
f 178 176 177
f 178 177 180
f 178 180 179
f 179 180 173
f 179 173 172
f 170 175 178
f 170 178 179
f 170 179 172
f 171 173 180
f 171 180 177
f 182 183 181
f 184 185 182
f 184 182 181
f 185 184 186
f 186 184 181
f 186 181 183
f 182 185 186
f 182 186 183
f 190 188 187
f 190 187 189
f 192 191 187
f 192 187 188
f 193 194 190
f 193 190 189
f 191 193 189
f 191 189 187
f 194 192 188
f 194 188 190
f 192 194 193
f 192 193 191
f 196 199 197
f 196 197 198
f 196 198 195
f 201 200 196
f 201 196 195
f 201 195 202
f 201 202 203
f 197 204 206
f 197 206 205
f 197 205 198
f 204 197 199
f 204 199 200
f 204 200 201
f 198 205 202
f 198 202 195
f 200 199 196
f 204 201 203
f 204 203 206
f 206 203 202
f 206 202 205
f 208 207 209
f 208 209 210
f 211 212 214
f 211 214 213
f 212 211 207
f 212 207 208
f 207 211 213
f 207 213 209
f 212 208 210
f 212 210 214
f 214 210 209
f 214 209 213
f 218 217 215
f 218 215 216
f 222 220 219
f 222 219 221
f 219 220 216
f 219 216 215
f 217 221 219
f 217 219 215
f 222 218 216
f 222 216 220
f 218 222 221
f 218 221 217
f 224 223 225
f 226 227 228
f 227 226 223
f 227 223 224
f 223 226 228
f 223 228 225
f 227 224 225
f 227 225 228
f 230 229 231
f 230 231 234
f 230 234 233
f 230 233 232
f 239 236 235
f 239 235 237
f 239 237 238
f 240 229 230
f 235 236 231
f 235 231 229
f 235 229 240
f 238 237 232
f 238 232 233
f 235 240 230
f 235 230 232
f 235 232 237
f 234 239 238
f 234 238 233
f 231 236 239
f 231 239 234
f 243 241 242
f 243 242 244
f 241 245 246
f 241 246 247
f 241 247 242
f 249 248 243
f 249 243 244
f 249 244 251
f 249 251 250
f 243 248 252
f 243 252 245
f 243 245 241
f 248 249 252
f 250 251 247
f 250 247 246
f 245 252 249
f 245 249 250
f 245 250 246
f 244 242 247
f 244 247 251
f 256 254 253
f 256 253 255
f 254 257 253
f 256 255 258
f 258 255 253
f 258 253 257
f 254 256 258
f 254 258 257
f 262 260 259
f 262 259 261
f 268 264 263
f 268 263 267
f 268 267 265
f 268 265 266
f 260 269 270
f 260 270 272
f 260 272 271
f 260 271 259
f 270 269 263
f 270 263 264
f 259 271 266
f 259 266 265
f 259 265 261
f 269 260 262
f 269 262 267
f 269 267 263
f 267 262 261
f 267 261 265
f 272 268 266
f 272 266 271
f 270 264 268
f 270 268 272
f 273 277 275
f 273 275 276
f 273 276 274
f 282 278 279
f 282 279 281
f 282 281 280
f 279 278 273
f 279 273 274
f 280 281 276
f 280 276 275
f 273 278 282
f 273 282 277
f 277 282 280
f 277 280 275
f 279 274 276
f 279 276 281
f 285 283 284
f 285 284 286
f 285 286 287
f 288 289 291
f 288 291 290
f 283 292 284
f 292 283 285
f 292 285 289
f 292 289 288
f 284 292 288
f 284 288 290
f 284 290 286
f 291 287 286
f 291 286 290
f 289 285 287
f 289 287 291
f 296 294 293
f 296 293 295
f 294 298 297
f 294 297 293
f 299 296 295
f 299 295 293
f 299 293 297
f 299 297 300
f 296 299 300
f 296 300 298
f 296 298 294
f 298 300 297
f 303 301 302
f 306 305 304
f 304 305 302
f 304 302 301
f 306 304 301
f 306 301 303
f 306 303 302
f 306 302 305
f 309 310 308
f 309 308 307
f 314 313 311
f 314 311 312
f 312 311 307
f 312 307 308
f 313 314 310
f 313 310 309
f 313 309 307
f 313 307 311
f 310 314 312
f 310 312 308
f 319 318 317
f 319 317 315
f 319 315 316
f 322 323 324
f 322 324 321
f 322 321 320
f 320 321 316
f 320 316 315
f 323 322 317
f 323 317 318
f 317 322 320
f 317 320 315
f 323 318 319
f 323 319 324
f 324 319 316
f 324 316 321
f 328 326 325
f 328 325 327
f 331 329 330
f 330 329 332
f 330 332 325
f 330 325 326
f 332 327 325
f 331 328 327
f 331 327 332
f 331 332 329
f 328 331 330
f 328 330 326
f 336 335 333
f 336 333 334
f 334 333 337
f 334 337 338
f 339 335 336
f 339 336 340
f 335 339 337
f 335 337 333
f 337 339 340
f 337 340 338
f 336 334 338
f 336 338 340
f 342 341 343
f 342 343 344
f 342 346 345
f 342 345 341
f 341 345 348
f 341 348 347
f 341 347 343
f 351 346 342
f 351 342 344
f 351 344 349
f 351 349 350
f 350 349 352
f 349 344 343
f 349 343 347
f 349 347 352
f 348 351 350
f 348 350 352
f 348 352 347
f 345 346 351
f 345 351 348
f 354 353 355
f 354 355 357
f 354 357 356
f 360 353 354
f 360 354 358
f 360 358 359
f 359 358 361
f 359 361 362
f 353 360 355
f 357 362 361
f 357 361 356
f 358 354 356
f 358 356 361
f 355 360 359
f 355 359 362
f 355 362 357
f 364 363 365
f 368 369 367
f 368 367 366
f 366 367 371
f 366 371 370
f 366 370 372
f 364 369 368
f 364 368 374
f 364 374 373
f 364 373 363
f 363 373 370
f 363 370 371
f 363 371 365
f 373 374 372
f 373 372 370
f 368 366 372
f 368 372 374
f 367 369 364
f 367 364 365
f 367 365 371
f 377 378 376
f 377 376 375
f 375 376 380
f 375 380 379
f 378 377 381
f 378 381 382
f 382 381 379
f 382 379 380
f 377 375 379
f 377 379 381
f 376 378 382
f 376 382 380
f 386 384 383
f 386 383 385
f 384 388 387
f 384 387 383
f 383 387 389
f 383 389 390
f 383 390 385
f 388 384 386
f 388 386 392
f 388 392 391
f 391 392 390
f 391 390 389
f 387 388 391
f 387 391 389
f 385 390 392
f 385 392 386
f 396 394 393
f 396 393 395
f 398 397 393
f 398 393 394
f 399 400 396
f 399 396 395
f 397 399 395
f 397 395 393
f 400 398 394
f 400 394 396
f 398 400 399
f 398 399 397
f 402 401 403
f 406 404 405
f 402 408 407
f 402 407 401
f 403 401 407
f 403 407 405
f 403 405 404
f 408 402 403
f 408 403 404
f 408 404 406
f 408 406 405
f 408 405 407
f 411 412 410
f 411 410 409
f 416 415 413
f 416 413 414
f 414 413 409
f 414 409 410
f 415 416 412
f 415 412 411
f 415 411 409
f 415 409 413
f 412 416 414
f 412 414 410
f 418 417 419
f 424 423 422
f 424 422 420
f 424 420 421
f 417 418 428
f 417 428 426
f 417 426 425
f 417 425 427
f 425 426 421
f 425 421 420
f 417 427 422
f 417 422 423
f 417 423 419
f 422 427 425
f 422 425 420
f 418 419 423
f 418 423 424
f 418 424 428
f 428 424 421
f 428 421 426
f 431 430 429
f 434 432 433
f 433 432 429
f 433 429 430
f 434 431 429
f 434 429 432
f 431 434 433
f 431 433 430
f 435 436 437
f 436 435 440
f 436 440 441
f 436 441 438
f 436 438 439
f 439 438 442
f 439 442 443
f 440 435 437
f 440 437 444
f 441 442 438
f 442 441 440
f 442 440 444
f 442 444 443
f 436 439 443
f 436 443 444
f 436 444 437
f 449 446 445
f 449 445 447
f 449 447 450
f 449 450 448
f 446 451 445
f 445 451 454
f 445 454 453
f 445 453 452
f 445 452 447
f 456 449 448
f 456 448 455
f 455 448 450
f 455 450 452
f 455 452 453
f 450 447 452
f 454 456 455
f 454 455 453
f 451 446 449
f 451 449 456
f 451 456 454
f 460 458 457
f 460 457 462
f 460 462 461
f 460 461 463
f 460 463 459
f 457 458 465
f 457 465 464
f 464 465 460
f 464 460 459
f 464 459 466
f 464 466 467
f 462 468 461
f 463 466 459
f 463 461 468
f 463 468 467
f 463 467 466
f 462 457 464
f 462 464 467
f 462 467 468
f 465 458 460
f 470 469 471
f 474 469 470
f 474 470 473
f 474 473 472
f 472 473 476
f 472 476 475
f 471 469 474
f 471 474 477
f 471 477 478
f 478 477 475
f 478 475 476
f 474 472 475
f 474 475 477
f 473 470 471
f 473 471 478
f 473 478 476
f 482 480 479
f 482 479 481
f 482 481 483
f 480 485 484
f 480 484 479
f 479 484 486
f 479 486 487
f 479 487 481
f 485 480 482
f 485 482 488
f 488 482 483
f 488 483 487
f 488 487 486
f 484 485 488
f 484 488 486
f 481 487 483
f 492 490 489
f 492 489 491
f 494 495 489
f 494 489 490
f 494 490 493
f 496 494 493
f 496 493 492
f 496 492 491
f 495 496 491
f 495 491 489
f 493 490 492
f 494 496 495
f 500 499 497
f 500 497 498
f 503 504 502
f 503 502 501
f 498 497 501
f 498 501 502
f 499 500 504
f 499 504 503
f 499 503 501
f 499 501 497
f 504 500 498
f 504 498 502
f 506 507 508
f 506 508 510
f 506 510 509
f 506 509 505
f 512 506 505
f 512 505 511
f 508 507 513
f 508 513 514
f 518 514 513
f 518 513 517
f 518 517 515
f 518 515 516
f 511 505 509
f 511 509 516
f 511 516 515
f 506 512 517
f 506 517 513
f 506 513 507
f 517 512 511
f 517 511 515
f 508 514 518
f 508 518 510
f 510 518 516
f 510 516 509
f 521 519 520
f 524 523 522
f 520 519 522
f 520 522 523
f 521 524 522
f 521 522 519
f 524 521 520
f 524 520 523
f 527 525 526
f 527 526 528
f 527 528 529
f 526 525 530
f 530 525 527
f 530 527 532
f 530 532 531
f 529 528 531
f 529 531 532
f 526 530 531
f 526 531 528
f 527 529 532
f 533 535 534
f 537 536 533
f 537 533 534
f 537 534 538
f 533 536 539
f 533 539 540
f 533 540 535
f 536 537 541
f 536 541 539
f 539 541 542
f 539 542 540
f 538 534 535
f 538 535 540
f 538 540 542
f 541 537 538
f 541 538 542
