# Cliff formation generated by cliff_generator.py
# Vertices 46 Faces 72
# No noise used, only authored geological features
v 24.075000 -0.000000 -10.000000
v 5.872727 -0.000000 -10.000000
v 23.040278 -0.000000 -3.791667
v 6.485294 -0.000000 -3.261765
v 16.606667 -0.000000 -1.760000
v 12.192000 -0.000000 -1.760000
v 20.663069 2.729545 -10.000000
v 9.703862 2.633905 -10.000000
v 19.815428 2.478888 -3.034229
v 9.999927 2.382011 -2.712968
v 14.657571 0.633280 -1.211157
v 14.816342 2.379767 -1.445136
v 20.663069 2.729545 -10.000000
v 20.637573 2.749942 -10.000000
v 9.703862 2.633905 -10.000000
v 10.086932 2.897266 -10.000000
v 19.815428 2.478888 -3.034229
v 19.194301 2.956338 -2.888341
v 9.999927 2.382011 -2.712968
v 11.028565 3.079160 -2.552350
v 14.816342 2.379767 -1.445136
v 14.877459 3.052053 -1.535203
v 20.637573 2.749942 -10.000000
v 18.175931 4.719255 -10.000000
v 10.086932 2.897266 -10.000000
v 12.695358 4.690558 -10.000000
v 19.194301 2.956338 -2.888341
v 17.419324 4.320733 -2.471443
v 11.028565 3.079160 -2.552350
v 12.809631 4.286261 -2.274244
v 14.877459 3.052053 -1.535203
v 14.987952 4.267469 -1.698034
v 18.175931 4.719255 -10.000000
v 15.914344 6.528525 -10.000000
v 12.695358 4.690558 -10.000000
v 15.354551 6.518754 -10.000000
v 15.279752 5.965386 -1.968910
v 15.586291 6.578463 -8.406218
v 17.419324 4.320733 -2.471443
v 15.132797 5.860766 -1.911490
v 12.809631 4.286261 -2.274244
v 14.987952 4.267469 -1.698034
v 15.662185 6.730252 -10.000000
v 15.914344 6.528525 -10.000000
v 15.354551 6.518754 -10.000000
v 15.586291 6.578463 -8.406218
f 3 5 6
f 3 6 4
f 3 4 2
f 3 2 1
f 8 7 1
f 8 1 2
f 9 3 1
f 9 1 7
f 4 10 8
f 4 8 2
f 11 6 5
f 9 12 11
f 9 11 5
f 9 5 3
f 12 10 4
f 12 4 6
f 12 6 11
f 10 12 9
f 10 9 7
f 10 7 8
f 16 14 13
f 16 13 15
f 18 17 13
f 18 13 14
f 19 20 16
f 19 16 15
f 18 22 21
f 18 21 17
f 22 20 19
f 22 19 21
f 17 21 19
f 17 19 15
f 17 15 13
f 20 22 18
f 20 18 14
f 20 14 16
f 26 24 23
f 26 23 25
f 28 27 23
f 28 23 24
f 29 30 26
f 29 26 25
f 28 32 31
f 28 31 27
f 32 30 29
f 32 29 31
f 27 31 29
f 27 29 25
f 27 25 23
f 30 32 28
f 30 28 24
f 30 24 26
f 36 34 33
f 36 33 35
f 37 39 33
f 37 33 34
f 37 34 38
f 41 40 37
f 41 37 38
f 41 38 36
f 41 36 35
f 37 40 42
f 37 42 39
f 40 41 42
f 39 42 41
f 39 41 35
f 39 35 33
f 38 34 36
f 43 44 45
f 46 44 43
f 46 43 45
f 46 45 44
