# Cliff formation generated by cliff_generator.py
# Vertices 822 Faces 1414
# No noise used, only authored geological features
v 23.806159 0.063000 -9.937000
v 6.206051 0.063000 -9.937000
v 6.659984 0.063000 -3.573035
v 6.086123 0.063000 -9.885507
v 22.941441 0.063000 -4.748691
v 23.818009 0.116077 -9.937000
v 21.258627 2.163583 -9.937000
v 9.770539 2.513585 -9.937000
v 20.285162 2.605345 -9.937000
v 22.956864 0.116077 -4.770131
v 20.592969 1.966741 -4.466738
v 10.049510 2.381206 -3.379543
v 9.787656 2.603993 -9.824524
v 7.189077 0.410580 -3.314297
v 9.709945 2.554378 -9.885507
v 19.364512 2.485724 -4.044669
v 20.067843 2.693707 -9.824524
v 22.018856 0.410580 -4.385130
v 19.373103 2.481907 -4.045563
v 22.942519 0.076165 -4.737522
v 17.258070 0.063000 -4.017032
v 16.732902 0.063000 -3.979110
v 17.258638 0.063000 -3.886080
v 16.769820 0.063000 -3.895666
v 16.723408 0.063000 -3.944895
v 17.258641 1.879173 -3.886846
v 16.714327 1.186243 -3.897228
v 16.712558 0.719108 -3.897066
v 20.370944 0.063000 -4.241807
v 17.390110 0.063000 -4.026566
v 20.410743 0.063000 -3.824265
v 17.390731 0.063000 -3.883489
v 20.390051 2.066915 -4.000540
v 20.391064 2.064695 -3.989964
v 20.318875 2.122638 -3.991405
v 17.719255 2.465548 -3.878061
v 19.733078 2.488144 -4.021856
v 19.617847 2.480817 -3.840835
v 19.809232 2.486839 -3.965468
v 17.307646 1.941557 -3.885912
v 17.307079 0.137551 -4.015225
v 20.380268 1.981467 -4.104919
v 17.307643 0.137551 -3.885150
v 20.407202 1.847233 -3.825088
v 20.566361 0.063000 -4.255918
v 20.959118 0.063000 -4.284278
v 20.715163 0.063000 -3.818295
v 20.650509 0.063000 -3.819563
v 20.430207 0.063000 -4.136465
v 20.443472 0.063000 -3.997301
v 21.013105 0.063000 -4.212805
v 20.573819 1.597459 -4.146430
v 20.766050 1.446964 -4.171101
v 20.648782 0.933060 -3.819964
v 20.438772 1.825246 -4.010724
v 20.439950 1.837477 -3.998119
v 20.813512 1.493730 -4.095804
v 20.603772 1.875972 -3.857432
v 21.358722 0.063000 -4.313133
v 21.451757 0.063000 -4.319851
v 21.232751 0.063000 -4.146332
v 21.695099 0.063000 -4.137265
v 21.119797 0.196208 -4.286329
v 20.962633 1.322803 -4.194199
v 21.681319 0.193908 -4.327041
v 21.703084 0.743113 -4.289232
v 20.757532 0.302266 -3.817565
v 20.661281 1.563825 -3.819986
v 22.233004 0.302266 -3.788631
v 20.877183 0.196208 -3.965080
v 20.799058 1.657423 -4.012054
v 22.193801 0.193908 -3.942510
v 22.283636 0.241687 -3.873236
v 21.717713 0.748401 -4.278049
v 22.276223 0.288290 -3.807532
v 21.487387 1.169908 -4.060320
v 22.966392 0.063000 -4.429220
v 22.864072 0.063000 -3.815299
v 21.810896 0.063000 -4.345784
v 22.494356 0.063000 -3.783404
v 22.747361 0.063000 -3.778443
v 21.795517 0.063000 -4.307764
v 22.735308 0.161134 -3.778721
v 22.853671 0.070151 -3.806521
v 21.889725 0.905909 -4.291036
v 22.602224 0.267956 -3.781375
v 22.763748 0.070151 -3.778124
v 21.844198 0.903315 -4.287934
v 22.482948 0.273884 -3.783717
v 21.827145 0.861074 -4.252822
v 14.139073 0.063000 -3.791814
v 11.409270 0.063000 -3.594700
v 14.122833 0.063000 -3.415926
v 13.877546 0.063000 -3.132991
v 13.813540 0.063000 -3.103720
v 12.513658 2.407139 -3.506362
v 13.900738 2.422702 -3.605405
v 13.620232 2.408905 -3.280416
v 11.088387 0.174708 -3.563520
v 11.747292 2.239115 -3.463072
v 14.124635 2.190605 -3.638214
v 14.108623 2.289426 -3.629972
v 13.657402 0.174708 -3.038897
v 13.524967 2.241953 -3.100097
v 13.736087 2.271102 -3.198360
v 13.643686 2.311114 -3.158461
v 14.119423 0.063000 -3.337018
v 14.109861 0.063000 -3.115705
v 13.954980 0.063000 -3.147334
v 13.679142 2.402115 -3.071259
v 13.911631 2.402486 -3.023788
v 13.925996 2.414257 -3.357259
v 14.102038 0.232930 -2.949059
v 14.096141 2.247741 -2.983553
v 13.818107 0.232930 -3.007041
v 14.121292 2.268351 -3.567429
v 15.298227 0.063000 -3.875515
v 14.538721 0.063000 -3.820672
v 16.593509 0.063000 -3.850114
v 14.412366 0.063000 -2.882879
v 16.976245 0.063000 -2.359306
v 14.448382 0.063000 -3.716467
v 16.971406 0.063000 -3.474506
v 16.627273 0.063000 -3.839533
v 14.172239 2.425749 -3.624791
v 16.245617 2.449013 -3.772838
v 14.144304 2.402858 -2.976280
v 17.265360 2.407840 -2.339007
v 17.262112 2.433950 -3.087489
v 16.769503 2.447854 -3.608748
v 16.264728 1.293385 -3.857081
v 14.172954 2.320333 -3.632401
v 14.150469 0.296571 -2.940221
v 17.265500 0.345139 -2.304898
v 14.171240 0.296571 -3.420962
v 17.261281 0.345139 -3.277282
v 17.079086 0.168167 -3.486544
v 16.807203 0.168167 -3.774933
v 17.258851 0.063000 -3.837066
v 17.179174 0.063000 -3.838629
v 17.259212 0.063000 -3.753731
v 17.261801 2.436450 -3.159161
v 17.259465 2.455229 -3.697476
v 16.785085 2.449906 -3.663603
v 16.665037 1.802992 -3.849446
v 17.088574 2.342167 -3.841368
v 16.656201 2.337315 -3.810494
v 17.258855 2.355108 -3.838034
v 16.797933 0.280263 -3.846197
v 17.260943 0.280263 -3.355076
v 17.547263 0.063000 -2.803641
v 17.549467 0.063000 -2.295830
v 18.033085 0.063000 -2.288325
v 18.158458 0.206496 -2.338174
v 17.879995 2.165104 -2.456408
v 18.045855 0.073892 -2.288657
v 17.689622 2.161330 -2.395893
v 17.311338 2.432560 -3.035400
v 17.313019 2.419053 -2.648181
v 17.593128 2.424607 -2.737221
v 17.310484 0.285181 -3.230514
v 17.314184 0.285181 -2.377756
v 17.314050 2.249213 -2.410233
v 17.394036 0.206496 -3.149006
v 17.393807 0.210175 -2.305416
v 17.319027 2.244965 -2.405719
v 19.883800 0.063000 -2.867914
v 18.523863 0.063000 -2.438461
v 17.307855 0.063000 -3.836105
v 20.415424 0.063000 -3.775164
v 17.308325 0.063000 -3.727796
v 20.432632 0.063000 -3.594633
v 18.829258 2.437056 -2.784802
v 18.022944 2.421068 -2.528494
v 20.033264 0.177852 -2.927203
v 20.036658 1.652313 -3.083481
v 18.331594 0.250140 -2.397443
v 19.687611 2.277703 -3.039087
v 17.307860 2.460528 -3.837117
v 18.953385 2.473761 -3.804853
v 17.311027 2.435061 -3.107072
v 17.744425 2.422827 -2.648468
v 20.412294 1.639705 -3.775891
v 20.104370 2.237984 -3.782182
v 17.310215 0.393999 -3.292526
v 20.444166 0.177852 -3.471286
v 20.431382 1.402797 -3.580457
v 18.032872 0.393999 -2.525995
v 20.364100 0.146370 -3.028364
v 20.135487 0.337620 -2.976302
v 20.312680 1.986548 -3.205829
v 20.343227 1.941933 -3.210779
v 20.139297 1.993030 -3.151759
v 20.449210 0.355209 -3.414760
v 20.434193 1.794090 -3.542998
v 20.471049 0.161332 -3.189586
v 20.438276 1.821989 -3.499597
v 20.452097 1.791681 -3.355217
v 20.128395 0.355209 -2.989964
v 20.132147 1.985022 -3.162708
v 21.872552 0.063000 -3.495941
v 20.768174 0.063000 -3.147190
v 20.708896 0.063000 -3.518761
v 20.742643 0.063000 -3.164716
v 22.175324 0.591584 -3.647194
v 20.749287 1.687755 -3.312253
v 20.480846 1.936481 -3.567052
v 20.485791 1.925637 -3.515393
v 20.569937 1.880164 -3.679221
v 22.398362 0.355734 -3.692801
v 20.712277 0.417378 -3.769492
v 20.611318 1.740648 -3.772031
v 22.259923 0.417378 -3.739142
v 20.493384 0.310331 -3.468632
v 20.476713 1.907773 -3.611002
v 20.504569 0.310331 -3.351291
v 20.602614 0.173719 -3.599203
v 20.554848 1.858382 -3.709377
v 10.184435 0.063000 -2.364154
v 7.498567 0.063000 -3.070961
v 10.074779 0.063000 -3.256985
v 10.070635 2.363232 -2.859586
v 10.056859 2.374952 -3.198644
v 7.436437 0.577928 -3.270906
v 9.922653 2.290746 -3.327616
v 10.120960 2.285139 -2.731722
v 7.056722 0.208380 -3.210191
v 10.108871 2.362357 -2.824962
v 10.063635 2.374795 -3.192447
v 7.051318 0.256259 -3.266162
v 9.921529 0.256259 -3.473415
v 10.062403 0.144700 -3.352265
v 10.369244 0.063000 -2.469674
v 11.326721 0.063000 -2.217706
v 10.268142 0.063000 -3.292859
v 10.169852 2.359594 -2.730612
v 11.330171 2.359053 -2.425179
v 10.229973 0.254850 -2.382462
v 12.024835 0.305323 -1.918100
v 11.922095 0.254850 -1.937167
v 10.095613 2.380007 -3.333704
v 10.411138 2.383548 -3.356234
v 10.094412 0.205600 -3.489531
v 10.458765 0.305323 -3.508690
v 10.173345 0.129038 -3.500721
v 10.226358 0.205600 -2.415210
v 12.954538 0.063000 -2.068312
v 13.544752 0.063000 -2.749117
v 10.733333 0.063000 -3.323241
v 11.363691 0.063000 -2.683013
v 12.194795 0.063000 -2.068312
v 12.736927 2.358398 -2.054877
v 11.907698 2.358784 -2.273156
v 12.661157 0.385029 -1.763232
v 12.582173 0.364742 -1.780814
v 13.587200 2.400221 -3.039985
v 13.368979 2.399872 -3.084543
v 10.579471 2.381497 -3.255465
v 10.568618 2.381787 -3.266460
v 11.747814 2.395018 -3.350659
v 10.524123 0.261200 -3.516573
v 10.477222 2.307769 -3.366440
v 10.651863 0.303660 -3.522753
v 11.294449 2.316939 -3.424793
v 13.714445 0.414000 -2.981184
v 12.735140 0.414000 -3.181169
v 12.728086 0.223758 -1.823741
v 12.469698 0.196934 -1.864551
v 14.052530 0.063000 -1.788768
v 12.822299 0.063000 -1.788768
v 14.093163 0.063000 -2.729208
v 13.667797 0.063000 -2.816072
v 12.825113 0.063000 -1.844046
v 14.034959 0.490412 -1.418344
v 12.742108 0.158344 -1.706136
v 14.040784 2.357791 -1.711661
v 12.789851 2.358374 -2.040946
v 12.707105 0.203307 -1.722447
v 14.093550 2.401029 -2.936596
v 13.642417 2.400309 -3.028711
v 14.099850 0.248733 -2.899750
v 13.780255 0.248733 -2.965015
v 14.364445 0.063000 -2.842648
v 17.258865 0.063000 -2.251574
v 17.026658 0.063000 -2.129148
v 14.333618 0.063000 -2.129148
v 17.223645 0.063000 -2.191354
v 16.547401 0.264490 -1.835524
v 15.255034 0.525680 -1.454902
v 17.106277 0.264490 -2.012011
v 15.399674 2.116724 -1.668056
v 17.105424 2.150545 -2.210274
v 14.083870 0.623902 -1.426550
v 14.088819 2.210335 -1.675737
v 14.148075 0.563296 -1.400085
v 14.413250 0.606501 -1.337124
v 14.559033 2.210116 -1.551962
v 14.142167 2.401106 -2.926670
v 16.767266 2.405297 -2.390663
v 14.098737 2.365519 -1.918458
v 14.745876 2.365217 -1.748111
v 14.148275 0.314326 -2.890944
v 17.157910 2.225109 -2.307912
v 14.099537 0.314326 -1.762900
v 14.091860 0.429549 -1.594990
v 14.629892 2.230197 -1.565108
v 17.819233 0.205009 -2.164495
v 17.457585 2.324177 -2.273361
v 17.458543 0.205009 -2.050594
v 17.716313 0.152365 -2.184643
v 17.401657 0.152365 -2.248899
v 17.401544 1.824423 -2.276548
v 17.371783 0.050512 -2.177705
v 17.344906 0.070661 -2.149067
v 17.335848 0.077238 -2.205326
v 17.308426 0.097758 -2.188029
v 10.003588 2.690483 -9.883000
v 10.045564 2.719342 -9.883000
v 17.848717 2.746428 -9.883000
v 10.006306 2.677988 -9.883000
v 10.902781 2.843418 -9.883000
v 10.129710 2.583177 -6.778762
v 10.442490 2.796015 -6.743596
v 19.233383 2.740557 -9.368872
v 19.498607 2.634692 -6.271119
v 10.132390 2.570715 -6.779693
v 18.610974 2.829566 -6.301976
v 11.306946 2.921490 -6.686339
v 10.114896 2.567410 -6.689449
v 10.160044 2.528998 -5.578230
v 10.979340 2.995592 -4.031462
v 10.650901 2.932147 -6.629186
v 10.348241 2.562473 -4.043656
v 14.023848 2.594111 -6.477198
v 14.216029 2.588687 -6.273840
v 14.121499 2.511225 -4.079349
v 10.296394 2.480463 -4.154349
v 14.115151 2.953416 -3.969950
v 14.022631 2.889713 -6.451754
v 14.213830 2.892360 -6.248708
v 14.116480 2.588905 -3.969770
v 10.346368 2.558586 -4.043691
v 14.207783 2.508088 -3.967945
v 14.351598 2.509244 -3.965125
v 14.297887 2.581923 -6.059698
v 15.270849 2.554460 -5.030149
v 14.206164 2.952191 -3.968164
v 14.312803 2.950757 -3.966072
v 14.300915 2.893566 -6.156227
v 15.297713 2.907370 -5.097663
v 14.302428 2.684612 -6.173519
v 15.319739 2.655897 -5.097043
v 14.308599 2.590701 -6.308380
v 14.311375 2.592975 -6.372811
v 15.388146 2.560229 -5.166047
v 16.334900 2.606797 -6.262936
v 14.313051 2.886058 -6.436472
v 16.368821 2.860185 -6.328290
v 14.306431 2.890154 -6.283598
v 15.357973 2.904715 -5.166897
v 14.314505 2.688989 -6.453399
v 16.393504 2.703190 -6.340512
v 16.436482 2.526011 -3.924246
v 14.496888 2.510413 -3.962276
v 15.391417 2.555510 -5.030092
v 14.490312 2.511187 -3.986090
v 16.228888 2.924986 -3.928486
v 14.458368 2.948799 -3.963217
v 15.278970 2.911832 -4.937265
v 14.451906 2.948266 -3.987028
v 16.409845 2.831225 -3.924898
v 15.368530 2.816805 -5.030737
v 17.234238 2.532427 -3.908605
v 17.237548 2.532464 -3.908841
v 16.720117 2.528292 -3.918685
v 17.227159 2.615992 -6.303261
v 16.523311 2.611184 -6.341480
v 15.451187 2.558450 -5.099340
v 16.323077 2.533839 -4.176741
v 17.237550 2.911420 -3.908700
v 16.686032 2.918838 -3.919518
v 17.227247 2.849381 -6.283117
v 16.484392 2.858730 -6.322208
v 15.420782 2.905585 -5.100196
v 16.289583 2.917616 -4.177560
v 17.237550 2.536643 -3.908542
v 19.580000 2.838403 -5.447848
v 19.325265 2.874832 -4.192649
v 19.650564 2.599344 -4.078285
v 19.527004 2.696077 -4.062427
v 19.798226 2.643009 -5.291748
v 17.328521 2.533485 -3.915337
v 19.638553 2.559405 -4.080282
v 17.318181 2.616613 -6.298319
v 19.015015 2.628204 -6.206183
v 19.494113 2.619843 -5.847029
v 19.792485 2.604924 -5.345267
v 17.318269 2.848236 -6.278327
v 19.028462 2.826712 -6.188331
v 17.327955 2.906558 -4.046152
v 19.261588 2.828039 -6.013357
v 17.328558 2.652500 -3.906806
v 17.389461 2.730031 -3.905644
v 17.328559 2.737855 -3.906842
v 19.931603 2.628385 -5.982329
v 19.909183 2.621756 -5.798088
v 19.687721 2.822998 -5.978634
v 19.683799 2.823559 -5.959309
v 19.178485 2.629321 -6.197307
v 19.671585 2.632689 -6.170532
v 19.729807 2.619699 -5.784010
v 19.191717 2.824658 -6.179740
v 19.434851 2.821598 -6.166945
v 19.498946 2.826407 -5.949148
v 10.596828 2.727388 -3.947833
v 10.837473 2.892541 -3.943183
v 10.948452 2.964886 -3.879951
v 10.335565 2.473768 -3.952849
v 13.883493 2.502301 -3.883285
v 10.783354 2.468327 -3.685142
v 10.867607 2.468462 -3.667939
v 11.812608 2.998301 -3.483713
v 14.034835 2.963002 -3.646707
v 11.571075 3.000381 -3.533071
v 14.104626 2.959928 -3.726892
v 14.107286 2.958282 -3.788317
v 11.036179 2.999588 -3.848561
v 11.696736 2.635264 -3.501377
v 14.083601 2.662046 -3.671808
v 14.112804 2.519429 -3.878795
v 14.111604 2.848504 -3.878957
v 14.104361 2.647647 -3.694265
v 16.234151 2.521206 -3.837195
v 14.422341 2.500876 -3.707825
v 14.562297 2.507760 -3.869975
v 16.494148 2.923938 -3.827091
v 14.280422 2.959101 -3.664720
v 16.489184 2.923869 -3.832363
v 14.460963 2.951148 -3.872149
v 16.495310 2.853670 -3.832214
v 14.194001 2.775437 -3.671650
v 14.193340 2.872802 -3.664620
v 14.210897 2.671165 -3.680346
v 14.377756 2.679372 -3.873666
v 14.362600 2.851865 -3.874037
v 14.194072 2.859289 -3.680410
v 10.236195 2.464208 -3.703920
v 10.239481 2.461413 -3.623057
v 11.029931 3.000324 -3.550688
v 10.321781 2.512461 -3.534535
v 11.306637 2.465917 -3.485352
v 10.436721 2.456156 -3.423237
v 11.478255 3.003612 -3.459189
v 11.222195 3.007679 -3.440408
v 11.045541 3.007338 -3.547616
v 10.436486 2.466384 -3.422486
v 18.236771 2.540490 -3.888948
v 19.670843 2.556580 -3.991346
v 19.491370 2.550579 -3.864349
v 18.514654 2.894243 -3.883648
v 19.162268 2.883956 -3.931149
v 19.072562 2.886739 -3.872704
v 11.974971 2.470229 -3.441832
v 14.026358 2.493247 -3.588309
v 13.611510 2.472842 -3.107675
v 12.142611 2.995459 -3.416276
v 13.717609 2.970441 -3.531798
v 13.394411 2.984679 -3.160466
v 13.986501 2.739226 -3.567793
v 13.593335 2.756546 -3.116074
v 14.075562 2.473583 -3.012923
v 13.714056 2.473006 -3.086737
v 14.094347 2.488976 -3.449015
v 13.986819 2.486422 -3.402755
v 14.074083 2.978826 -3.021572
v 13.681434 2.982207 -3.101811
v 14.092271 2.967572 -3.441592
v 13.908103 2.972222 -3.362237
v 17.202643 2.951883 -2.382239
v 17.244117 2.950963 -2.395240
v 17.244227 2.708209 -2.369721
v 16.581535 2.521917 -3.770758
v 14.361004 2.497002 -3.612204
v 14.165850 2.473727 -2.994487
v 17.244243 2.478641 -2.365925
v 14.185994 2.490234 -3.462128
v 17.241176 2.503298 -3.072752
v 16.574868 2.925055 -3.741370
v 14.357860 2.960271 -3.578758
v 14.164374 2.978048 -3.003121
v 14.182761 2.966671 -3.427732
v 17.241347 2.934285 -3.033592
v 17.236684 2.529268 -3.817538
v 16.698832 2.523233 -3.779133
v 17.237944 2.529278 -3.817513
v 17.240426 2.509329 -3.245634
v 17.209572 2.508817 -3.238689
v 17.238065 2.914521 -3.790013
v 16.692217 2.923191 -3.749977
v 17.240593 2.929742 -3.207435
v 17.209739 2.930358 -3.200387
v 17.237944 2.530873 -3.817514
v 17.335177 2.544715 -2.381233
v 17.335090 2.737349 -2.401482
v 17.743142 2.552804 -2.510915
v 17.718112 2.728856 -2.521542
v 17.332597 2.500717 -2.976015
v 17.334880 2.482358 -2.449707
v 17.715606 2.489907 -2.570730
v 17.332770 2.935551 -2.936505
v 17.333958 2.942706 -2.662628
v 17.532163 2.938312 -2.724757
v 17.752427 2.540998 -2.527053
v 17.723979 2.741093 -2.539131
v 19.579373 2.524227 -3.087769
v 19.397853 2.663759 -3.045135
v 19.662389 2.548776 -3.769977
v 19.241191 2.886855 -3.778379
v 19.121635 2.903952 -3.189275
v 17.866694 2.490269 -2.543349
v 17.837108 2.698365 -2.555911
v 17.903381 2.534630 -3.804466
v 17.332019 2.505361 -3.109120
v 17.329393 2.526471 -3.714261
v 18.191157 2.900978 -3.798977
v 17.332189 2.932053 -3.070350
v 17.329632 2.916656 -3.659674
v 17.653536 2.936503 -2.729091
v 10.456875 2.555840 -2.742551
v 10.763051 2.763348 -2.694743
v 10.417105 2.548766 -3.066842
v 11.190722 2.431536 -2.529807
v 10.406698 2.431901 -2.736186
v 11.066924 2.797534 -2.620174
v 10.506275 2.449777 -3.223207
v 10.357080 2.448849 -3.233894
v 11.067094 3.012543 -3.337390
v 11.116359 3.022059 -2.947745
v 10.516741 2.633391 -3.324836
v 10.961514 2.909272 -2.846440
v 11.343920 2.489371 -2.498623
v 11.258677 2.741388 -2.560848
v 12.610402 2.488781 -2.165245
v 12.619733 2.731802 -2.201162
v 11.637715 2.466445 -3.417751
v 10.520854 2.453914 -3.338003
v 13.543308 2.469487 -3.028657
v 12.837832 2.434787 -2.211308
v 11.275259 2.433807 -2.573729
v 12.740246 2.433125 -2.188098
v 11.808258 3.000770 -3.391752
v 13.396157 2.987095 -3.067259
v 12.885262 3.009601 -2.480277
v 13.516694 2.884918 -3.040956
v 12.853200 2.835048 -2.270463
v 12.915281 2.911411 -2.349976
v 12.855185 2.430760 -2.091668
v 13.968660 2.430242 -1.798566
v 12.872257 2.875398 -2.157381
v 13.970024 2.867667 -1.867274
v 14.071593 2.470330 -2.920789
v 13.645853 2.469651 -3.007719
v 14.025309 2.432404 -1.846326
v 14.070097 2.981291 -2.929537
v 13.612823 2.985229 -3.022982
v 14.030348 3.005886 -2.011609
v 12.975238 3.013317 -2.290442
v 14.026861 2.929709 -1.924439
v 15.478802 2.442922 -1.784294
v 17.096755 2.475003 -2.298603
v 15.528446 2.989004 -1.857453
v 16.755827 2.961790 -2.242182
v 17.096732 2.525739 -2.303936
v 17.047812 2.812398 -2.318663
v 14.112701 2.430175 -1.760650
v 14.638424 2.429930 -1.622263
v 14.114507 3.008902 -1.851553
v 14.690689 3.004844 -1.699285
v 14.161881 2.470475 -2.902354
v 17.098824 2.475163 -2.302674
v 14.154443 2.984193 -2.773785
v 14.160808 2.837261 -2.908633
v 20.309917 2.909763 -9.928000
v 18.434228 4.410314 -9.928000
v 10.439389 3.047590 -9.928000
v 12.375388 4.378590 -9.928000
v 18.061796 4.672976 -9.663374
v 17.505899 4.380173 -4.131966
v 20.353799 2.866376 -9.865890
v 19.235173 3.026346 -4.353909
v 11.085111 3.083989 -3.407447
v 10.282864 2.929020 -9.752656
v 12.879402 4.320122 -3.448374
v 12.787475 4.645360 -9.663374
v 18.850246 2.960645 -3.976999
v 20.315292 2.788932 -9.752656
v 19.199573 2.948486 -4.255001
v 17.065700 4.357743 -3.747962
v 12.038245 3.070326 -3.420962
v 13.978878 3.039500 -3.563302
v 13.580649 3.057043 -3.105766
v 13.244135 4.320461 -3.418397
v 13.646466 4.324077 -3.447190
v 13.204660 4.308978 -3.203232
v 13.401549 4.307901 -3.163007
v 13.080236 4.312785 -3.288300
v 12.209824 3.607898 -3.394805
v 13.786458 4.227022 -3.464258
v 13.506879 4.208557 -3.139856
v 12.362640 3.740249 -3.365785
v 13.707475 3.053694 -3.166025
v 13.923394 3.044182 -3.414100
v 13.910851 3.051943 -3.124465
v 14.106462 4.328210 -3.480109
v 13.849681 4.325903 -3.461733
v 14.092704 4.311374 -3.160235
v 13.665127 4.313714 -3.247590
v 14.114161 3.193813 -3.562006
v 14.042750 3.134376 -3.561111
v 14.090008 3.208757 -3.004256
v 14.087194 4.170086 -3.020713
v 13.638062 3.146000 -3.095511
v 13.572275 4.172903 -3.125912
v 14.011935 3.142780 -3.019109
v 14.171456 3.036441 -3.577427
v 16.580693 2.998172 -3.754138
v 14.146029 3.052174 -2.990228
v 16.833196 3.029033 -2.441096
v 17.258846 3.007563 -3.033964
v 17.261274 3.022184 -2.474377
v 14.162687 4.328716 -3.484133
v 16.558334 4.350244 -3.655574
v 14.142365 4.303848 -3.011657
v 16.617953 4.290303 -2.505889
v 17.259367 4.315111 -2.915158
v 17.260921 4.296345 -2.556936
v 17.255507 2.987453 -3.803634
v 16.652909 2.997025 -3.759435
v 17.258378 3.004746 -3.141774
v 17.239131 3.005143 -3.136887
v 17.255937 4.356513 -3.705498
v 16.630519 4.350893 -3.660740
v 17.258902 4.320719 -3.022203
v 17.239654 4.320365 -3.017384
v 17.317690 3.023901 -2.378723
v 17.615676 3.017294 -2.472129
v 17.317151 4.216075 -2.504045
v 17.657407 3.656112 -2.552551
v 17.732225 3.129869 -2.520784
v 17.396125 4.182137 -2.525412
v 17.315903 3.013143 -2.790476
v 17.316603 4.228801 -2.630315
v 17.315903 4.068664 -2.791403
v 17.315506 3.071754 -2.881984
v 17.382235 3.912080 -2.821280
v 17.381922 3.125018 -2.892793
v 18.944396 3.064674 -2.896712
v 18.194983 3.640736 -2.720693
v 19.078489 3.045498 -3.557449
v 18.280460 3.685758 -3.571220
v 18.294951 3.674413 -3.573080
v 17.808258 3.013024 -2.532495
v 18.896904 2.988886 -2.873737
v 17.689000 3.851840 -2.583131
v 17.715403 3.876466 -2.594061
v 17.314749 3.006190 -3.056584
v 17.312119 2.990353 -3.662694
v 19.049531 2.967059 -3.625799
v 18.788135 2.966908 -3.770956
v 18.022434 3.530758 -3.820055
v 17.731632 3.160559 -3.825602
v 17.311847 4.122401 -3.726322
v 17.311546 3.167232 -3.794789
v 17.892282 3.667986 -3.800817
v 18.643065 3.032602 -3.807674
v 17.315193 4.122254 -2.955177
v 17.312133 4.197989 -3.660505
v 17.568361 3.964060 -2.700946
v 11.499211 3.314528 -2.540974
v 12.662778 4.103125 -2.359287
v 12.884105 4.303483 -3.130410
v 12.893971 4.268576 -2.463375
v 11.150598 3.125602 -3.352903
v 11.670209 3.483576 -3.364755
v 11.214540 3.137954 -2.847165
v 11.480402 3.291173 -2.542236
v 12.631291 3.283068 -2.238091
v 11.832490 3.073594 -3.405870
v 11.168071 3.084148 -3.357137
v 13.438496 3.059764 -3.077677
v 11.235613 3.097195 -2.822935
v 12.846294 3.085851 -2.397280
v 13.031124 4.306929 -3.181473
v 13.410831 4.304851 -3.103898
v 12.924387 4.269305 -2.474246
v 13.421276 4.302123 -3.050798
v 12.004905 3.613785 -3.379586
v 13.488084 3.098972 -3.068198
v 12.881933 3.163632 -2.310838
v 13.495944 3.136584 -3.016292
v 11.227845 3.123504 -2.796009
v 12.873957 3.160313 -2.307567
v 14.039988 3.083884 -1.835931
v 12.994394 3.091248 -2.112250
v 13.039269 4.259988 -2.284978
v 13.965442 4.251997 -2.039987
v 14.043330 4.155215 -2.004209
v 14.088012 3.054170 -2.944946
v 13.601573 3.058359 -3.044351
v 12.922137 3.088290 -2.263728
v 13.521757 4.304245 -3.081235
v 14.005974 4.301595 -2.982309
v 12.967419 4.267632 -2.438024
v 14.084641 4.205767 -2.964661
v 14.890184 3.202851 -1.630979
v 14.964039 4.015261 -1.739819
v 16.887911 4.284896 -2.375740
v 15.569215 4.256007 -1.956269
v 17.087117 3.117601 -2.315774
v 14.953468 3.164909 -1.646970
v 14.095799 3.208445 -1.840911
v 14.098339 4.022729 -1.968814
v 14.143576 3.053692 -2.933591
v 16.941220 3.029599 -2.361882
v 14.101050 3.080003 -1.951554
v 14.931789 3.074153 -1.732015
v 14.139925 4.300862 -2.954942
v 16.885519 4.285841 -2.394012
v 14.113532 4.268566 -2.341326
v 17.087794 3.100562 -2.333122
v 17.900863 4.760279 -9.874000
v 16.034830 6.253105 -9.874000
v 12.993551 4.734584 -9.874000
v 15.499712 6.457570 -9.874000
v 15.671080 6.447479 -9.874000
v 17.313801 4.451060 -4.032486
v 15.731219 6.299323 -8.398969
v 15.512281 5.861447 -3.801271
v 13.086814 4.404621 -3.568707
v 15.034836 5.741045 -3.523237
v 13.254088 4.514241 -3.482619
v 15.203688 5.865521 -3.657486
v 16.923872 4.439104 -3.843301
v 16.563867 4.543985 -3.719480
v 14.001203 5.015081 -3.277786
v 13.991925 5.008689 -3.277574
v 13.998445 5.009165 -3.213468
v 13.947842 4.974986 -3.223237
v 14.083950 4.403724 -3.451960
v 13.847611 4.401600 -3.435047
v 14.066654 4.382560 -3.049854
v 13.598135 4.385123 -3.145574
v 14.080531 4.907572 -3.415585
v 13.818795 4.579434 -3.420215
v 13.946959 4.815551 -3.412539
v 14.065372 4.820398 -3.057350
v 13.596571 4.409534 -3.146297
v 13.671315 4.554238 -3.133424
v 14.077190 4.989129 -3.345184
v 14.068714 4.970945 -3.147463
v 15.317827 5.896478 -2.897280
v 15.339334 5.939492 -3.348926
v 16.538959 5.011357 -3.585663
v 15.430810 5.878913 -3.443438
v 17.102346 4.487288 -3.035468
v 16.887830 4.594860 -2.555162
v 17.104407 4.422321 -2.560577
v 14.161757 5.110754 -3.042465
v 15.235149 5.835760 -2.835244
v 14.173754 5.136495 -3.322340
v 14.182343 4.404608 -3.459002
v 16.548641 4.425873 -3.628343
v 14.167657 4.386638 -3.117574
v 17.134943 4.396490 -3.009104
v 17.122762 4.372826 -2.558791
v 16.962913 4.371344 -2.546498
v 14.178194 5.015954 -3.414866
v 14.163609 4.477830 -3.031629
v 16.589990 4.712523 -2.540012
v 16.632347 4.464323 -2.527262
v 17.058582 4.604551 -3.652353
v 16.800788 4.806374 -3.619267
v 17.059823 4.565417 -3.366298
v 16.674966 4.427008 -3.637384
v 17.118678 4.430996 -3.669137
v 17.094166 4.405999 -3.194633
v 17.107068 4.406094 -3.195140
v 16.668769 4.801708 -3.610069
v 13.406225 4.544283 -2.289786
v 13.810757 4.818451 -2.226620
v 14.060457 5.036074 -2.961882
v 13.855491 4.897633 -3.001451
v 14.036536 4.984752 -2.403865
v 13.335110 4.499782 -2.360020
v 13.809891 4.540801 -2.183008
v 14.062385 4.377336 -2.950604
v 13.590317 4.379919 -3.047049
v 14.036278 4.345389 -2.343635
v 13.332487 4.351460 -2.529802
v 14.034639 4.376730 -2.308361
v 15.281576 5.823978 -2.136024
v 15.301046 5.862916 -2.544880
v 16.586413 4.820972 -2.442499
v 15.437568 5.773427 -2.692843
v 15.116787 5.703601 -2.022688
v 15.244696 5.794663 -2.072666
v 14.344804 5.180397 -2.143230
v 14.149952 5.085429 -2.767101
v 14.138077 5.059950 -2.490077
v 15.006720 4.492872 -1.860485
v 16.758151 4.362587 -2.399854
v 15.271659 4.330022 -1.927008
v 16.705371 4.671867 -2.415743
v 14.342677 4.498600 -2.036138
v 14.352560 4.375748 -2.891321
v 14.321888 4.338216 -2.178241
v 14.230263 4.957973 -2.925915
v 14.231650 4.484253 -2.917805
v 14.153585 5.006488 -2.844486
v 14.136397 4.521545 -2.405507
v 14.154938 4.544234 -2.836573
v 14.265993 4.385043 -2.153598
f 5 3 4
f 5 4 2
f 5 2 1
f 8 9 7
f 8 7 6
f 8 6 1
f 8 1 2
f 11 10 6
f 11 6 7
f 3 14 12
f 3 12 13
f 3 13 15
f 3 15 4
f 12 16 17
f 12 17 13
f 19 16 12
f 19 12 14
f 19 14 18
f 10 20 5
f 10 5 1
f 10 1 6
f 14 3 5
f 14 5 20
f 14 20 18
f 4 15 8
f 4 8 2
f 13 17 9
f 13 9 8
f 13 8 15
f 16 19 11
f 16 11 7
f 16 7 9
f 16 9 17
f 11 19 18
f 11 18 20
f 11 20 10
f 23 24 25
f 23 25 22
f 23 22 21
f 27 26 21
f 27 21 22
f 26 27 28
f 26 28 24
f 26 24 23
f 26 23 21
f 24 28 25
f 28 27 22
f 28 22 25
f 31 32 30
f 31 30 29
f 35 34 33
f 36 38 39
f 36 39 37
f 40 36 37
f 40 37 42
f 40 42 29
f 40 29 30
f 40 30 41
f 44 38 36
f 44 36 40
f 44 40 43
f 44 43 32
f 44 32 31
f 43 40 41
f 34 44 31
f 34 31 29
f 34 29 42
f 34 42 33
f 32 43 41
f 32 41 30
f 39 35 33
f 39 33 42
f 39 42 37
f 38 44 34
f 38 34 35
f 38 35 39
f 47 48 50
f 47 50 49
f 47 49 45
f 47 45 46
f 47 46 51
f 52 53 46
f 52 46 45
f 54 48 47
f 50 56 55
f 50 55 49
f 58 54 47
f 58 47 51
f 58 51 57
f 55 56 58
f 55 58 57
f 55 57 53
f 55 53 52
f 49 55 52
f 49 52 45
f 53 57 51
f 53 51 46
f 48 54 58
f 48 58 56
f 48 56 50
f 62 61 59
f 62 59 60
f 64 66 65
f 64 65 60
f 64 60 59
f 64 59 63
f 68 67 69
f 70 67 68
f 70 68 71
f 70 71 64
f 70 64 63
f 73 72 65
f 73 65 66
f 73 66 74
f 73 75 69
f 73 69 67
f 73 67 70
f 73 70 61
f 73 61 62
f 73 62 72
f 61 70 63
f 61 63 59
f 72 62 60
f 72 60 65
f 71 76 74
f 71 74 66
f 71 66 64
f 68 69 75
f 68 75 76
f 68 76 71
f 75 73 74
f 75 74 76
f 78 81 80
f 78 80 82
f 78 82 79
f 78 79 77
f 86 83 84
f 86 84 78
f 86 78 77
f 86 77 85
f 83 87 84
f 88 85 77
f 88 77 79
f 83 86 89
f 83 89 80
f 83 80 81
f 83 81 87
f 80 89 90
f 80 90 82
f 87 81 78
f 87 78 84
f 89 86 85
f 89 85 88
f 89 88 90
f 90 88 79
f 90 79 82
f 94 95 92
f 94 92 91
f 94 91 93
f 98 97 96
f 100 96 97
f 100 97 102
f 100 102 101
f 100 101 91
f 100 91 92
f 100 92 99
f 104 100 99
f 104 99 103
f 93 91 101
f 105 94 93
f 105 93 101
f 105 101 102
f 95 103 99
f 95 99 92
f 104 106 98
f 104 98 96
f 104 96 100
f 98 106 105
f 98 105 102
f 98 102 97
f 105 106 104
f 105 104 103
f 105 103 95
f 105 95 94
f 108 109 107
f 110 111 112
f 114 111 110
f 114 110 115
f 114 115 113
f 114 113 108
f 114 108 107
f 114 107 116
f 109 115 110
f 109 110 112
f 109 112 116
f 109 116 107
f 113 115 109
f 113 109 108
f 111 114 116
f 111 116 112
f 123 121 120
f 123 120 122
f 123 122 118
f 123 118 117
f 123 117 119
f 123 119 124
f 127 128 129
f 127 129 130
f 127 130 126
f 127 126 125
f 132 125 126
f 132 126 131
f 132 131 117
f 132 117 118
f 131 119 117
f 128 127 133
f 128 133 120
f 128 120 121
f 128 121 134
f 133 127 125
f 133 125 132
f 133 132 135
f 128 134 136
f 128 136 129
f 135 132 118
f 135 118 122
f 129 136 137
f 129 137 138
f 129 138 130
f 120 133 135
f 120 135 122
f 134 121 123
f 134 123 137
f 134 137 136
f 137 123 124
f 137 124 138
f 131 126 130
f 131 130 138
f 131 138 124
f 131 124 119
f 141 140 139
f 142 143 144
f 147 146 145
f 145 146 148
f 145 148 139
f 145 139 140
f 145 140 149
f 142 150 141
f 142 141 139
f 142 139 148
f 142 148 143
f 150 142 144
f 150 144 147
f 150 147 145
f 150 145 149
f 150 149 140
f 150 140 141
f 144 143 148
f 144 148 146
f 144 146 147
f 153 152 151
f 155 157 156
f 155 156 154
f 159 160 158
f 162 163 159
f 162 159 158
f 162 158 161
f 160 155 154
f 160 154 164
f 160 164 161
f 160 161 158
f 152 165 162
f 152 162 161
f 152 161 164
f 152 164 151
f 154 156 153
f 154 153 151
f 154 151 164
f 163 166 157
f 163 157 155
f 163 155 160
f 163 160 159
f 157 166 165
f 157 165 152
f 157 152 153
f 157 153 156
f 165 166 163
f 165 163 162
f 167 168 171
f 167 171 169
f 167 169 170
f 167 170 172
f 176 178 173
f 176 173 174
f 176 174 177
f 176 177 168
f 176 168 167
f 176 167 175
f 181 182 174
f 181 174 173
f 181 173 180
f 181 180 179
f 179 180 184
f 179 184 183
f 179 183 170
f 179 170 169
f 185 181 179
f 185 179 169
f 185 169 171
f 187 186 172
f 187 172 170
f 187 170 183
f 176 175 186
f 176 186 187
f 188 182 181
f 188 181 185
f 175 167 172
f 175 172 186
f 168 177 188
f 168 188 185
f 168 185 171
f 173 178 184
f 173 184 180
f 178 176 187
f 178 187 183
f 178 183 184
f 174 182 188
f 174 188 177
f 192 191 193
f 192 193 190
f 192 190 189
f 198 196 194
f 198 194 195
f 198 195 197
f 199 200 195
f 199 195 194
f 189 190 199
f 189 199 194
f 189 194 196
f 191 192 198
f 191 198 197
f 200 193 191
f 200 191 197
f 200 197 195
f 189 196 198
f 189 198 192
f 199 190 193
f 199 193 200
f 202 204 203
f 202 203 201
f 208 206 205
f 208 205 209
f 208 209 207
f 205 206 202
f 205 202 201
f 205 201 210
f 212 213 211
f 214 216 208
f 214 208 207
f 214 207 215
f 217 214 215
f 217 215 218
f 217 218 212
f 217 212 211
f 201 203 217
f 201 217 211
f 201 211 213
f 201 213 210
f 204 216 214
f 204 214 217
f 204 217 203
f 209 205 210
f 209 210 213
f 209 213 212
f 209 212 218
f 215 207 209
f 215 209 218
f 204 202 206
f 204 206 208
f 204 208 216
f 219 220 221
f 222 223 225
f 222 225 224
f 226 227 220
f 226 220 219
f 222 228 229
f 222 229 223
f 225 231 230
f 225 230 224
f 228 226 219
f 228 219 221
f 228 221 232
f 228 232 229
f 221 220 227
f 221 227 230
f 221 230 231
f 221 231 232
f 226 228 222
f 226 222 224
f 226 224 230
f 226 230 227
f 223 229 232
f 223 232 231
f 223 231 225
f 234 233 235
f 237 236 238
f 237 238 240
f 237 240 239
f 236 237 242
f 236 242 241
f 241 242 244
f 241 244 245
f 241 245 243
f 246 238 236
f 246 236 241
f 246 241 243
f 237 239 244
f 237 244 242
f 234 240 238
f 234 238 246
f 234 246 233
f 233 246 243
f 233 243 245
f 233 245 235
f 239 240 234
f 239 234 235
f 239 235 245
f 239 245 244
f 247 251 250
f 247 250 249
f 247 249 248
f 252 253 255
f 252 255 254
f 253 252 256
f 253 256 257
f 253 257 260
f 253 260 259
f 253 259 258
f 262 264 263
f 262 263 261
f 257 256 265
f 257 265 266
f 252 254 267
f 252 267 247
f 252 247 248
f 252 248 265
f 252 265 256
f 250 258 259
f 250 259 262
f 250 262 261
f 250 261 249
f 267 268 251
f 267 251 247
f 266 265 248
f 266 248 249
f 266 249 261
f 266 261 263
f 254 255 268
f 254 268 267
f 251 268 255
f 251 255 253
f 251 253 258
f 251 258 250
f 259 260 264
f 259 264 262
f 264 260 257
f 264 257 266
f 264 266 263
f 269 270 273
f 269 273 272
f 269 272 271
f 274 275 270
f 274 270 269
f 276 277 278
f 276 278 275
f 276 275 274
f 277 276 279
f 277 279 280
f 280 279 281
f 280 281 282
f 276 274 269
f 276 269 271
f 276 271 281
f 276 281 279
f 273 278 277
f 273 277 280
f 273 280 282
f 273 282 272
f 271 272 282
f 271 282 281
f 275 278 273
f 275 273 270
f 284 287 285
f 284 285 286
f 284 286 283
f 292 291 289
f 292 289 288
f 292 288 290
f 297 294 293
f 297 293 295
f 297 295 296
f 300 301 299
f 300 299 298
f 298 299 303
f 298 303 284
f 298 284 283
f 298 283 302
f 304 305 293
f 304 293 294
f 304 294 300
f 304 300 298
f 304 298 302
f 289 296 295
f 289 295 305
f 289 305 304
f 289 304 286
f 289 286 285
f 289 285 288
f 290 288 285
f 290 285 287
f 286 304 302
f 286 302 283
f 295 293 305
f 291 306 297
f 291 297 296
f 291 296 289
f 301 306 291
f 301 291 292
f 301 292 303
f 301 303 299
f 290 287 284
f 290 284 303
f 290 303 292
f 294 297 306
f 294 306 301
f 294 301 300
f 308 309 307
f 312 308 307
f 312 307 310
f 312 310 311
f 309 314 313
f 309 313 310
f 309 310 307
f 310 313 315
f 310 315 311
f 313 314 316
f 313 316 315
f 314 309 308
f 314 308 312
f 314 312 316
f 315 316 312
f 315 312 311
f 321 319 320
f 321 320 317
f 321 317 318
f 322 323 318
f 322 318 317
f 325 326 320
f 325 320 319
f 325 319 324
f 328 327 324
f 328 324 319
f 328 319 321
f 327 328 323
f 327 323 322
f 327 322 326
f 327 326 325
f 327 325 324
f 326 322 317
f 326 317 320
f 323 328 321
f 323 321 318
f 333 331 332
f 333 332 329
f 333 329 330
f 336 337 330
f 336 330 329
f 336 329 334
f 336 334 335
f 331 338 340
f 331 340 339
f 331 339 332
f 338 331 333
f 338 333 342
f 338 342 341
f 332 339 334
f 332 334 329
f 338 341 336
f 338 336 335
f 338 335 340
f 340 335 334
f 340 334 339
f 337 342 333
f 337 333 330
f 341 342 337
f 341 337 336
f 344 343 345
f 344 345 346
f 347 348 350
f 347 350 349
f 348 347 343
f 348 343 344
f 343 347 349
f 343 349 351
f 343 351 345
f 348 344 346
f 348 346 352
f 348 352 350
f 350 352 351
f 350 351 349
f 352 346 345
f 352 345 351
f 355 353 354
f 355 354 356
f 360 358 357
f 360 357 359
f 357 358 362
f 357 362 361
f 353 359 357
f 353 357 361
f 353 361 354
f 360 355 356
f 360 356 362
f 360 362 358
f 355 360 359
f 355 359 353
f 362 356 354
f 362 354 361
f 363 364 366
f 363 366 365
f 370 368 367
f 370 367 369
f 371 367 368
f 371 368 364
f 371 364 363
f 366 370 369
f 366 369 372
f 366 372 365
f 371 363 365
f 371 365 372
f 367 371 372
f 367 372 369
f 364 368 370
f 364 370 366
f 374 373 375
f 374 375 379
f 374 379 378
f 374 378 377
f 374 377 376
f 385 381 380
f 385 380 382
f 385 382 383
f 385 383 384
f 386 373 374
f 380 381 375
f 380 375 373
f 380 373 374
f 380 374 386
f 383 382 376
f 383 376 377
f 380 386 374
f 380 374 376
f 380 376 382
f 378 384 383
f 378 383 377
f 379 385 384
f 379 384 378
f 375 381 385
f 375 385 379
f 388 390 389
f 388 389 391
f 388 391 387
f 393 392 394
f 393 394 395
f 393 395 396
f 393 396 397
f 400 388 387
f 400 387 401
f 400 401 399
f 400 399 398
f 390 403 402
f 390 402 392
f 390 392 393
f 390 393 389
f 403 404 402
f 398 399 395
f 398 395 394
f 392 402 404
f 392 404 400
f 392 400 398
f 392 398 394
f 401 396 395
f 401 395 399
f 389 393 397
f 389 397 391
f 387 391 397
f 387 397 396
f 387 396 401
f 404 403 390
f 404 390 388
f 404 388 400
f 406 405 407
f 406 407 408
f 405 406 411
f 405 411 409
f 405 409 410
f 414 408 407
f 414 407 413
f 414 413 412
f 412 413 410
f 412 410 409
f 411 414 412
f 411 412 409
f 407 405 410
f 407 410 413
f 411 406 408
f 411 408 414
f 417 416 415
f 421 420 418
f 421 418 419
f 424 422 423
f 424 423 425
f 424 425 426
f 424 426 427
f 423 422 428
f 423 428 429
f 415 416 431
f 415 431 430
f 415 430 419
f 415 419 418
f 422 424 420
f 422 420 421
f 422 421 428
f 426 425 432
f 426 432 430
f 426 430 431
f 423 429 432
f 423 432 425
f 420 424 427
f 420 427 417
f 420 417 415
f 420 415 418
f 432 429 428
f 432 428 421
f 432 421 419
f 432 419 430
f 427 426 431
f 427 431 416
f 427 416 417
f 434 435 433
f 437 436 438
f 437 438 439
f 440 436 437
f 440 437 442
f 440 442 441
f 440 441 443
f 440 443 434
f 440 434 433
f 445 439 438
f 445 438 440
f 445 440 433
f 445 433 435
f 445 435 444
f 441 442 446
f 443 441 446
f 443 446 445
f 443 445 444
f 436 440 438
f 434 443 444
f 434 444 435
f 446 442 437
f 446 437 439
f 446 439 445
f 450 449 447
f 450 447 448
f 451 452 448
f 451 448 447
f 454 453 455
f 453 454 456
f 453 456 452
f 453 452 451
f 449 455 453
f 449 453 451
f 449 451 447
f 452 456 450
f 452 450 448
f 456 454 455
f 456 455 449
f 456 449 450
f 459 457 458
f 460 462 461
f 460 461 458
f 460 458 457
f 462 460 457
f 462 457 459
f 462 459 458
f 462 458 461
f 465 463 464
f 468 467 466
f 466 467 469
f 466 469 464
f 466 464 463
f 470 468 466
f 470 466 463
f 470 463 465
f 470 465 464
f 470 464 469
f 468 470 469
f 468 469 467
f 471 472 474
f 471 474 473
f 476 475 477
f 476 477 478
f 475 476 472
f 475 472 471
f 475 471 473
f 475 473 477
f 472 476 478
f 472 478 474
f 478 477 473
f 478 473 474
f 480 479 481
f 487 485 484
f 487 484 486
f 487 486 483
f 487 483 482
f 490 479 480
f 490 480 492
f 490 492 488
f 490 488 489
f 490 489 491
f 489 488 482
f 489 482 483
f 479 490 484
f 479 484 485
f 479 485 481
f 484 490 491
f 484 491 486
f 480 481 485
f 480 485 487
f 480 487 492
f 492 487 482
f 492 482 488
f 486 491 489
f 486 489 483
f 496 497 494
f 496 494 493
f 496 493 495
f 501 500 498
f 501 498 499
f 499 498 502
f 499 502 495
f 499 495 493
f 499 493 494
f 502 495 493
f 500 496 495
f 500 495 502
f 500 502 498
f 497 501 499
f 497 499 494
f 500 501 497
f 500 497 496
f 506 504 503
f 506 503 505
f 509 508 507
f 511 512 510
f 508 503 504
f 508 504 511
f 508 511 510
f 508 510 507
f 514 513 509
f 514 509 507
f 514 507 510
f 514 510 512
f 503 508 509
f 503 509 513
f 503 513 505
f 504 506 514
f 504 514 512
f 504 512 511
f 506 505 513
f 506 513 514
f 519 516 515
f 519 515 517
f 519 517 518
f 516 521 520
f 516 520 515
f 515 520 523
f 515 523 524
f 515 524 522
f 515 522 517
f 526 528 519
f 526 519 518
f 526 518 525
f 526 525 527
f 525 518 517
f 525 517 522
f 523 526 527
f 523 527 524
f 520 521 528
f 520 528 526
f 520 526 523
f 528 521 516
f 528 516 519
f 527 525 522
f 527 522 524
f 529 530 531
f 534 530 529
f 534 529 533
f 534 533 532
f 532 533 536
f 532 536 535
f 534 532 535
f 533 529 531
f 533 531 536
f 530 534 535
f 530 535 536
f 530 536 531
f 540 538 537
f 540 537 539
f 544 542 541
f 544 541 543
f 548 550 549
f 548 549 546
f 548 546 545
f 548 545 547
f 538 553 552
f 538 552 551
f 538 551 537
f 537 551 545
f 537 545 546
f 537 546 539
f 551 552 554
f 551 554 547
f 551 547 545
f 556 555 548
f 556 548 547
f 556 547 554
f 549 541 542
f 549 542 540
f 549 540 539
f 549 539 546
f 550 543 541
f 550 541 549
f 544 555 556
f 544 556 553
f 544 553 538
f 544 538 540
f 544 540 542
f 555 544 543
f 555 543 550
f 555 550 548
f 553 556 554
f 553 554 552
f 560 559 557
f 560 557 558
f 563 558 557
f 563 557 562
f 563 562 561
f 567 566 564
f 567 564 565
f 565 564 561
f 565 561 562
f 566 568 563
f 566 563 561
f 566 561 564
f 557 559 567
f 557 567 565
f 557 565 562
f 560 568 566
f 560 566 567
f 560 567 559
f 558 563 568
f 558 568 560
f 574 572 571
f 574 571 569
f 574 569 570
f 574 570 573
f 578 577 575
f 578 575 576
f 569 576 575
f 569 575 579
f 569 579 580
f 569 580 570
f 577 578 571
f 577 571 572
f 577 572 581
f 582 574 573
f 582 573 580
f 582 580 579
f 575 577 581
f 575 581 582
f 575 582 579
f 571 578 576
f 571 576 569
f 570 580 573
f 572 574 582
f 572 582 581
f 586 584 583
f 586 583 585
f 588 590 589
f 588 589 583
f 588 583 584
f 588 584 587
f 591 593 594
f 591 594 586
f 591 586 585
f 591 585 592
f 597 595 591
f 597 591 592
f 597 592 596
f 593 598 588
f 593 588 587
f 593 587 594
f 598 593 591
f 598 591 595
f 596 592 585
f 596 585 583
f 596 583 589
f 594 587 584
f 594 584 586
f 590 597 596
f 590 596 589
f 598 595 597
f 598 597 590
f 598 590 588
f 601 599 600
f 606 604 605
f 606 605 603
f 606 603 602
f 602 603 608
f 602 608 600
f 602 600 599
f 602 599 607
f 609 605 604
f 609 604 610
f 609 610 607
f 609 607 599
f 609 599 601
f 609 601 600
f 609 600 608
f 610 606 602
f 610 602 607
f 604 606 610
f 605 609 608
f 605 608 603
f 613 611 612
f 617 616 614
f 617 614 615
f 615 614 618
f 615 618 619
f 621 623 622
f 621 622 624
f 621 624 620
f 616 621 620
f 616 620 618
f 616 618 614
f 611 622 623
f 611 623 617
f 611 617 615
f 611 615 619
f 611 619 612
f 624 622 611
f 624 611 613
f 620 624 613
f 620 613 612
f 620 612 619
f 620 619 618
f 623 621 616
f 623 616 617
f 629 630 628
f 629 628 627
f 629 627 625
f 629 625 626
f 633 634 636
f 633 636 635
f 633 635 632
f 633 632 631
f 631 632 626
f 631 626 625
f 634 633 627
f 634 627 628
f 627 633 631
f 627 631 625
f 636 630 629
f 636 629 635
f 635 629 626
f 635 626 632
f 636 634 628
f 636 628 630
f 639 640 638
f 639 638 637
f 644 643 641
f 644 641 642
f 642 641 637
f 642 637 638
f 643 639 637
f 643 637 641
f 640 644 642
f 640 642 638
f 643 644 640
f 643 640 639
f 648 650 647
f 648 647 645
f 648 645 646
f 648 646 649
f 646 645 651
f 645 647 652
f 645 652 653
f 645 653 654
f 645 654 651
f 648 649 656
f 648 656 655
f 647 650 652
f 652 650 648
f 652 648 655
f 652 655 653
f 649 646 651
f 649 651 654
f 649 654 656
f 653 655 656
f 653 656 654
f 658 657 659
f 658 659 661
f 658 661 660
f 658 665 664
f 658 664 662
f 658 662 663
f 658 663 657
f 663 662 666
f 663 666 667
f 663 667 669
f 663 669 668
f 672 674 670
f 672 670 671
f 672 671 673
f 670 675 671
f 666 676 677
f 666 677 672
f 666 672 673
f 666 673 667
f 662 664 678
f 662 678 676
f 662 676 666
f 657 663 668
f 657 668 659
f 676 678 665
f 676 665 658
f 676 658 660
f 676 660 677
f 677 660 661
f 677 661 674
f 677 674 672
f 661 659 668
f 661 668 669
f 661 669 675
f 661 675 670
f 661 670 674
f 664 665 678
f 669 667 673
f 669 673 671
f 669 671 675
f 685 679 680
f 685 680 682
f 685 682 681
f 685 681 684
f 685 684 683
f 680 679 686
f 680 686 687
f 692 691 689
f 692 689 688
f 692 688 690
f 682 695 696
f 682 696 694
f 682 694 693
f 682 693 681
f 684 697 688
f 684 688 689
f 684 689 683
f 697 693 694
f 697 694 698
f 697 698 690
f 697 690 688
f 695 699 700
f 695 700 696
f 691 701 685
f 691 685 683
f 691 683 689
f 681 693 697
f 681 697 684
f 686 679 685
f 686 685 701
f 692 702 687
f 692 687 686
f 692 686 701
f 692 701 691
f 695 682 680
f 695 680 687
f 695 687 702
f 695 702 699
f 699 702 692
f 699 692 690
f 699 690 698
f 699 698 700
f 696 700 698
f 696 698 694
f 707 706 705
f 707 705 704
f 707 704 703
f 703 704 710
f 703 710 709
f 703 709 708
f 713 705 706
f 713 706 712
f 713 712 711
f 711 712 714
f 711 714 708
f 711 708 709
f 707 703 708
f 707 708 714
f 710 713 711
f 710 711 709
f 710 704 705
f 710 705 713
f 706 707 714
f 706 714 712
f 717 718 716
f 717 716 715
f 717 715 720
f 717 720 719
f 716 722 721
f 716 721 715
f 726 725 723
f 726 723 724
f 729 718 717
f 729 717 728
f 729 728 727
f 727 728 730
f 727 730 724
f 727 724 723
f 725 721 722
f 725 722 729
f 725 729 727
f 725 727 723
f 720 726 724
f 720 724 730
f 720 730 719
f 719 730 728
f 719 728 717
f 726 720 715
f 726 715 721
f 726 721 725
f 722 716 718
f 722 718 729
f 734 735 732
f 734 732 731
f 734 731 733
f 738 736 731
f 738 731 732
f 738 732 737
f 739 741 740
f 739 740 742
f 739 742 734
f 739 734 733
f 736 743 739
f 736 739 733
f 736 733 731
f 740 741 744
f 742 738 737
f 742 737 735
f 742 735 734
f 737 732 735
f 742 740 744
f 742 744 743
f 742 743 736
f 742 736 738
f 741 739 743
f 741 743 744
f 748 747 745
f 748 745 746
f 751 752 750
f 751 750 749
f 755 753 749
f 755 749 750
f 755 750 754
f 756 758 757
f 756 757 752
f 756 752 751
f 760 756 751
f 760 751 749
f 760 749 753
f 760 753 759
f 752 757 754
f 752 754 750
f 746 745 759
f 746 759 753
f 746 753 755
f 758 756 760
f 758 760 747
f 758 747 748
f 747 760 759
f 747 759 745
f 757 758 748
f 757 748 746
f 757 746 755
f 757 755 754
f 761 766 767
f 761 767 765
f 761 765 763
f 761 763 764
f 761 764 762
f 768 769 761
f 768 761 762
f 768 762 770
f 774 775 776
f 774 776 773
f 774 773 771
f 774 771 772
f 777 764 763
f 777 763 772
f 777 772 771
f 769 768 778
f 769 778 780
f 769 780 779
f 773 778 768
f 773 768 770
f 773 770 777
f 773 777 771
f 765 774 772
f 765 772 763
f 779 766 761
f 779 761 769
f 767 775 774
f 767 774 765
f 770 762 764
f 770 764 777
f 766 779 780
f 766 780 776
f 766 776 775
f 766 775 767
f 776 780 778
f 776 778 773
f 783 781 782
f 787 786 784
f 787 784 785
f 788 782 781
f 788 781 785
f 788 785 784
f 786 788 784
f 783 787 785
f 783 785 781
f 786 787 783
f 786 783 782
f 786 782 788
f 794 789 790
f 794 790 793
f 794 793 791
f 794 791 792
f 790 789 795
f 798 799 797
f 798 797 796
f 792 791 796
f 792 796 797
f 793 800 798
f 793 798 796
f 793 796 791
f 799 794 792
f 799 792 797
f 800 795 789
f 800 789 794
f 800 794 799
f 800 799 798
f 790 795 800
f 790 800 793
f 801 803 804
f 801 804 802
f 807 805 806
f 807 806 801
f 807 801 802
f 807 802 808
f 807 808 809
f 806 805 810
f 806 810 812
f 806 812 811
f 806 811 813
f 805 807 814
f 805 814 810
f 812 816 815
f 812 815 811
f 817 804 803
f 817 803 813
f 817 813 811
f 817 811 815
f 817 815 818
f 820 809 808
f 820 808 819
f 820 819 821
f 801 806 813
f 801 813 803
f 802 804 817
f 802 817 819
f 802 819 808
f 812 810 814
f 812 814 822
f 812 822 816
f 822 814 807
f 822 807 809
f 822 809 820
f 816 822 820
f 816 820 821
f 816 821 818
f 816 818 815
f 821 819 817
f 821 817 818
