# Cliff formation generated by cliff_generator.py
# Vertices 862 Faces 1496
# No noise used, only authored geological features
v 23.848374 -0.000000 -10.000000
v 6.132268 -0.000000 -10.000000
v 22.972822 -0.000000 -4.746689
v 6.557275 -0.000000 -3.561351
v 5.977966 -0.000000 -9.933748
v 23.882716 0.153827 -10.000000
v 21.360229 2.171817 -10.000000
v 9.797445 2.519809 -10.000000
v 20.389700 2.612246 -10.000000
v 23.010579 0.153827 -4.767178
v 20.687178 1.972789 -4.468983
v 9.974133 2.403957 -3.347842
v 9.709438 2.629162 -9.862773
v 7.018612 0.367822 -3.280428
v 6.536649 0.051203 -3.516118
v 5.956955 0.051203 -9.892749
v 9.671239 2.604774 -9.892749
v 19.400608 2.509726 -4.020927
v 20.124557 2.720053 -9.862773
v 19.414745 2.510154 -4.029658
v 22.136510 0.367822 -4.372065
v 22.977992 0.063161 -4.693104
v 17.282436 -0.000000 -4.047935
v 16.694215 -0.000000 -4.005461
v 17.283247 -0.000000 -3.861066
v 16.764484 -0.000000 -3.871239
v 16.681419 -0.000000 -3.959346
v 17.199468 2.485028 -3.863758
v 17.283218 2.485968 -3.869738
v 17.283251 2.485702 -3.862115
v 16.664384 1.803849 -3.873964
v 16.662000 1.174267 -3.873745
v 20.392749 -0.000000 -4.272526
v 17.394160 -0.000000 -4.056003
v 20.437866 -0.000000 -3.799202
v 17.395015 -0.000000 -3.858874
v 17.283218 2.485968 -3.869738
v 19.760460 2.513763 -4.046622
v 17.283251 2.485702 -3.862115
v 19.647667 2.504717 -3.815756
v 19.873572 2.511826 -3.962869
v 17.282467 0.100284 -4.040747
v 20.402524 2.011100 -4.129028
v 17.283247 0.100284 -3.861108
v 20.434147 1.873441 -3.800066
v 20.415513 2.124545 -3.990449
v 20.523658 -0.000000 -4.281978
v 21.003347 -0.000000 -4.316616
v 20.732045 -0.000000 -3.793433
v 20.610560 -0.000000 -3.795815
v 20.402020 -0.000000 -4.175261
v 20.422826 -0.000000 -3.956981
v 21.065260 -0.000000 -4.234649
v 20.623262 1.941288 -3.849231
v 20.591735 1.961217 -3.809538
v 20.555571 1.994283 -3.840544
v 20.531814 1.678014 -4.162247
v 20.798370 1.469331 -4.196458
v 20.607315 1.634843 -3.796569
v 20.411165 1.881516 -4.041009
v 20.418932 1.962175 -3.957886
v 20.852801 1.522964 -4.110105
v 21.395060 -0.000000 -4.344901
v 21.410807 -0.000000 -4.346038
v 21.254349 -0.000000 -4.158583
v 21.671541 -0.000000 -4.150401
v 21.112313 0.157640 -4.313181
v 20.940407 1.389912 -4.212409
v 21.687197 0.157613 -4.354694
v 21.712092 0.785769 -4.311450
v 20.711782 0.265589 -3.793942
v 20.605752 1.655327 -3.796608
v 22.337167 0.265589 -3.762068
v 20.833568 0.157640 -3.944088
v 20.786209 1.705351 -4.040704
v 20.730875 1.740329 -3.971037
v 22.271975 0.157613 -3.915919
v 22.380578 0.215374 -3.832171
v 21.734489 0.793866 -4.294328
v 22.374512 0.253513 -3.778400
v 20.809077 1.724770 -4.014521
v 21.488925 1.243262 -4.062193
v 23.019390 -0.000000 -4.462191
v 21.769562 -0.000000 -4.371943
v 22.489361 -0.000000 -3.758971
v 22.700849 -0.000000 -3.754824
v 21.746944 -0.000000 -4.316028
v 22.912643 -0.000000 -3.821706
v 22.869565 0.131224 -3.751570
v 22.935506 0.080536 -3.767058
v 23.053890 0.078099 -4.459082
v 21.880443 0.996776 -4.308477
v 22.652949 0.305093 -3.755892
v 22.939051 0.078099 -3.770050
v 22.885409 0.080536 -3.751238
v 21.808903 0.992700 -4.303603
v 22.472371 0.314068 -3.759437
v 21.783824 0.930576 -4.251965
v 14.165168 -0.000000 -3.822843
v 11.287627 -0.000000 -3.615060
v 14.146884 -0.000000 -3.399660
v 13.875474 -0.000000 -3.086592
v 12.279241 2.429821 -3.512435
v 13.976144 2.448861 -3.633600
v 13.632983 2.431982 -3.236021
v 10.896516 0.136156 -3.577056
v 11.579638 2.276435 -3.472916
v 14.149303 2.337848 -3.654064
v 13.695477 0.136156 -3.005476
v 13.558161 2.279593 -3.068932
v 14.148859 2.330956 -3.643194
v 13.864709 0.015080 -3.075735
v 13.717704 2.309749 -3.143668
v 13.655879 2.336520 -3.116972
v 14.146884 -0.000000 -3.399660
v 14.134385 -0.000000 -3.110364
v 13.931926 -0.000000 -3.151709
v 13.631600 2.425695 -3.056348
v 13.949531 2.426203 -2.991432
v 13.969174 2.442299 -3.447455
v 14.125385 0.195478 -2.918664
v 14.119272 2.283843 -2.954416
v 13.774475 0.195478 -2.990324
v 14.148839 2.308071 -3.640803
v 15.247412 -0.000000 -3.900990
v 14.537035 -0.000000 -3.849694
v 16.601581 -0.000000 -3.874434
v 14.415885 -0.000000 -2.856111
v 16.974953 -0.000000 -2.333520
v 14.454710 -0.000000 -3.754734
v 16.969962 -0.000000 -3.483687
v 14.148536 2.450795 -3.645910
v 16.301507 2.474952 -3.799640
v 14.118855 2.426473 -2.956858
v 17.289988 2.431535 -2.309360
v 17.286579 2.458944 -3.095060
v 16.754943 2.473950 -3.657616
v 16.319858 1.365257 -3.880535
v 14.148913 2.395296 -3.649917
v 16.669041 0.058523 -3.873135
v 14.125199 0.259246 -2.919756
v 17.290133 0.307427 -2.274236
v 14.147103 0.259246 -3.426746
v 17.285723 0.307427 -3.290550
v 17.104475 0.131375 -3.498724
v 16.793683 0.131375 -3.828386
v 17.283247 -0.000000 -3.861066
v 17.167198 -0.000000 -3.863342
v 17.283773 -0.000000 -3.739689
v 17.286579 2.458944 -3.095060
v 17.283786 2.481406 -3.738960
v 16.716359 2.475039 -3.698444
v 16.612786 1.738163 -3.874948
v 17.117861 2.381139 -3.865314
v 16.602249 2.375354 -3.828498
v 17.283251 2.393710 -3.862076
v 16.743406 0.241512 -3.871754
v 17.285697 0.241512 -3.296540
v 17.549686 -0.000000 -2.806184
v 17.552105 -0.000000 -2.248562
v 18.083161 -0.000000 -2.240320
v 18.237859 0.170149 -2.293024
v 17.952857 2.174751 -2.414034
v 18.120204 0.031595 -2.241285
v 17.755131 2.170831 -2.351182
v 17.286579 2.458944 -3.095060
v 17.288746 2.441521 -2.595617
v 17.650038 2.448685 -2.710463
v 17.285700 0.247653 -3.295982
v 17.289849 0.247653 -2.339741
v 17.289710 2.282906 -2.373395
v 17.367998 0.170149 -3.215696
v 17.378435 0.164204 -2.259258
v 17.300923 2.273337 -2.363225
v 19.825702 -0.000000 -2.776537
v 18.574058 -0.000000 -2.381282
v 17.283247 -0.000000 -3.861066
v 20.437866 -0.000000 -3.799202
v 17.283729 -0.000000 -3.749950
v 20.455816 -0.000000 -3.610883
v 18.921898 2.461172 -2.750196
v 18.044338 2.443771 -2.471241
v 20.007721 0.139868 -2.848740
v 20.011404 1.739779 -3.018315
v 18.362503 0.205911 -2.336150
v 19.688173 2.318913 -2.977203
v 17.283251 2.485702 -3.862115
v 19.052981 2.499934 -3.827416
v 17.286579 2.458944 -3.095060
v 17.760613 2.445563 -2.593458
v 20.434437 1.727535 -3.799998
v 20.152858 2.274626 -3.805751
v 17.285741 0.352459 -3.286459
v 20.469863 0.139868 -3.460670
v 20.456099 1.458675 -3.578207
v 18.058198 0.352459 -2.467105
v 20.376776 0.003315 -2.950910
v 20.125564 0.213469 -2.893701
v 20.302908 2.075302 -3.145687
v 20.353550 2.001340 -3.153894
v 20.129865 2.081771 -3.091723
v 20.468069 0.311722 -3.475987
v 20.452455 1.807873 -3.609329
v 20.500855 0.020673 -3.137954
v 20.461234 1.867861 -3.516008
v 20.479857 1.827023 -3.321465
v 20.085952 0.311722 -2.970018
v 20.089923 2.037040 -3.152884
v 22.118462 -0.000000 -3.500567
v 20.781628 -0.000000 -3.078409
v 20.704895 -0.000000 -3.528288
v 20.745407 -0.000000 -3.103272
v 22.389792 0.500018 -3.638884
v 20.761263 1.751840 -3.256382
v 20.461844 2.024714 -3.506414
v 20.463828 2.020363 -3.485688
v 20.595488 1.940233 -3.674679
v 22.456898 0.188418 -3.627275
v 22.418866 0.469274 -3.644828
v 20.703387 0.375629 -3.794153
v 20.594541 1.802272 -3.796890
v 22.371935 0.375629 -3.761432
v 20.468490 0.271405 -3.472393
v 20.450979 1.949259 -3.621930
v 20.484159 0.271405 -3.308008
v 20.588773 0.120970 -3.616176
v 20.555829 1.882981 -3.753940
v 22.466171 0.333667 -3.729888
v 10.220108 -0.000000 -2.278919
v 7.290208 -0.000000 -3.049945
v 10.100489 -0.000000 -3.252871
v 9.993195 2.387738 -2.878664
v 9.974788 2.403399 -3.331723
v 7.369012 0.609222 -3.288420
v 9.958389 2.393110 -3.347483
v 10.153899 2.317841 -2.662317
v 7.021757 0.088328 -3.134537
v 7.021976 0.195209 -3.151355
v 10.143495 2.384297 -2.742563
v 10.083175 2.400883 -3.232582
v 6.942111 0.221377 -3.285404
v 9.957189 0.221377 -3.503118
v 6.946945 0.256692 -3.283221
v 10.081917 0.122604 -3.395853
v 10.372912 -0.000000 -2.455623
v 11.332200 -0.000000 -2.203178
v 10.271619 -0.000000 -3.280365
v 10.152068 2.381940 -2.672920
v 11.456722 2.381332 -2.329494
v 10.212396 0.269958 -2.323573
v 12.170754 0.270343 -1.808277
v 12.169971 0.269958 -1.808422
v 10.068160 2.405012 -3.354556
v 10.420092 2.408960 -3.379685
v 10.066925 0.167687 -3.514892
v 10.469103 0.270343 -3.536571
v 10.158726 0.078644 -3.527905
v 10.204888 0.167687 -2.391577
v 13.006178 -0.000000 -2.083870
v 13.583236 -0.000000 -2.749500
v 10.687545 -0.000000 -3.340833
v 11.456915 -0.000000 -2.559417
v 12.099876 -0.000000 -2.083870
v 12.717729 2.380745 -1.997557
v 11.923333 2.381115 -2.206667
v 12.642088 0.410731 -1.706408
v 12.593985 0.398376 -1.717116
v 13.631600 2.425695 -3.056348
v 12.885403 2.424504 -3.208711
v 10.644116 2.402990 -3.152731
v 10.497133 2.406907 -3.301637
v 11.766948 2.421155 -3.392306
v 10.470588 0.205539 -3.541325
v 10.421542 2.345690 -3.384326
v 10.733301 0.292865 -3.554034
v 11.391985 2.356578 -3.453620
v 13.763157 0.372155 -2.995554
v 12.230346 0.372155 -3.308572
v 12.731671 0.194873 -1.787399
v 12.437087 0.164291 -1.833925
v 14.076042 -0.000000 -1.760000
v 12.814607 -0.000000 -1.760000
v 14.117805 -0.000000 -2.726627
v 13.646794 -0.000000 -2.822813
v 12.820171 -0.000000 -1.869313
v 14.056355 0.478858 -1.344989
v 12.704000 0.131507 -1.646027
v 14.062286 2.380119 -1.643628
v 12.717729 2.380745 -1.997557
v 12.634781 0.220420 -1.678282
v 14.118855 2.426473 -2.956858
v 13.631600 2.425695 -3.056348
v 14.125345 0.209403 -2.918902
v 13.773583 0.209403 -2.990736
v 17.290154 -0.000000 -2.269152
v 14.361776 -0.000000 -2.867161
v 17.290405 -0.000000 -2.211353
v 17.106247 -0.000000 -2.143014
v 14.330489 -0.000000 -2.143014
v 17.283099 -0.000000 -2.198862
v 16.445937 0.277609 -1.738465
v 15.382736 0.492484 -1.425336
v 17.121392 0.277609 -1.951767
v 15.530675 2.119806 -1.643350
v 17.120544 2.151329 -2.148733
v 14.056840 0.634186 -1.369387
v 14.061795 2.222576 -1.618882
v 14.141050 0.554697 -1.334676
v 14.361192 0.590564 -1.282407
v 14.509538 2.222368 -1.501022
v 14.118855 2.426473 -2.956858
v 16.895433 2.430905 -2.389922
v 14.072392 2.388400 -1.878245
v 14.736126 2.388091 -1.703529
v 14.125152 0.275105 -2.920027
v 17.290110 0.652474 -2.279941
v 17.213929 2.283996 -2.322454
v 14.074260 0.275105 -1.742114
v 14.067319 0.379277 -1.590308
v 14.620871 2.253920 -1.521676
v 17.819233 0.205009 -2.164495
v 17.457585 2.324177 -2.273361
v 17.458543 0.205009 -2.050594
v 17.716313 0.152365 -2.184643
v 17.401657 0.152365 -2.248899
v 17.401544 1.824423 -2.276548
v 17.371783 0.050512 -2.177705
v 17.344906 0.070661 -2.149067
v 17.335848 0.077238 -2.205326
v 17.308426 0.097758 -2.188029
v 9.898980 2.768048 -10.000000
v 9.921300 2.783394 -10.000000
v 19.747467 2.721555 -10.000000
v 9.927738 2.635859 -10.000000
v 19.548406 2.765150 -10.000000
v 10.653374 2.889356 -10.000000
v 10.031752 2.655085 -6.732084
v 10.338839 2.864049 -6.697558
v 20.072965 2.591630 -6.198252
v 10.060110 2.523236 -6.741938
v 18.785942 2.874187 -6.242994
v 11.077095 2.971206 -6.648660
v 10.846978 3.044083 -3.988570
v 10.506860 2.978383 -6.678667
v 10.319422 2.682025 -3.998763
v 9.983548 2.622283 -6.737503
v 14.044606 2.550453 -6.525585
v 9.934245 2.522376 -6.748773
v 14.262643 2.544298 -6.294866
v 14.163994 2.463461 -4.004748
v 10.189549 2.431498 -4.082675
v 14.158522 2.999544 -3.923610
v 14.043027 2.933879 -6.492582
v 14.259800 2.936881 -6.262377
v 14.160266 2.521147 -3.923374
v 10.226660 2.489512 -4.000500
v 14.160487 2.460588 -3.923344
v 14.376275 2.462323 -3.919113
v 14.258702 2.541069 -6.203389
v 15.350619 2.510248 -5.047967
v 14.158522 2.999544 -3.923610
v 14.329271 2.997247 -3.920260
v 14.259800 2.936881 -6.262377
v 15.355256 2.952050 -5.099042
v 14.262109 2.618090 -6.288760
v 15.387289 2.586331 -5.098140
v 14.262643 2.544298 -6.294866
v 14.269154 2.549634 -6.446025
v 15.393767 2.512371 -5.097957
v 16.454882 2.564564 -6.327343
v 14.269253 2.931032 -6.480677
v 16.457569 2.903491 -6.365521
v 14.259800 2.936881 -6.262377
v 15.355256 2.952050 -5.099042
v 14.271529 2.622494 -6.507180
v 16.499354 2.637712 -6.386212
v 16.548061 2.479789 -3.876530
v 14.427920 2.462739 -3.918100
v 15.393767 2.512371 -5.097957
v 14.415189 2.464238 -3.964198
v 16.383669 2.969616 -3.879961
v 14.381014 2.996551 -3.919245
v 15.297839 2.954579 -5.033074
v 14.368506 2.995519 -3.965338
v 16.511073 2.903603 -3.877434
v 15.360894 2.887675 -5.098883
v 17.199468 2.485028 -3.863758
v 17.283218 2.485968 -3.869738
v 16.641403 2.480540 -3.874700
v 17.272455 2.572501 -6.350316
v 16.510425 2.567296 -6.391693
v 15.393767 2.512371 -5.097957
v 16.403925 2.483858 -4.029049
v 17.283252 2.957516 -3.862314
v 16.598972 2.966720 -3.875737
v 17.272576 2.893234 -6.322632
v 16.457569 2.903491 -6.365521
v 15.355256 2.952050 -5.099042
v 16.361848 2.965989 -4.030077
v 17.283251 2.591686 -3.862160
v 19.699381 2.884109 -5.377104
v 19.447137 2.920181 -4.134183
v 19.751568 2.663445 -4.035247
v 19.625479 2.762159 -4.019065
v 19.897600 2.706629 -5.235315
v 17.283218 2.485968 -3.869738
v 19.706369 2.513157 -4.042760
v 17.272455 2.572501 -6.350316
v 19.028100 2.584493 -6.254987
v 19.680011 2.573116 -5.766284
v 19.875994 2.563316 -5.436706
v 17.272576 2.893234 -6.322632
v 19.047500 2.870895 -6.229230
v 17.282761 2.954561 -3.975432
v 19.345540 2.872592 -6.005535
v 17.283251 2.591686 -3.862160
v 17.444377 2.796804 -3.859087
v 17.283252 2.817505 -3.862255
v 20.173051 2.584641 -5.973114
v 20.135228 2.573457 -5.662293
v 19.819250 2.866967 -5.967753
v 19.805173 2.868980 -5.898387
v 19.028100 2.584493 -6.254987
v 19.844896 2.590072 -6.210636
v 19.848726 2.570171 -5.639807
v 19.047500 2.870895 -6.229230
v 19.500116 2.865199 -6.205412
v 19.509922 2.873528 -5.882158
v 10.861603 3.046908 -3.872896
v 10.855358 3.045702 -3.922290
v 10.197410 2.598289 -4.001120
v 10.735242 2.967400 -3.990729
v 14.160487 2.460588 -3.923344
v 10.021267 2.427300 -4.004502
v 10.557209 2.420788 -3.684093
v 10.965990 2.421440 -3.600626
v 14.156399 2.457238 -3.828433
v 11.824916 3.044911 -3.435525
v 14.049378 3.009577 -3.598683
v 11.485569 3.047834 -3.504871
v 14.149430 3.005169 -3.713635
v 14.155662 3.001313 -3.857551
v 11.671202 2.563314 -3.458958
v 14.117241 2.590759 -3.633614
v 14.158807 2.921353 -3.923571
v 14.149060 2.568690 -3.668032
v 16.600546 2.478308 -3.820993
v 14.285602 2.452333 -3.655697
v 16.548061 2.479789 -3.876530
v 14.510688 2.463404 -3.916477
v 14.144755 3.008062 -3.605679
v 16.592428 2.969182 -3.785209
v 16.505455 2.967978 -3.877572
v 14.410536 2.996154 -3.918666
v 14.145102 3.007847 -3.613702
v 14.147773 2.563335 -3.637785
v 14.364211 2.599620 -3.919407
v 14.335980 2.920901 -3.920096
v 14.149077 2.589038 -3.670158
v 14.149365 2.929122 -3.705690
v 10.892819 3.052938 -3.626002
v 10.901566 3.054628 -3.556822
v 10.013528 2.459035 -3.795751
v 10.014648 2.459234 -3.786619
v 10.242275 2.600426 -3.541784
v 10.420092 2.408960 -3.379685
v 11.508914 2.421178 -3.457431
v 10.013940 2.419920 -3.795020
v 11.512493 2.422313 -3.489038
v 10.014485 2.419771 -3.790598
v 11.179447 3.055164 -3.388181
v 11.708584 3.046759 -3.426992
v 11.711522 3.045888 -3.458697
v 10.417316 2.530112 -3.370797
v 19.940184 2.515780 -4.059455
v 19.934303 2.514041 -4.011128
v 19.613505 2.771533 -4.017528
v 17.328162 2.486472 -3.872947
v 19.657918 2.504799 -3.815555
v 17.337408 2.486137 -3.861053
v 17.567616 2.953692 -3.856736
v 19.375126 2.924981 -3.989312
v 19.124754 2.932749 -3.826191
v 17.337408 2.660630 -3.861127
v 11.626256 2.422494 -3.465810
v 14.139936 2.450699 -3.645296
v 13.631600 2.425695 -3.056348
v 11.824916 3.044911 -3.435525
v 13.853605 3.012687 -3.584323
v 13.437306 3.031026 -3.106027
v 14.080486 2.817595 -3.614695
v 13.605152 2.838535 -3.068570
v 14.118855 2.426473 -2.956858
v 13.631600 2.425695 -3.056348
v 14.144857 2.447780 -3.560498
v 14.020608 2.444829 -3.507044
v 14.117102 3.025171 -2.967108
v 13.592906 3.029686 -3.074229
v 14.141812 3.009883 -3.537717
v 13.928234 3.014914 -3.459497
v 14.103196 3.010496 -3.534885
v 14.142463 2.999766 -3.551937
v 16.600546 2.478308 -3.820993
v 14.282073 2.452294 -3.655445
v 14.118855 2.426473 -2.956858
v 17.289988 2.431535 -2.309360
v 14.143841 2.446948 -3.536908
v 17.286579 2.458944 -3.095060
v 16.592428 2.969182 -3.785209
v 14.278316 3.005940 -3.615475
v 14.117102 3.025171 -2.967108
v 17.289950 2.997847 -2.318724
v 14.140013 3.010996 -3.496187
v 17.286786 2.978797 -3.047825
v 17.199468 2.485028 -3.863758
v 16.600546 2.478308 -3.820993
v 17.283251 2.485702 -3.862115
v 17.286228 2.461768 -3.176033
v 17.223419 2.460726 -3.161894
v 17.283367 2.958207 -3.835887
v 16.592428 2.969182 -3.785209
v 17.286433 2.976670 -3.129248
v 17.223624 2.977923 -3.114901
v 17.283251 2.591686 -3.862160
v 17.419883 2.545098 -2.284710
v 17.385479 2.746695 -2.295067
v 17.784328 2.552325 -2.400559
v 17.757867 2.738438 -2.411794
v 17.286579 2.458944 -3.095060
v 17.289754 2.433418 -2.363324
v 17.819084 2.443913 -2.531586
v 17.286786 2.978797 -3.047825
v 17.288845 2.991192 -2.573427
v 17.632167 2.983580 -2.681043
v 17.289985 2.481805 -2.310191
v 17.289964 2.788175 -2.315257
v 17.843235 2.477424 -2.502937
v 17.795089 2.816070 -2.523380
v 19.815428 2.478888 -3.034229
v 19.587912 2.653776 -2.980791
v 19.909903 2.506826 -3.810614
v 19.383602 2.929267 -3.821113
v 19.248959 2.948522 -3.157668
v 17.914974 2.441206 -2.430119
v 17.879366 2.691659 -2.445238
v 17.653527 2.488680 -3.854855
v 17.286579 2.458944 -3.095060
v 17.283535 2.483420 -3.796709
v 18.014089 2.947687 -3.847978
v 17.286786 2.978797 -3.047825
v 17.283827 2.960976 -3.729899
v 17.654101 2.983884 -2.657751
v 10.425970 2.670757 -2.646443
v 10.798423 2.923184 -2.588286
v 10.377591 2.662152 -3.040932
v 11.456722 2.381332 -2.329494
v 10.341370 2.381852 -2.623090
v 11.259299 2.965001 -2.473606
v 10.316197 2.399612 -2.632519
v 11.175381 2.965592 -2.495783
v 10.420092 2.408960 -3.379685
v 10.249732 2.407049 -3.367521
v 10.419026 2.455493 -3.376271
v 10.261530 2.468959 -3.363933
v 10.239061 2.414874 -3.366189
v 11.249030 2.970324 -2.483521
v 10.925245 3.059202 -3.369536
v 10.983417 3.070439 -2.909435
v 10.413274 2.706492 -3.357858
v 10.888135 3.001037 -2.847099
v 11.419309 2.491941 -2.356804
v 11.331914 2.750321 -2.420600
v 12.535335 2.491422 -2.063031
v 12.544947 2.741778 -2.100031
v 11.626256 2.422494 -3.465810
v 10.420092 2.408960 -3.379685
v 13.631600 2.425695 -3.056348
v 12.819300 2.385741 -2.115235
v 11.288178 2.385824 -2.500244
v 12.783314 2.385128 -2.106677
v 11.824916 3.044911 -3.435525
v 13.510772 3.030393 -3.091014
v 12.909666 3.056873 -2.400386
v 13.597575 2.956811 -3.072072
v 12.837946 2.871350 -2.187004
v 12.931283 2.986163 -2.306551
v 12.717729 2.380745 -1.997557
v 13.955028 2.380169 -1.671861
v 12.736933 2.880906 -2.071476
v 13.956563 2.872316 -1.749165
v 14.118855 2.426473 -2.956858
v 13.631600 2.425695 -3.056348
v 14.067590 2.384465 -1.766759
v 14.117102 3.025171 -2.967108
v 13.592906 3.029686 -3.074229
v 14.072124 3.053000 -1.928442
v 12.871745 3.061454 -2.245667
v 14.069497 2.995594 -1.862752
v 15.790446 2.399082 -1.754781
v 17.131476 2.425671 -2.181063
v 15.847851 3.030537 -1.839378
v 17.124267 3.002236 -2.239478
v 17.131217 2.998680 -2.241298
v 14.062286 2.380119 -1.643628
v 14.549191 2.379892 -1.515459
v 14.064400 3.057779 -1.750070
v 14.610468 3.053934 -1.605761
v 14.118855 2.426473 -2.956858
v 17.205481 2.431400 -2.326615
v 14.112247 3.028175 -2.854995
v 14.117445 2.908197 -2.965105
v 17.186848 2.881764 -2.337861
v 18.562172 4.410263 -10.000000
v 20.441871 2.906503 -10.000000
v 10.291691 3.038038 -10.000000
v 12.239501 4.377157 -10.000000
v 20.439915 2.896333 -10.000000
v 18.146230 4.703610 -9.704459
v 17.587640 4.409389 -4.146257
v 19.298447 3.070019 -4.365829
v 10.925245 3.059202 -3.369536
v 10.112335 2.902173 -9.799080
v 12.792800 4.345808 -3.412134
v 12.699729 4.675092 -9.704459
v 18.955154 2.931652 -3.958508
v 20.371588 2.758918 -9.799080
v 19.230794 2.922058 -4.177869
v 17.099385 4.384510 -3.720330
v 11.824916 3.044911 -3.435525
v 14.049378 3.009577 -3.598683
v 13.592906 3.029686 -3.074229
v 13.207254 4.349533 -3.441794
v 13.732361 4.354252 -3.479373
v 13.154295 4.335817 -3.185379
v 13.430377 4.334307 -3.128974
v 13.009196 4.340257 -3.284582
v 11.969053 3.496504 -3.413552
v 13.844040 4.276826 -3.492989
v 13.514405 4.255055 -3.110506
v 12.172359 3.672584 -3.374943
v 13.645049 3.027389 -3.134138
v 13.971999 3.012986 -3.509780
v 13.953008 3.024736 -3.071205
v 14.135595 4.357876 -3.508230
v 13.831350 4.355141 -3.486457
v 14.118409 4.336845 -3.108663
v 13.597478 4.339695 -3.215090
v 14.143787 3.150721 -3.595379
v 14.040445 3.064708 -3.594085
v 14.116686 3.167489 -2.969544
v 14.113622 4.214109 -2.987462
v 13.588211 3.102971 -3.076399
v 13.516818 4.217374 -3.109390
v 14.035778 3.099117 -2.984937
v 14.144755 3.008062 -3.605679
v 16.592428 2.969182 -3.785209
v 14.117102 3.025171 -2.967108
v 16.915991 3.001068 -2.395144
v 17.286786 2.978797 -3.047825
v 17.289492 2.995092 -2.424182
v 14.135595 4.357876 -3.508230
v 16.569101 4.379744 -3.682381
v 14.113281 4.330571 -2.989456
v 16.691511 4.316465 -2.462719
v 17.287329 4.343749 -2.923804
v 17.289124 4.322080 -2.510164
v 17.283367 2.958207 -3.835887
v 16.592428 2.969182 -3.785209
v 17.286563 2.977455 -3.099182
v 17.247714 2.978256 -3.089318
v 17.283816 4.386167 -3.733529
v 16.569101 4.379744 -3.682381
v 17.287108 4.346421 -2.974796
v 17.248258 4.345707 -2.965070
v 17.342696 2.997393 -2.307945
v 17.717848 2.989075 -2.425539
v 17.289929 3.306597 -2.323830
v 17.289490 4.276595 -2.425796
v 17.740978 3.665030 -2.503996
v 17.822684 3.090336 -2.469304
v 17.477294 4.195889 -2.476608
v 17.289950 2.997847 -2.318724
v 17.287503 2.983116 -2.882550
v 17.288187 4.306859 -2.726071
v 17.287762 4.209571 -2.823938
v 17.287287 3.015090 -2.932470
v 17.373721 4.006657 -2.862654
v 17.373353 3.084114 -2.946478
v 19.010407 3.097694 -2.845149
v 18.318210 3.629774 -2.682569
v 19.155571 3.076935 -3.560436
v 18.407933 3.677033 -3.575351
v 17.837458 2.986423 -2.463031
v 18.925562 2.962297 -2.804103
v 17.713675 3.857069 -2.515589
v 17.762722 3.902816 -2.535893
v 17.286786 2.978797 -3.047825
v 17.283948 2.961706 -3.701951
v 19.103837 2.936803 -3.682544
v 18.860637 2.936662 -3.817596
v 18.049466 3.567101 -3.847546
v 17.697052 3.118468 -3.854267
v 17.283757 4.199821 -3.746887
v 17.283419 3.125038 -3.823928
v 17.926963 3.696264 -3.829438
v 18.801591 2.963401 -3.832541
v 17.287269 4.191943 -2.937597
v 17.284031 4.272085 -3.683965
v 17.489570 4.065534 -2.734447
v 18.359518 3.703168 -3.584799
v 11.566412 3.443681 -2.468368
v 12.630450 4.164823 -2.302222
v 12.796781 4.331724 -3.142997
v 12.808034 4.291910 -2.382174
v 11.076098 3.163128 -3.372977
v 11.549556 3.489306 -3.383777
v 11.131299 3.173791 -2.936374
v 11.443165 3.290649 -2.476638
v 12.596573 3.282526 -2.171827
v 11.824916 3.044911 -3.435525
v 11.121217 3.056089 -3.383910
v 13.509216 3.030406 -3.091332
v 11.196754 3.070680 -2.786464
v 12.861054 3.058959 -2.346640
v 13.006022 4.336628 -3.215671
v 13.456728 4.334163 -3.123591
v 12.911524 4.294390 -2.419162
v 13.468229 4.331158 -3.065119
v 12.025903 3.674623 -3.404885
v 13.538755 3.053762 -3.085685
v 12.867412 3.145519 -2.249370
v 12.885345 3.124343 -2.267863
v 13.547410 3.095178 -3.028529
v 11.182837 3.117820 -2.738220
v 14.064400 3.057779 -1.750070
v 12.970210 3.065486 -2.039232
v 13.017015 4.284472 -2.219386
v 14.004144 4.275956 -1.958271
v 14.067953 4.196668 -1.928960
v 14.117102 3.025171 -2.967108
v 13.592906 3.029686 -3.074229
v 12.871740 3.061454 -2.245662
v 13.509355 4.333875 -3.112839
v 14.049062 4.330922 -3.002576
v 12.919100 4.294890 -2.427952
v 14.113510 4.252416 -2.988118
v 14.891790 3.209685 -1.556321
v 14.966195 4.028140 -1.665971
v 16.942054 4.310277 -2.319625
v 15.601598 4.280912 -1.893232
v 17.145370 3.118901 -2.258422
v 14.962483 3.167301 -1.574184
v 14.064892 3.215508 -1.774845
v 14.067451 4.035894 -1.903707
v 14.117102 3.025171 -2.967108
v 17.084370 2.999618 -2.360735
v 14.071521 3.053374 -1.914513
v 14.933819 3.047301 -1.686633
v 14.113281 4.330571 -2.989456
v 16.929694 4.315162 -2.414058
v 14.083403 4.294010 -2.294825
v 17.148870 3.030845 -2.348080
v 18.175931 4.719255 -10.000000
v 16.294119 6.224705 -10.000000
v 12.695358 4.690558 -10.000000
v 15.354551 6.518754 -10.000000
v 15.731524 6.525334 -10.000000
v 17.575985 4.403250 -4.030282
v 15.789931 6.301456 -7.550505
v 15.610288 5.942169 -3.777996
v 12.791852 4.349162 -3.476214
v 15.403492 6.531364 -9.663413
v 15.007462 5.871546 -3.462650
v 12.911118 4.427321 -3.414833
v 15.112182 5.948744 -3.545909
v 17.064162 4.387555 -3.781957
v 15.696917 6.530602 -9.831869
v 16.807479 4.462336 -3.693672
v 13.947946 5.126688 -3.199598
v 13.898182 5.093076 -3.209205
v 13.951157 5.133577 -3.274503
v 14.135595 4.357876 -3.508230
v 13.831350 4.355141 -3.486457
v 14.113281 4.330571 -2.989456
v 13.509355 4.333875 -3.112839
v 14.130944 5.043304 -3.458746
v 13.779993 4.672088 -3.460022
v 13.892216 4.878838 -3.453301
v 14.111430 4.963016 -3.000283
v 13.501336 4.459044 -3.116545
v 13.574235 4.600176 -3.103990
v 14.129742 5.072643 -3.433420
v 14.113069 5.036873 -3.044492
v 13.951509 5.133514 -3.275334
v 15.323563 6.053009 -2.888946
v 15.345721 6.097324 -3.354258
v 16.556113 5.165127 -3.625128
v 15.473393 6.012774 -3.486167
v 17.150420 4.612296 -3.044738
v 17.152825 4.536451 -2.490333
v 14.110659 5.226378 -3.004792
v 15.198155 5.960910 -2.794849
v 14.124446 5.255957 -3.326402
v 14.135595 4.357876 -3.508230
v 16.569101 4.379744 -3.682381
v 14.116113 4.334035 -3.055282
v 17.246086 4.345816 -2.967364
v 17.232771 4.319950 -2.475142
v 17.031497 4.318085 -2.459663
v 14.130642 5.087719 -3.455540
v 14.113070 4.402572 -2.990689
v 16.731576 4.689621 -2.460702
v 16.783055 4.387964 -2.445206
v 17.158178 4.521090 -2.482402
v 17.110419 4.731168 -3.696270
v 16.815418 4.962120 -3.658409
v 17.111839 4.686386 -3.368929
v 16.569101 4.379744 -3.682381
v 17.230049 4.385684 -3.729681
v 17.210527 4.347598 -3.004921
v 17.212298 4.347611 -3.004991
v 16.559620 4.953079 -3.640586
v 13.188438 4.542995 -2.215094
v 13.784699 4.947105 -2.121991
v 14.025727 5.169012 -3.021188
v 13.858618 5.056141 -3.053449
v 13.994232 5.101439 -2.286482
v 13.182908 4.539534 -2.220556
v 13.783422 4.537862 -2.057709
v 14.113281 4.330571 -2.989456
v 13.509355 4.333875 -3.112839
v 14.081739 4.291973 -2.256137
v 13.455457 4.330315 -3.050300
v 13.178667 4.299764 -2.495017
v 14.110954 5.125465 -3.003064
v 13.507056 4.369764 -3.113902
v 14.082530 5.064481 -2.339992
v 14.080211 4.321200 -2.223242
v 15.288084 5.982051 -2.143886
v 15.306311 6.018505 -2.526652
v 16.689070 4.905137 -2.472943
v 15.496527 5.893819 -2.732809
v 14.941450 5.731082 -1.941368
v 14.313211 5.305299 -2.039465
v 14.100144 5.203818 -2.759505
v 14.085645 5.172711 -2.421276
v 15.237544 5.941878 -2.057061
v 15.119450 5.713949 -1.891821
v 15.009661 4.506271 -1.730027
v 17.117987 4.314131 -2.375589
v 15.384051 4.276146 -1.824032
v 17.106397 4.382047 -2.379078
v 15.251444 5.807918 -1.943395
v 14.310738 4.512301 -1.914906
v 14.277687 4.329671 -2.955867
v 14.241998 4.285999 -2.126128
v 14.168011 4.996494 -2.989282
v 14.169679 4.426598 -2.979525
v 14.107936 5.034504 -2.925485
v 14.083364 4.441513 -2.306424
v 14.109578 4.473591 -2.915882
v 14.188298 4.330986 -2.102452
f 3 4 5
f 3 5 2
f 3 2 1
f 8 9 7
f 8 7 6
f 8 6 1
f 8 1 2
f 11 10 6
f 11 6 7
f 15 14 12
f 15 12 13
f 15 13 17
f 15 17 16
f 12 18 20
f 12 20 19
f 12 19 13
f 18 12 14
f 18 14 21
f 10 22 3
f 10 3 1
f 10 1 6
f 4 15 16
f 4 16 5
f 14 15 4
f 14 4 3
f 14 3 22
f 14 22 21
f 5 16 17
f 5 17 8
f 5 8 2
f 17 13 19
f 17 19 9
f 17 9 8
f 20 11 7
f 20 7 9
f 20 9 19
f 20 18 21
f 20 21 22
f 20 22 10
f 20 10 11
f 25 26 27
f 25 27 24
f 25 24 23
f 28 30 29
f 31 28 29
f 31 29 23
f 31 23 24
f 30 28 31
f 30 31 32
f 30 32 26
f 30 26 25
f 29 30 25
f 29 25 23
f 26 32 27
f 32 31 24
f 32 24 27
f 35 36 34
f 35 34 33
f 37 39 40
f 37 40 41
f 37 41 38
f 37 38 43
f 37 43 33
f 37 33 34
f 37 34 42
f 45 40 39
f 45 39 44
f 45 44 36
f 45 36 35
f 44 39 37
f 44 37 42
f 46 45 35
f 46 35 33
f 46 33 43
f 36 44 42
f 36 42 34
f 41 46 43
f 41 43 38
f 40 45 46
f 40 46 41
f 49 50 52
f 49 52 51
f 49 51 47
f 49 47 48
f 49 48 53
f 55 54 56
f 57 58 48
f 57 48 47
f 59 50 49
f 52 61 60
f 52 60 51
f 54 55 59
f 54 59 49
f 54 49 53
f 54 53 62
f 61 56 54
f 61 54 62
f 61 62 58
f 61 58 57
f 61 57 60
f 60 57 47
f 60 47 51
f 58 62 53
f 58 53 48
f 50 59 55
f 50 55 56
f 50 56 61
f 50 61 52
f 66 65 63
f 66 63 64
f 68 70 69
f 68 69 64
f 68 64 63
f 68 63 67
f 72 71 73
f 74 71 72
f 74 72 76
f 74 76 75
f 74 75 68
f 74 68 67
f 78 77 69
f 78 69 70
f 78 70 79
f 77 78 80
f 77 80 73
f 77 73 71
f 77 71 74
f 77 74 65
f 77 65 66
f 65 74 67
f 65 67 63
f 77 66 64
f 77 64 69
f 75 81 82
f 75 82 79
f 75 79 70
f 75 70 68
f 72 73 80
f 72 80 82
f 72 82 81
f 72 81 76
f 76 81 75
f 80 78 79
f 80 79 82
f 88 86 85
f 88 85 87
f 88 87 84
f 88 84 83
f 93 89 90
f 93 90 94
f 93 94 91
f 93 91 92
f 89 95 90
f 96 92 91
f 96 91 83
f 96 83 84
f 93 97 85
f 93 85 86
f 93 86 95
f 93 95 89
f 85 97 98
f 85 98 87
f 94 88 83
f 94 83 91
f 94 90 95
f 94 95 86
f 94 86 88
f 97 93 92
f 97 92 96
f 97 96 98
f 98 96 84
f 98 84 87
f 101 102 100
f 101 100 99
f 105 104 103
f 107 103 104
f 107 104 108
f 107 108 99
f 107 99 100
f 107 100 106
f 110 107 106
f 110 106 109
f 101 99 108
f 101 108 111
f 113 112 102
f 113 102 101
f 113 101 111
f 102 112 109
f 102 109 106
f 102 106 100
f 110 114 105
f 110 105 103
f 110 103 107
f 105 114 113
f 105 113 111
f 105 111 108
f 105 108 104
f 113 114 110
f 113 110 109
f 113 109 112
f 116 117 115
f 118 119 120
f 122 119 118
f 122 118 123
f 122 123 121
f 122 121 116
f 122 116 115
f 122 115 124
f 117 123 118
f 117 118 120
f 117 120 124
f 117 124 115
f 121 123 117
f 121 117 116
f 119 122 124
f 119 124 120
f 129 128 130
f 129 130 126
f 129 126 125
f 129 125 127
f 129 127 131
f 134 135 136
f 134 136 137
f 134 137 133
f 134 133 132
f 139 132 133
f 139 133 138
f 139 138 125
f 139 125 126
f 138 140 127
f 138 127 125
f 135 134 141
f 135 141 128
f 135 128 129
f 135 129 142
f 141 134 132
f 141 132 139
f 141 139 143
f 135 142 144
f 135 144 136
f 143 139 126
f 143 126 130
f 136 144 145
f 136 145 146
f 136 146 137
f 128 141 143
f 128 143 130
f 142 129 131
f 142 131 145
f 142 145 144
f 145 131 127
f 145 127 140
f 145 140 146
f 138 133 137
f 138 137 146
f 138 146 140
f 149 148 147
f 150 151 152
f 155 154 153
f 153 154 156
f 153 156 147
f 153 147 148
f 153 148 157
f 150 158 149
f 150 149 147
f 150 147 156
f 150 156 151
f 158 150 152
f 158 152 155
f 158 155 153
f 158 153 157
f 158 157 148
f 158 148 149
f 152 151 156
f 152 156 154
f 152 154 155
f 161 160 159
f 163 165 164
f 163 164 162
f 167 168 166
f 170 171 167
f 170 167 166
f 170 166 169
f 168 163 162
f 168 162 172
f 168 172 169
f 168 169 166
f 160 173 170
f 160 170 169
f 160 169 172
f 160 172 159
f 162 164 161
f 162 161 159
f 162 159 172
f 171 174 165
f 171 165 163
f 171 163 168
f 171 168 167
f 165 174 173
f 165 173 160
f 165 160 161
f 165 161 164
f 173 174 171
f 173 171 170
f 175 176 179
f 175 179 177
f 175 177 178
f 175 178 180
f 184 186 181
f 184 181 182
f 184 182 185
f 184 185 176
f 184 176 175
f 184 175 183
f 189 190 182
f 189 182 181
f 189 181 188
f 189 188 187
f 187 188 192
f 187 192 191
f 187 191 178
f 187 178 177
f 193 189 187
f 193 187 177
f 193 177 179
f 195 194 180
f 195 180 178
f 195 178 191
f 184 183 194
f 184 194 195
f 196 190 189
f 196 189 193
f 183 175 180
f 183 180 194
f 176 185 196
f 176 196 193
f 176 193 179
f 181 186 192
f 181 192 188
f 186 184 195
f 186 195 191
f 186 191 192
f 182 190 196
f 182 196 185
f 200 199 201
f 200 201 198
f 200 198 197
f 206 204 202
f 206 202 203
f 206 203 205
f 207 208 203
f 207 203 202
f 197 198 207
f 197 207 202
f 197 202 204
f 199 200 206
f 199 206 205
f 208 201 199
f 208 199 205
f 208 205 203
f 197 204 206
f 197 206 200
f 207 198 201
f 207 201 208
f 210 212 211
f 210 211 209
f 215 216 214
f 215 214 213
f 215 213 217
f 213 214 210
f 213 210 209
f 213 209 218
f 213 218 219
f 221 222 220
f 223 225 216
f 223 216 215
f 223 215 224
f 226 223 224
f 226 224 227
f 226 227 221
f 226 221 220
f 218 209 211
f 218 211 226
f 218 226 220
f 218 220 222
f 218 222 228
f 212 225 223
f 212 223 226
f 212 226 211
f 217 213 219
f 217 219 228
f 217 228 222
f 217 222 221
f 217 221 227
f 224 215 217
f 224 217 227
f 212 210 214
f 212 214 216
f 212 216 225
f 219 218 228
f 229 230 231
f 232 233 235
f 232 235 234
f 236 238 237
f 236 237 230
f 236 230 229
f 232 239 240
f 232 240 233
f 235 242 241
f 235 241 243
f 235 243 234
f 239 236 229
f 239 229 231
f 239 231 244
f 239 244 240
f 231 230 237
f 231 237 241
f 231 241 242
f 231 242 244
f 236 239 232
f 236 232 234
f 236 234 243
f 236 243 238
f 237 238 243
f 237 243 241
f 235 233 240
f 235 240 244
f 235 244 242
f 246 245 247
f 249 248 250
f 249 250 252
f 249 252 251
f 248 249 254
f 248 254 253
f 253 254 256
f 253 256 257
f 253 257 255
f 258 250 248
f 258 248 253
f 258 253 255
f 249 251 252
f 249 252 256
f 249 256 254
f 252 251 250
f 252 250 258
f 252 258 245
f 252 245 246
f 245 258 255
f 245 255 257
f 245 257 247
f 251 252 246
f 251 246 247
f 251 247 257
f 251 257 256
f 259 263 262
f 259 262 261
f 259 261 260
f 264 265 267
f 264 267 266
f 265 264 268
f 265 268 269
f 265 269 272
f 265 272 271
f 265 271 270
f 274 276 275
f 274 275 273
f 269 268 277
f 269 277 278
f 264 266 279
f 264 279 259
f 264 259 260
f 264 260 277
f 264 277 268
f 262 270 271
f 262 271 274
f 262 274 273
f 262 273 261
f 279 280 263
f 279 263 259
f 277 260 261
f 277 261 273
f 277 273 275
f 277 275 278
f 266 267 280
f 266 280 279
f 263 280 267
f 263 267 265
f 263 265 270
f 263 270 262
f 271 272 276
f 271 276 274
f 276 272 269
f 276 269 278
f 276 278 275
f 281 282 285
f 281 285 284
f 281 284 283
f 286 287 282
f 286 282 281
f 288 289 290
f 288 290 287
f 288 287 286
f 289 288 291
f 289 291 292
f 292 291 293
f 292 293 294
f 288 286 281
f 288 281 283
f 288 283 293
f 288 293 291
f 285 290 289
f 285 289 292
f 285 292 294
f 285 294 284
f 283 284 294
f 283 294 293
f 287 290 285
f 287 285 282
f 295 297 300
f 295 300 298
f 295 298 299
f 295 299 296
f 305 304 302
f 305 302 301
f 305 301 303
f 310 307 306
f 310 306 308
f 310 308 309
f 313 314 312
f 313 312 311
f 311 312 317
f 311 317 316
f 311 316 295
f 311 295 296
f 311 296 315
f 318 319 306
f 318 306 307
f 318 307 313
f 318 313 311
f 318 311 315
f 297 295 316
f 302 309 308
f 302 308 319
f 302 319 318
f 302 318 299
f 302 299 298
f 302 298 301
f 303 301 298
f 303 298 300
f 299 318 315
f 299 315 296
f 308 306 319
f 304 320 310
f 304 310 309
f 304 309 302
f 314 320 304
f 314 304 305
f 314 305 317
f 314 317 312
f 305 303 300
f 305 300 297
f 305 297 316
f 305 316 317
f 307 310 320
f 307 320 314
f 307 314 313
f 322 323 321
f 326 322 321
f 326 321 324
f 326 324 325
f 323 328 327
f 323 327 324
f 323 324 321
f 324 327 329
f 324 329 325
f 327 328 330
f 327 330 329
f 328 323 322
f 328 322 326
f 328 326 330
f 329 330 326
f 329 326 325
f 331 332 336
f 331 336 335
f 331 335 333
f 331 333 334
f 337 338 332
f 337 332 331
f 339 340 334
f 339 334 333
f 342 341 335
f 342 335 336
f 341 342 338
f 341 338 337
f 341 337 340
f 341 340 339
f 341 339 333
f 341 333 335
f 340 337 331
f 340 331 334
f 338 342 336
f 338 336 332
f 345 343 344
f 345 344 346
f 350 351 348
f 350 348 347
f 350 347 349
f 343 352 354
f 343 354 353
f 343 353 344
f 352 343 345
f 352 345 356
f 352 356 355
f 344 353 347
f 344 347 348
f 344 348 346
f 352 355 350
f 352 350 349
f 352 349 354
f 354 349 347
f 354 347 353
f 351 356 345
f 351 345 346
f 351 346 348
f 355 356 351
f 355 351 350
f 358 357 359
f 358 359 360
f 361 362 364
f 361 364 363
f 362 361 357
f 362 357 358
f 357 361 363
f 357 363 365
f 357 365 359
f 362 358 360
f 362 360 366
f 362 366 364
f 364 366 365
f 364 365 363
f 366 360 359
f 366 359 365
f 369 367 368
f 369 368 370
f 374 372 371
f 374 371 373
f 371 372 376
f 371 376 375
f 367 373 371
f 367 371 375
f 367 375 368
f 374 369 370
f 374 370 376
f 374 376 372
f 369 374 373
f 369 373 367
f 376 370 368
f 376 368 375
f 377 378 380
f 377 380 379
f 384 382 381
f 384 381 383
f 385 381 382
f 385 382 378
f 385 378 377
f 380 384 383
f 380 383 386
f 380 386 379
f 385 377 379
f 385 379 386
f 381 385 386
f 381 386 383
f 378 382 384
f 378 384 380
f 388 387 389
f 388 389 393
f 388 393 392
f 388 392 391
f 388 391 390
f 399 395 394
f 399 394 396
f 399 396 397
f 399 397 398
f 400 387 388
f 394 395 389
f 394 389 387
f 394 387 400
f 397 396 390
f 397 390 391
f 394 400 388
f 394 388 390
f 394 390 396
f 392 398 397
f 392 397 391
f 393 399 398
f 393 398 392
f 389 395 399
f 389 399 393
f 402 404 403
f 402 403 405
f 402 405 401
f 407 406 408
f 407 408 409
f 407 409 410
f 407 410 411
f 414 402 401
f 414 401 415
f 414 415 413
f 414 413 412
f 403 404 417
f 403 417 416
f 403 416 406
f 403 406 407
f 417 418 416
f 412 413 409
f 412 409 408
f 406 416 418
f 406 418 414
f 406 414 412
f 406 412 408
f 415 410 409
f 415 409 413
f 403 407 411
f 403 411 405
f 401 405 411
f 401 411 410
f 401 410 415
f 418 417 404
f 418 404 402
f 418 402 414
f 420 419 421
f 420 421 422
f 420 425 423
f 420 423 424
f 420 424 419
f 428 422 421
f 428 421 427
f 428 427 426
f 426 427 424
f 426 424 423
f 425 428 426
f 425 426 423
f 421 419 424
f 421 424 427
f 425 420 422
f 425 422 428
f 429 430 432
f 429 432 431
f 436 435 434
f 436 434 433
f 436 433 437
f 440 438 439
f 440 439 441
f 440 441 442
f 440 442 430
f 440 430 429
f 439 438 443
f 439 443 444
f 432 445 433
f 432 433 434
f 432 434 431
f 438 440 435
f 438 435 436
f 438 436 443
f 441 446 437
f 441 437 433
f 441 433 445
f 441 445 442
f 439 444 446
f 439 446 441
f 435 440 429
f 435 429 431
f 435 431 434
f 444 443 436
f 444 436 437
f 444 437 446
f 430 442 445
f 430 445 432
f 448 450 449
f 448 449 447
f 455 451 452
f 455 452 453
f 455 453 454
f 452 451 456
f 452 456 448
f 452 448 447
f 458 454 453
f 458 453 449
f 458 449 450
f 458 450 457
f 456 451 455
f 456 455 460
f 456 460 459
f 459 460 458
f 459 458 457
f 452 447 449
f 452 449 453
f 448 456 459
f 448 459 457
f 448 457 450
f 460 455 454
f 460 454 458
f 465 462 461
f 465 461 463
f 465 463 464
f 469 467 466
f 469 466 470
f 469 470 468
f 471 472 473
f 471 473 461
f 471 461 462
f 472 471 474
f 472 474 466
f 472 466 467
f 461 473 469
f 461 469 468
f 461 468 463
f 470 464 463
f 470 463 468
f 466 474 465
f 466 465 464
f 466 464 470
f 474 471 462
f 474 462 465
f 472 467 469
f 472 469 473
f 477 476 475
f 479 480 478
f 479 478 475
f 479 475 476
f 481 483 482
f 481 482 477
f 481 477 475
f 481 475 478
f 481 478 484
f 483 481 484
f 483 484 480
f 483 480 479
f 483 479 476
f 483 476 477
f 483 477 482
f 480 484 478
f 487 485 486
f 490 489 488
f 488 489 491
f 488 491 486
f 488 486 485
f 492 490 488
f 492 488 485
f 492 485 487
f 492 487 486
f 492 486 491
f 490 492 491
f 490 491 489
f 493 494 496
f 493 496 495
f 498 497 499
f 498 499 501
f 498 501 500
f 497 498 494
f 497 494 493
f 497 493 495
f 497 495 502
f 497 502 499
f 494 498 500
f 494 500 496
f 501 499 502
f 500 501 502
f 500 502 495
f 500 495 496
f 508 506 505
f 508 505 507
f 508 507 504
f 508 504 503
f 511 512 514
f 511 514 509
f 511 509 510
f 511 510 513
f 510 509 503
f 510 503 504
f 512 511 505
f 512 505 506
f 505 511 513
f 505 513 507
f 512 506 508
f 512 508 514
f 514 508 503
f 514 503 509
f 507 513 510
f 507 510 504
f 518 519 516
f 518 516 515
f 518 515 517
f 523 522 520
f 523 520 521
f 521 520 524
f 521 524 515
f 521 515 516
f 524 517 515
f 522 518 517
f 522 517 524
f 522 524 520
f 519 523 521
f 519 521 516
f 522 523 519
f 522 519 518
f 528 526 525
f 528 525 527
f 531 530 529
f 533 534 532
f 526 536 535
f 526 535 525
f 530 535 536
f 530 536 533
f 530 533 532
f 530 532 529
f 534 538 537
f 534 537 531
f 534 531 529
f 534 529 532
f 525 535 530
f 525 530 531
f 525 531 537
f 525 537 527
f 536 526 528
f 536 528 538
f 536 538 534
f 536 534 533
f 528 527 537
f 528 537 538
f 543 540 539
f 543 539 541
f 543 541 542
f 540 545 544
f 540 544 539
f 539 544 547
f 539 547 548
f 539 548 546
f 539 546 541
f 550 552 543
f 550 543 542
f 550 542 549
f 550 549 551
f 549 542 541
f 549 541 546
f 547 550 551
f 547 551 548
f 544 545 552
f 544 552 550
f 544 550 547
f 552 545 540
f 552 540 543
f 551 549 546
f 551 546 548
f 553 554 555
f 558 560 554
f 558 554 553
f 558 553 559
f 558 559 557
f 558 557 556
f 556 557 562
f 556 562 561
f 564 563 561
f 564 561 562
f 564 562 565
f 566 558 556
f 566 556 561
f 566 561 563
f 559 553 555
f 559 555 564
f 559 564 565
f 554 560 566
f 554 566 563
f 554 563 564
f 554 564 555
f 558 566 560
f 557 559 565
f 557 565 562
f 570 568 567
f 570 567 569
f 574 572 571
f 574 571 573
f 578 580 579
f 578 579 576
f 578 576 575
f 578 575 577
f 568 583 582
f 568 582 581
f 568 581 567
f 567 581 575
f 567 575 576
f 567 576 569
f 581 582 584
f 581 584 577
f 581 577 575
f 586 585 578
f 586 578 577
f 586 577 584
f 579 571 572
f 579 572 570
f 579 570 569
f 579 569 576
f 580 573 571
f 580 571 579
f 572 574 585
f 572 585 586
f 572 586 583
f 572 583 568
f 572 568 570
f 585 574 573
f 585 573 580
f 585 580 578
f 583 586 584
f 583 584 582
f 590 589 587
f 590 587 588
f 593 588 587
f 593 587 592
f 593 592 591
f 597 596 594
f 597 594 595
f 595 594 591
f 595 591 592
f 596 598 593
f 596 593 591
f 596 591 594
f 587 589 597
f 587 597 595
f 587 595 592
f 590 598 596
f 590 596 597
f 590 597 589
f 590 588 593
f 590 593 598
f 603 602 601
f 603 601 599
f 603 599 600
f 607 606 604
f 607 604 605
f 599 605 604
f 599 604 608
f 599 608 609
f 599 609 600
f 606 607 601
f 606 601 602
f 606 602 610
f 611 612 609
f 611 609 608
f 604 606 610
f 604 610 611
f 604 611 608
f 601 607 605
f 601 605 599
f 603 600 609
f 603 609 612
f 602 603 612
f 602 612 611
f 602 611 610
f 616 613 614
f 616 614 617
f 616 617 615
f 619 620 614
f 619 614 613
f 619 613 618
f 621 623 624
f 621 624 616
f 621 616 615
f 621 615 622
f 627 625 621
f 627 621 622
f 627 622 626
f 623 628 619
f 623 619 618
f 623 618 624
f 628 623 621
f 628 621 625
f 626 622 615
f 626 615 617
f 624 618 613
f 624 613 616
f 620 627 626
f 620 626 617
f 620 617 614
f 628 625 627
f 628 627 620
f 628 620 619
f 631 629 630
f 636 634 635
f 636 635 633
f 636 633 632
f 632 633 638
f 632 638 630
f 632 630 629
f 632 629 637
f 639 635 634
f 639 634 640
f 639 640 637
f 639 637 629
f 639 629 631
f 639 631 630
f 639 630 638
f 640 636 632
f 640 632 637
f 634 636 640
f 635 639 638
f 635 638 633
f 643 641 642
f 647 646 644
f 647 644 645
f 645 644 648
f 645 648 649
f 651 653 652
f 651 652 654
f 651 654 650
f 646 651 650
f 646 650 648
f 646 648 644
f 641 652 653
f 641 653 647
f 641 647 645
f 641 645 649
f 641 649 642
f 654 652 641
f 654 641 643
f 650 654 643
f 650 643 642
f 650 642 649
f 650 649 648
f 651 646 647
f 651 647 653
f 660 658 657
f 660 657 655
f 660 655 656
f 660 656 659
f 663 664 666
f 663 666 665
f 663 665 662
f 663 662 661
f 661 662 656
f 661 656 655
f 664 663 657
f 664 657 658
f 657 663 661
f 657 661 655
f 666 660 659
f 666 659 665
f 665 659 656
f 665 656 662
f 666 664 658
f 666 658 660
f 669 670 668
f 669 668 667
f 674 673 671
f 674 671 672
f 672 671 667
f 672 667 668
f 673 669 667
f 673 667 671
f 670 674 672
f 670 672 668
f 673 674 670
f 673 670 669
f 679 681 678
f 679 678 677
f 679 677 675
f 679 675 676
f 679 676 680
f 676 675 682
f 676 682 683
f 677 682 675
f 682 677 678
f 682 678 684
f 682 684 685
f 682 685 686
f 682 686 683
f 679 680 688
f 679 688 687
f 678 681 684
f 681 679 687
f 681 687 685
f 681 685 684
f 680 676 683
f 680 683 686
f 680 686 688
f 685 687 688
f 685 688 686
f 690 689 691
f 690 691 692
f 690 696 695
f 690 695 693
f 690 693 694
f 690 694 689
f 694 693 697
f 694 697 698
f 694 698 700
f 694 700 699
f 703 705 701
f 703 701 702
f 703 702 704
f 701 706 702
f 697 707 708
f 697 708 703
f 697 703 704
f 697 704 698
f 693 695 709
f 693 709 707
f 693 707 697
f 689 694 699
f 689 699 691
f 707 709 696
f 707 696 690
f 707 690 692
f 707 692 710
f 707 710 708
f 708 710 705
f 708 705 703
f 710 692 691
f 710 691 699
f 710 699 700
f 710 700 706
f 710 706 701
f 710 701 705
f 695 696 709
f 698 704 702
f 698 702 706
f 698 706 700
f 711 712 714
f 711 714 713
f 711 713 716
f 711 716 715
f 711 715 717
f 712 711 718
f 712 718 719
f 724 723 721
f 724 721 720
f 724 720 722
f 714 727 728
f 714 728 726
f 714 726 725
f 714 725 713
f 716 729 720
f 716 720 721
f 716 721 715
f 729 725 726
f 729 726 730
f 729 730 722
f 729 722 720
f 727 731 732
f 727 732 733
f 727 733 728
f 723 734 717
f 723 717 715
f 723 715 721
f 713 725 729
f 713 729 716
f 718 711 717
f 718 717 734
f 724 732 731
f 724 731 719
f 724 719 718
f 724 718 734
f 724 734 723
f 727 714 712
f 727 712 719
f 727 719 731
f 732 724 722
f 732 722 730
f 732 730 733
f 728 733 730
f 728 730 726
f 739 738 737
f 739 737 736
f 739 736 735
f 735 736 742
f 735 742 741
f 735 741 740
f 745 737 738
f 745 738 744
f 745 744 743
f 743 744 746
f 743 746 740
f 743 740 741
f 739 735 740
f 739 740 746
f 742 745 743
f 742 743 741
f 736 737 745
f 736 745 742
f 738 739 746
f 738 746 744
f 749 750 748
f 749 748 747
f 749 747 752
f 749 752 751
f 748 754 753
f 748 753 747
f 758 757 755
f 758 755 756
f 761 750 749
f 761 749 760
f 761 760 759
f 759 760 762
f 759 762 756
f 759 756 755
f 757 753 754
f 757 754 761
f 757 761 759
f 757 759 755
f 752 758 756
f 752 756 762
f 752 762 751
f 749 751 762
f 749 762 760
f 758 752 747
f 758 747 753
f 758 753 757
f 754 748 750
f 754 750 761
f 766 767 764
f 766 764 763
f 766 763 765
f 770 768 763
f 770 763 764
f 770 764 769
f 771 774 773
f 771 773 775
f 771 775 772
f 771 772 766
f 771 766 765
f 768 776 771
f 768 771 765
f 768 765 763
f 772 777 767
f 772 767 766
f 773 774 778
f 775 770 769
f 775 769 777
f 775 777 772
f 769 764 767
f 769 767 777
f 775 773 778
f 775 778 776
f 775 776 768
f 775 768 770
f 774 771 776
f 774 776 778
f 780 779 781
f 780 781 794
f 784 785 783
f 784 783 782
f 787 788 786
f 787 786 782
f 787 782 783
f 789 791 790
f 789 790 785
f 789 785 784
f 793 789 784
f 793 784 782
f 793 782 786
f 793 786 792
f 785 790 787
f 785 787 783
f 788 786 792
f 788 792 794
f 788 794 781
f 791 789 793
f 791 793 779
f 791 779 780
f 779 793 792
f 779 792 794
f 779 794 781
f 790 791 780
f 790 780 781
f 790 781 794
f 790 794 788
f 790 788 787
f 795 800 799
f 795 799 797
f 795 797 798
f 795 798 796
f 801 802 795
f 801 795 796
f 801 796 803
f 807 808 809
f 807 809 806
f 807 806 804
f 807 804 805
f 810 798 797
f 810 797 805
f 810 805 804
f 802 801 811
f 802 811 813
f 802 813 812
f 806 811 801
f 806 801 803
f 806 803 810
f 806 810 804
f 799 807 805
f 799 805 797
f 812 814 800
f 812 800 795
f 812 795 802
f 800 814 808
f 800 808 807
f 800 807 799
f 803 796 798
f 803 798 810
f 814 812 813
f 814 813 809
f 814 809 808
f 809 813 811
f 809 811 806
f 817 815 816
f 821 820 818
f 821 818 819
f 822 816 815
f 822 815 819
f 822 819 818
f 820 822 818
f 817 821 819
f 817 819 815
f 820 821 817
f 820 817 816
f 820 816 822
f 828 823 824
f 828 824 827
f 828 827 825
f 828 825 826
f 824 823 829
f 832 834 833
f 832 833 831
f 832 831 830
f 826 825 835
f 826 835 830
f 826 830 831
f 826 831 836
f 837 838 832
f 837 832 830
f 837 830 835
f 833 836 831
f 827 837 835
f 827 835 825
f 834 828 826
f 834 826 836
f 834 836 833
f 838 829 823
f 838 823 828
f 838 828 834
f 838 834 832
f 824 829 838
f 824 838 837
f 824 837 827
f 839 841 842
f 839 842 840
f 844 843 847
f 844 847 839
f 844 839 840
f 844 840 845
f 844 845 846
f 853 848 849
f 853 849 851
f 853 851 850
f 853 850 852
f 848 843 844
f 848 844 854
f 848 854 849
f 851 856 855
f 851 855 850
f 857 842 841
f 857 841 852
f 857 852 850
f 857 850 855
f 857 855 858
f 860 846 845
f 860 845 859
f 860 859 861
f 839 847 853
f 839 853 852
f 839 852 841
f 843 848 853
f 843 853 847
f 845 840 842
f 845 842 857
f 845 857 859
f 851 849 854
f 851 854 862
f 851 862 856
f 862 854 844
f 862 844 846
f 862 846 860
f 856 862 860
f 856 860 861
f 856 861 858
f 856 858 855
f 861 859 857
f 861 857 858
