# Cliff formation generated by cliff_generator.py
# Vertices 10 Faces 16
# No noise used, only authored geological features
v 24.075000 -0.000000 -10.000000
v 5.872727 -0.000000 -10.000000
v 23.040278 -0.000000 -3.791667
v 6.485294 -0.000000 -3.261765
v 16.606667 -0.000000 -1.760000
v 12.192000 -0.000000 -1.760000
v 15.662185 6.730252 -10.000000
v 15.279752 5.965386 -1.968910
v 15.132797 5.860766 -1.911490
v 14.657571 0.633280 -1.211157
f 3 5 6
f 3 6 4
f 3 4 2
f 3 2 1
f 7 1 2
f 8 3 1
f 8 1 7
f 4 9 8
f 4 8 7
f 4 7 2
f 10 6 5
f 8 9 10
f 8 10 5
f 8 5 3
f 9 4 6
f 9 6 10
