# Frontier quad tyre editor — millimetres; separate closed casing and tread solids
o Tread_1_1
v -126.010000 426.594217 5.402911
v -116.717500 426.987887 5.407897
v -107.425000 427.351415 5.412501
v -98.132500 427.684800 5.416723
v -88.840000 427.988044 5.420564
v -123.797500 426.404897 16.522901
v -114.505000 426.791132 16.537868
v -105.212500 427.147244 16.551667
v -95.920000 427.473235 16.564299
v -86.627500 427.769103 16.575763
v -118.611400 426.048401 27.644654
v -110.805700 426.360320 27.664893
v -103.000000 426.651013 27.683755
v -95.194300 426.920480 27.701239
v -87.388600 427.168723 27.717347
v -119.372500 425.151707 38.736260
v -110.080000 425.522341 38.770029
v -100.787500 425.862956 38.801063
v -91.495000 426.173550 38.829361
v -82.202500 426.454123 38.854925
v -117.160000 424.088450 49.814253
v -107.867500 424.450951 49.856833
v -98.575000 424.783512 49.895897
v -89.282500 425.086135 49.931443
v -79.990000 425.358819 49.963473
v -126.660000 426.573045 4.774372
v -117.105000 426.979573 4.778922
v -107.550000 427.354232 4.783116
v -97.995000 427.697020 4.786952
v -88.440000 428.007939 4.790432
v -86.165000 427.795131 16.261318
v -86.947600 427.182114 27.718216
v -81.615000 426.442127 39.170454
v -79.340000 425.302731 50.591947
v -88.895000 425.024111 50.558803
v -98.450000 424.713843 50.521895
v -108.005000 424.371926 50.481223
v -117.560000 423.998360 50.436785
v -119.835000 425.103840 39.047527
v -119.052400 426.030145 27.643469
v -124.385000 426.391515 16.207964
v -129.000000 424.687972 2.501648
v -118.500000 425.141572 2.504320
v -108.000000 425.556684 2.506765
v -97.500000 425.933310 2.508983
v -87.000000 426.271448 2.510975
v -84.500000 426.087425 15.065446
v -85.360000 425.433540 27.604758
v -79.500000 424.604003 40.136895
v -77.000000 423.305667 52.631727
v -87.500000 423.006482 52.594528
v -98.000000 422.669104 52.552580
v -108.500000 422.293531 52.505883
v -119.000000 421.879764 52.454437
v -121.500000 423.137005 39.998223
v -120.640000 424.167640 27.522618
v -126.500000 424.541543 15.010787
v -129.000000 412.988175 2.432729
v -118.500000 413.441775 2.435401
v -108.000000 413.856887 2.437846
v -97.500000 414.233513 2.440065
v -87.000000 414.571651 2.442057
v -84.500000 414.394731 14.652020
v -85.360000 413.758092 26.847182
v -79.500000 412.955928 39.035828
v -77.000000 411.695068 51.188123
v -87.500000 411.395883 51.150923
v -98.000000 411.058505 51.108975
v -108.500000 410.682932 51.062279
v -119.000000 410.269165 51.010833
v -121.500000 411.488930 38.897156
v -120.640000 412.492192 26.765043
v -126.500000 412.848849 14.597361
v -129.000000 411.888194 2.426250
v -118.500000 412.341794 2.428922
v -108.000000 412.756906 2.431367
v -97.500000 413.133532 2.433586
v -87.000000 413.471670 2.435577
v -84.500000 413.295418 14.613151
v -85.360000 412.660400 26.775957
v -79.500000 411.860809 38.932309
v -77.000000 410.603474 51.052399
v -87.500000 410.304289 51.015200
v -98.000000 409.966910 50.973252
v -108.500000 409.591337 50.926555
v -119.000000 409.177571 50.875109
v -121.500000 410.393811 38.793637
v -120.640000 411.394501 26.693818
v -126.500000 411.749536 14.558492
v -116.000000 412.193703 14.574197
v -105.500000 412.599405 14.588541
v -95.000000 412.966644 14.601526
v -111.820000 411.751626 26.716990
v -103.000000 412.081651 26.738404
v -94.180000 412.384576 26.758060
v -111.000000 410.818037 38.833738
v -100.500000 411.203945 38.870217
v -90.000000 411.551536 38.903074
f 1 6 7 2
f 2 7 8 3
f 3 8 9 4
f 4 9 10 5
f 6 11 12 7
f 7 12 13 8
f 8 13 14 9
f 9 14 15 10
f 11 16 17 12
f 12 17 18 13
f 13 18 19 14
f 14 19 20 15
f 16 21 22 17
f 17 22 23 18
f 18 23 24 19
f 19 24 25 20
f 1 2 27 26
f 2 3 28 27
f 3 4 29 28
f 4 5 30 29
f 5 10 31 30
f 10 15 32 31
f 15 20 33 32
f 20 25 34 33
f 25 24 35 34
f 24 23 36 35
f 23 22 37 36
f 22 21 38 37
f 21 16 39 38
f 16 11 40 39
f 11 6 41 40
f 6 1 26 41
f 26 27 43 42
f 27 28 44 43
f 28 29 45 44
f 29 30 46 45
f 30 31 47 46
f 31 32 48 47
f 32 33 49 48
f 33 34 50 49
f 34 35 51 50
f 35 36 52 51
f 36 37 53 52
f 37 38 54 53
f 38 39 55 54
f 39 40 56 55
f 40 41 57 56
f 41 26 42 57
f 42 43 59 58
f 43 44 60 59
f 44 45 61 60
f 45 46 62 61
f 46 47 63 62
f 47 48 64 63
f 48 49 65 64
f 49 50 66 65
f 50 51 67 66
f 51 52 68 67
f 52 53 69 68
f 53 54 70 69
f 54 55 71 70
f 55 56 72 71
f 56 57 73 72
f 57 42 58 73
f 58 59 75 74
f 59 60 76 75
f 60 61 77 76
f 61 62 78 77
f 62 63 79 78
f 63 64 80 79
f 64 65 81 80
f 65 66 82 81
f 66 67 83 82
f 67 68 84 83
f 68 69 85 84
f 69 70 86 85
f 70 71 87 86
f 71 72 88 87
f 72 73 89 88
f 73 58 74 89
f 74 75 90 89
f 75 76 91 90
f 76 77 92 91
f 77 78 79 92
f 89 90 93 88
f 90 91 94 93
f 91 92 95 94
f 92 79 80 95
f 88 93 96 87
f 93 94 97 96
f 94 95 98 97
f 95 80 81 98
f 87 96 85 86
f 96 97 84 85
f 97 98 83 84
f 98 81 82 83
