# Procedural polygon tire; X is the wheel axle
v -0.350000 1.000000 0.000000
v -0.350000 0.999465 0.032719
v -0.350000 0.997859 0.065403
v -0.350000 0.995185 0.098017
v -0.350000 0.991445 0.130526
v -0.350000 0.986643 0.162895
v -0.350000 0.980785 0.195090
v -0.350000 0.973877 0.227076
v -0.350000 0.965926 0.258819
v -0.350000 0.956940 0.290285
v -0.350000 0.946930 0.321439
v -0.350000 0.935906 0.352250
v -0.350000 0.923880 0.382683
v -0.350000 0.910864 0.412707
v -0.350000 0.896873 0.442289
v -0.350000 0.881921 0.471397
v -0.350000 0.866025 0.500000
v -0.350000 0.849202 0.528068
v -0.350000 0.831470 0.555570
v -0.350000 0.812847 0.582478
v -0.350000 0.793353 0.608761
v -0.350000 0.773010 0.634393
v -0.350000 0.751840 0.659346
v -0.350000 0.729864 0.683592
v -0.350000 0.707107 0.707107
v -0.350000 0.683592 0.729864
v -0.350000 0.659346 0.751840
v -0.350000 0.634393 0.773010
v -0.350000 0.608761 0.793353
v -0.350000 0.582478 0.812847
v -0.350000 0.555570 0.831470
v -0.350000 0.528068 0.849202
v -0.350000 0.500000 0.866025
v -0.350000 0.471397 0.881921
v -0.350000 0.442289 0.896873
v -0.350000 0.412707 0.910864
v -0.350000 0.382683 0.923880
v -0.350000 0.352250 0.935906
v -0.350000 0.321439 0.946930
v -0.350000 0.290285 0.956940
v -0.350000 0.258819 0.965926
v -0.350000 0.227076 0.973877
v -0.350000 0.195090 0.980785
v -0.350000 0.162895 0.986643
v -0.350000 0.130526 0.991445
v -0.350000 0.098017 0.995185
v -0.350000 0.065403 0.997859
v -0.350000 0.032719 0.999465
v -0.350000 0.000000 1.000000
v -0.350000 -0.032719 0.999465
v -0.350000 -0.065403 0.997859
v -0.350000 -0.098017 0.995185
v -0.350000 -0.130526 0.991445
v -0.350000 -0.162895 0.986643
v -0.350000 -0.195090 0.980785
v -0.350000 -0.227076 0.973877
v -0.350000 -0.258819 0.965926
v -0.350000 -0.290285 0.956940
v -0.350000 -0.321439 0.946930
v -0.350000 -0.352250 0.935906
v -0.350000 -0.382683 0.923880
v -0.350000 -0.412707 0.910864
v -0.350000 -0.442289 0.896873
v -0.350000 -0.471397 0.881921
v -0.350000 -0.500000 0.866025
v -0.350000 -0.528068 0.849202
v -0.350000 -0.555570 0.831470
v -0.350000 -0.582478 0.812847
v -0.350000 -0.608761 0.793353
v -0.350000 -0.634393 0.773010
v -0.350000 -0.659346 0.751840
v -0.350000 -0.683592 0.729864
v -0.350000 -0.707107 0.707107
v -0.350000 -0.729864 0.683592
v -0.350000 -0.751840 0.659346
v -0.350000 -0.773010 0.634393
v -0.350000 -0.793353 0.608761
v -0.350000 -0.812847 0.582478
v -0.350000 -0.831470 0.555570
v -0.350000 -0.849202 0.528068
v -0.350000 -0.866025 0.500000
v -0.350000 -0.881921 0.471397
v -0.350000 -0.896873 0.442289
v -0.350000 -0.910864 0.412707
v -0.350000 -0.923880 0.382683
v -0.350000 -0.935906 0.352250
v -0.350000 -0.946930 0.321439
v -0.350000 -0.956940 0.290285
v -0.350000 -0.965926 0.258819
v -0.350000 -0.973877 0.227076
v -0.350000 -0.980785 0.195090
v -0.350000 -0.986643 0.162895
v -0.350000 -0.991445 0.130526
v -0.350000 -0.995185 0.098017
v -0.350000 -0.997859 0.065403
v -0.350000 -0.999465 0.032719
v -0.350000 -1.000000 0.000000
v -0.350000 -0.999465 -0.032719
v -0.350000 -0.997859 -0.065403
v -0.350000 -0.995185 -0.098017
v -0.350000 -0.991445 -0.130526
v -0.350000 -0.986643 -0.162895
v -0.350000 -0.980785 -0.195090
v -0.350000 -0.973877 -0.227076
v -0.350000 -0.965926 -0.258819
v -0.350000 -0.956940 -0.290285
v -0.350000 -0.946930 -0.321439
v -0.350000 -0.935906 -0.352250
v -0.350000 -0.923880 -0.382683
v -0.350000 -0.910864 -0.412707
v -0.350000 -0.896873 -0.442289
v -0.350000 -0.881921 -0.471397
v -0.350000 -0.866025 -0.500000
v -0.350000 -0.849202 -0.528068
v -0.350000 -0.831470 -0.555570
v -0.350000 -0.812847 -0.582478
v -0.350000 -0.793353 -0.608761
v -0.350000 -0.773010 -0.634393
v -0.350000 -0.751840 -0.659346
v -0.350000 -0.729864 -0.683592
v -0.350000 -0.707107 -0.707107
v -0.350000 -0.683592 -0.729864
v -0.350000 -0.659346 -0.751840
v -0.350000 -0.634393 -0.773010
v -0.350000 -0.608761 -0.793353
v -0.350000 -0.582478 -0.812847
v -0.350000 -0.555570 -0.831470
v -0.350000 -0.528068 -0.849202
v -0.350000 -0.500000 -0.866025
v -0.350000 -0.471397 -0.881921
v -0.350000 -0.442289 -0.896873
v -0.350000 -0.412707 -0.910864
v -0.350000 -0.382683 -0.923880
v -0.350000 -0.352250 -0.935906
v -0.350000 -0.321439 -0.946930
v -0.350000 -0.290285 -0.956940
v -0.350000 -0.258819 -0.965926
v -0.350000 -0.227076 -0.973877
v -0.350000 -0.195090 -0.980785
v -0.350000 -0.162895 -0.986643
v -0.350000 -0.130526 -0.991445
v -0.350000 -0.098017 -0.995185
v -0.350000 -0.065403 -0.997859
v -0.350000 -0.032719 -0.999465
v -0.350000 -0.000000 -1.000000
v -0.350000 0.032719 -0.999465
v -0.350000 0.065403 -0.997859
v -0.350000 0.098017 -0.995185
v -0.350000 0.130526 -0.991445
v -0.350000 0.162895 -0.986643
v -0.350000 0.195090 -0.980785
v -0.350000 0.227076 -0.973877
v -0.350000 0.258819 -0.965926
v -0.350000 0.290285 -0.956940
v -0.350000 0.321439 -0.946930
v -0.350000 0.352250 -0.935906
v -0.350000 0.382683 -0.923880
v -0.350000 0.412707 -0.910864
v -0.350000 0.442289 -0.896873
v -0.350000 0.471397 -0.881921
v -0.350000 0.500000 -0.866025
v -0.350000 0.528068 -0.849202
v -0.350000 0.555570 -0.831470
v -0.350000 0.582478 -0.812847
v -0.350000 0.608761 -0.793353
v -0.350000 0.634393 -0.773010
v -0.350000 0.659346 -0.751840
v -0.350000 0.683592 -0.729864
v -0.350000 0.707107 -0.707107
v -0.350000 0.729864 -0.683592
v -0.350000 0.751840 -0.659346
v -0.350000 0.773010 -0.634393
v -0.350000 0.793353 -0.608761
v -0.350000 0.812847 -0.582478
v -0.350000 0.831470 -0.555570
v -0.350000 0.849202 -0.528068
v -0.350000 0.866025 -0.500000
v -0.350000 0.881921 -0.471397
v -0.350000 0.896873 -0.442289
v -0.350000 0.910864 -0.412707
v -0.350000 0.923880 -0.382683
v -0.350000 0.935906 -0.352250
v -0.350000 0.946930 -0.321439
v -0.350000 0.956940 -0.290285
v -0.350000 0.965926 -0.258819
v -0.350000 0.973877 -0.227076
v -0.350000 0.980785 -0.195090
v -0.350000 0.986643 -0.162895
v -0.350000 0.991445 -0.130526
v -0.350000 0.995185 -0.098017
v -0.350000 0.997859 -0.065403
v -0.350000 0.999465 -0.032719
v 0.350000 1.000000 0.000000
v 0.350000 0.999465 0.032719
v 0.350000 0.997859 0.065403
v 0.350000 0.995185 0.098017
v 0.350000 0.991445 0.130526
v 0.350000 0.986643 0.162895
v 0.350000 0.980785 0.195090
v 0.350000 0.973877 0.227076
v 0.350000 0.965926 0.258819
v 0.350000 0.956940 0.290285
v 0.350000 0.946930 0.321439
v 0.350000 0.935906 0.352250
v 0.350000 0.923880 0.382683
v 0.350000 0.910864 0.412707
v 0.350000 0.896873 0.442289
v 0.350000 0.881921 0.471397
v 0.350000 0.866025 0.500000
v 0.350000 0.849202 0.528068
v 0.350000 0.831470 0.555570
v 0.350000 0.812847 0.582478
v 0.350000 0.793353 0.608761
v 0.350000 0.773010 0.634393
v 0.350000 0.751840 0.659346
v 0.350000 0.729864 0.683592
v 0.350000 0.707107 0.707107
v 0.350000 0.683592 0.729864
v 0.350000 0.659346 0.751840
v 0.350000 0.634393 0.773010
v 0.350000 0.608761 0.793353
v 0.350000 0.582478 0.812847
v 0.350000 0.555570 0.831470
v 0.350000 0.528068 0.849202
v 0.350000 0.500000 0.866025
v 0.350000 0.471397 0.881921
v 0.350000 0.442289 0.896873
v 0.350000 0.412707 0.910864
v 0.350000 0.382683 0.923880
v 0.350000 0.352250 0.935906
v 0.350000 0.321439 0.946930
v 0.350000 0.290285 0.956940
v 0.350000 0.258819 0.965926
v 0.350000 0.227076 0.973877
v 0.350000 0.195090 0.980785
v 0.350000 0.162895 0.986643
v 0.350000 0.130526 0.991445
v 0.350000 0.098017 0.995185
v 0.350000 0.065403 0.997859
v 0.350000 0.032719 0.999465
v 0.350000 0.000000 1.000000
v 0.350000 -0.032719 0.999465
v 0.350000 -0.065403 0.997859
v 0.350000 -0.098017 0.995185
v 0.350000 -0.130526 0.991445
v 0.350000 -0.162895 0.986643
v 0.350000 -0.195090 0.980785
v 0.350000 -0.227076 0.973877
v 0.350000 -0.258819 0.965926
v 0.350000 -0.290285 0.956940
v 0.350000 -0.321439 0.946930
v 0.350000 -0.352250 0.935906
v 0.350000 -0.382683 0.923880
v 0.350000 -0.412707 0.910864
v 0.350000 -0.442289 0.896873
v 0.350000 -0.471397 0.881921
v 0.350000 -0.500000 0.866025
v 0.350000 -0.528068 0.849202
v 0.350000 -0.555570 0.831470
v 0.350000 -0.582478 0.812847
v 0.350000 -0.608761 0.793353
v 0.350000 -0.634393 0.773010
v 0.350000 -0.659346 0.751840
v 0.350000 -0.683592 0.729864
v 0.350000 -0.707107 0.707107
v 0.350000 -0.729864 0.683592
v 0.350000 -0.751840 0.659346
v 0.350000 -0.773010 0.634393
v 0.350000 -0.793353 0.608761
v 0.350000 -0.812847 0.582478
v 0.350000 -0.831470 0.555570
v 0.350000 -0.849202 0.528068
v 0.350000 -0.866025 0.500000
v 0.350000 -0.881921 0.471397
v 0.350000 -0.896873 0.442289
v 0.350000 -0.910864 0.412707
v 0.350000 -0.923880 0.382683
v 0.350000 -0.935906 0.352250
v 0.350000 -0.946930 0.321439
v 0.350000 -0.956940 0.290285
v 0.350000 -0.965926 0.258819
v 0.350000 -0.973877 0.227076
v 0.350000 -0.980785 0.195090
v 0.350000 -0.986643 0.162895
v 0.350000 -0.991445 0.130526
v 0.350000 -0.995185 0.098017
v 0.350000 -0.997859 0.065403
v 0.350000 -0.999465 0.032719
v 0.350000 -1.000000 0.000000
v 0.350000 -0.999465 -0.032719
v 0.350000 -0.997859 -0.065403
v 0.350000 -0.995185 -0.098017
v 0.350000 -0.991445 -0.130526
v 0.350000 -0.986643 -0.162895
v 0.350000 -0.980785 -0.195090
v 0.350000 -0.973877 -0.227076
v 0.350000 -0.965926 -0.258819
v 0.350000 -0.956940 -0.290285
v 0.350000 -0.946930 -0.321439
v 0.350000 -0.935906 -0.352250
v 0.350000 -0.923880 -0.382683
v 0.350000 -0.910864 -0.412707
v 0.350000 -0.896873 -0.442289
v 0.350000 -0.881921 -0.471397
v 0.350000 -0.866025 -0.500000
v 0.350000 -0.849202 -0.528068
v 0.350000 -0.831470 -0.555570
v 0.350000 -0.812847 -0.582478
v 0.350000 -0.793353 -0.608761
v 0.350000 -0.773010 -0.634393
v 0.350000 -0.751840 -0.659346
v 0.350000 -0.729864 -0.683592
v 0.350000 -0.707107 -0.707107
v 0.350000 -0.683592 -0.729864
v 0.350000 -0.659346 -0.751840
v 0.350000 -0.634393 -0.773010
v 0.350000 -0.608761 -0.793353
v 0.350000 -0.582478 -0.812847
v 0.350000 -0.555570 -0.831470
v 0.350000 -0.528068 -0.849202
v 0.350000 -0.500000 -0.866025
v 0.350000 -0.471397 -0.881921
v 0.350000 -0.442289 -0.896873
v 0.350000 -0.412707 -0.910864
v 0.350000 -0.382683 -0.923880
v 0.350000 -0.352250 -0.935906
v 0.350000 -0.321439 -0.946930
v 0.350000 -0.290285 -0.956940
v 0.350000 -0.258819 -0.965926
v 0.350000 -0.227076 -0.973877
v 0.350000 -0.195090 -0.980785
v 0.350000 -0.162895 -0.986643
v 0.350000 -0.130526 -0.991445
v 0.350000 -0.098017 -0.995185
v 0.350000 -0.065403 -0.997859
v 0.350000 -0.032719 -0.999465
v 0.350000 -0.000000 -1.000000
v 0.350000 0.032719 -0.999465
v 0.350000 0.065403 -0.997859
v 0.350000 0.098017 -0.995185
v 0.350000 0.130526 -0.991445
v 0.350000 0.162895 -0.986643
v 0.350000 0.195090 -0.980785
v 0.350000 0.227076 -0.973877
v 0.350000 0.258819 -0.965926
v 0.350000 0.290285 -0.956940
v 0.350000 0.321439 -0.946930
v 0.350000 0.352250 -0.935906
v 0.350000 0.382683 -0.923880
v 0.350000 0.412707 -0.910864
v 0.350000 0.442289 -0.896873
v 0.350000 0.471397 -0.881921
v 0.350000 0.500000 -0.866025
v 0.350000 0.528068 -0.849202
v 0.350000 0.555570 -0.831470
v 0.350000 0.582478 -0.812847
v 0.350000 0.608761 -0.793353
v 0.350000 0.634393 -0.773010
v 0.350000 0.659346 -0.751840
v 0.350000 0.683592 -0.729864
v 0.350000 0.707107 -0.707107
v 0.350000 0.729864 -0.683592
v 0.350000 0.751840 -0.659346
v 0.350000 0.773010 -0.634393
v 0.350000 0.793353 -0.608761
v 0.350000 0.812847 -0.582478
v 0.350000 0.831470 -0.555570
v 0.350000 0.849202 -0.528068
v 0.350000 0.866025 -0.500000
v 0.350000 0.881921 -0.471397
v 0.350000 0.896873 -0.442289
v 0.350000 0.910864 -0.412707
v 0.350000 0.923880 -0.382683
v 0.350000 0.935906 -0.352250
v 0.350000 0.946930 -0.321439
v 0.350000 0.956940 -0.290285
v 0.350000 0.965926 -0.258819
v 0.350000 0.973877 -0.227076
v 0.350000 0.980785 -0.195090
v 0.350000 0.986643 -0.162895
v 0.350000 0.991445 -0.130526
v 0.350000 0.995185 -0.098017
v 0.350000 0.997859 -0.065403
v 0.350000 0.999465 -0.032719
v -0.350000 0.720000 0.000000
v -0.350000 0.719615 0.023558
v -0.350000 0.718458 0.047090
v -0.350000 0.716533 0.070572
v -0.350000 0.713840 0.093979
v -0.350000 0.710383 0.117285
v -0.350000 0.706165 0.140465
v -0.350000 0.701191 0.163495
v -0.350000 0.695467 0.186350
v -0.350000 0.688997 0.209005
v -0.350000 0.681790 0.231436
v -0.350000 0.673852 0.253620
v -0.350000 0.665193 0.275532
v -0.350000 0.655822 0.297149
v -0.350000 0.645748 0.318448
v -0.350000 0.634983 0.339406
v -0.350000 0.623538 0.360000
v -0.350000 0.611426 0.380209
v -0.350000 0.598658 0.400011
v -0.350000 0.585250 0.419384
v -0.350000 0.571214 0.438308
v -0.350000 0.556568 0.456763
v -0.350000 0.541325 0.474729
v -0.350000 0.525502 0.492186
v -0.350000 0.509117 0.509117
v -0.350000 0.492186 0.525502
v -0.350000 0.474729 0.541325
v -0.350000 0.456763 0.556568
v -0.350000 0.438308 0.571214
v -0.350000 0.419384 0.585250
v -0.350000 0.400011 0.598658
v -0.350000 0.380209 0.611426
v -0.350000 0.360000 0.623538
v -0.350000 0.339406 0.634983
v -0.350000 0.318448 0.645748
v -0.350000 0.297149 0.655822
v -0.350000 0.275532 0.665193
v -0.350000 0.253620 0.673852
v -0.350000 0.231436 0.681790
v -0.350000 0.209005 0.688997
v -0.350000 0.186350 0.695467
v -0.350000 0.163495 0.701191
v -0.350000 0.140465 0.706165
v -0.350000 0.117285 0.710383
v -0.350000 0.093979 0.713840
v -0.350000 0.070572 0.716533
v -0.350000 0.047090 0.718458
v -0.350000 0.023558 0.719615
v -0.350000 0.000000 0.720000
v -0.350000 -0.023558 0.719615
v -0.350000 -0.047090 0.718458
v -0.350000 -0.070572 0.716533
v -0.350000 -0.093979 0.713840
v -0.350000 -0.117285 0.710383
v -0.350000 -0.140465 0.706165
v -0.350000 -0.163495 0.701191
v -0.350000 -0.186350 0.695467
v -0.350000 -0.209005 0.688997
v -0.350000 -0.231436 0.681790
v -0.350000 -0.253620 0.673852
v -0.350000 -0.275532 0.665193
v -0.350000 -0.297149 0.655822
v -0.350000 -0.318448 0.645748
v -0.350000 -0.339406 0.634983
v -0.350000 -0.360000 0.623538
v -0.350000 -0.380209 0.611426
v -0.350000 -0.400011 0.598658
v -0.350000 -0.419384 0.585250
v -0.350000 -0.438308 0.571214
v -0.350000 -0.456763 0.556568
v -0.350000 -0.474729 0.541325
v -0.350000 -0.492186 0.525502
v -0.350000 -0.509117 0.509117
v -0.350000 -0.525502 0.492186
v -0.350000 -0.541325 0.474729
v -0.350000 -0.556568 0.456763
v -0.350000 -0.571214 0.438308
v -0.350000 -0.585250 0.419384
v -0.350000 -0.598658 0.400011
v -0.350000 -0.611426 0.380209
v -0.350000 -0.623538 0.360000
v -0.350000 -0.634983 0.339406
v -0.350000 -0.645748 0.318448
v -0.350000 -0.655822 0.297149
v -0.350000 -0.665193 0.275532
v -0.350000 -0.673852 0.253620
v -0.350000 -0.681790 0.231436
v -0.350000 -0.688997 0.209005
v -0.350000 -0.695467 0.186350
v -0.350000 -0.701191 0.163495
v -0.350000 -0.706165 0.140465
v -0.350000 -0.710383 0.117285
v -0.350000 -0.713840 0.093979
v -0.350000 -0.716533 0.070572
v -0.350000 -0.718458 0.047090
v -0.350000 -0.719615 0.023558
v -0.350000 -0.720000 0.000000
v -0.350000 -0.719615 -0.023558
v -0.350000 -0.718458 -0.047090
v -0.350000 -0.716533 -0.070572
v -0.350000 -0.713840 -0.093979
v -0.350000 -0.710383 -0.117285
v -0.350000 -0.706165 -0.140465
v -0.350000 -0.701191 -0.163495
v -0.350000 -0.695467 -0.186350
v -0.350000 -0.688997 -0.209005
v -0.350000 -0.681790 -0.231436
v -0.350000 -0.673852 -0.253620
v -0.350000 -0.665193 -0.275532
v -0.350000 -0.655822 -0.297149
v -0.350000 -0.645748 -0.318448
v -0.350000 -0.634983 -0.339406
v -0.350000 -0.623538 -0.360000
v -0.350000 -0.611426 -0.380209
v -0.350000 -0.598658 -0.400011
v -0.350000 -0.585250 -0.419384
v -0.350000 -0.571214 -0.438308
v -0.350000 -0.556568 -0.456763
v -0.350000 -0.541325 -0.474729
v -0.350000 -0.525502 -0.492186
v -0.350000 -0.509117 -0.509117
v -0.350000 -0.492186 -0.525502
v -0.350000 -0.474729 -0.541325
v -0.350000 -0.456763 -0.556568
v -0.350000 -0.438308 -0.571214
v -0.350000 -0.419384 -0.585250
v -0.350000 -0.400011 -0.598658
v -0.350000 -0.380209 -0.611426
v -0.350000 -0.360000 -0.623538
v -0.350000 -0.339406 -0.634983
v -0.350000 -0.318448 -0.645748
v -0.350000 -0.297149 -0.655822
v -0.350000 -0.275532 -0.665193
v -0.350000 -0.253620 -0.673852
v -0.350000 -0.231436 -0.681790
v -0.350000 -0.209005 -0.688997
v -0.350000 -0.186350 -0.695467
v -0.350000 -0.163495 -0.701191
v -0.350000 -0.140465 -0.706165
v -0.350000 -0.117285 -0.710383
v -0.350000 -0.093979 -0.713840
v -0.350000 -0.070572 -0.716533
v -0.350000 -0.047090 -0.718458
v -0.350000 -0.023558 -0.719615
v -0.350000 -0.000000 -0.720000
v -0.350000 0.023558 -0.719615
v -0.350000 0.047090 -0.718458
v -0.350000 0.070572 -0.716533
v -0.350000 0.093979 -0.713840
v -0.350000 0.117285 -0.710383
v -0.350000 0.140465 -0.706165
v -0.350000 0.163495 -0.701191
v -0.350000 0.186350 -0.695467
v -0.350000 0.209005 -0.688997
v -0.350000 0.231436 -0.681790
v -0.350000 0.253620 -0.673852
v -0.350000 0.275532 -0.665193
v -0.350000 0.297149 -0.655822
v -0.350000 0.318448 -0.645748
v -0.350000 0.339406 -0.634983
v -0.350000 0.360000 -0.623538
v -0.350000 0.380209 -0.611426
v -0.350000 0.400011 -0.598658
v -0.350000 0.419384 -0.585250
v -0.350000 0.438308 -0.571214
v -0.350000 0.456763 -0.556568
v -0.350000 0.474729 -0.541325
v -0.350000 0.492186 -0.525502
v -0.350000 0.509117 -0.509117
v -0.350000 0.525502 -0.492186
v -0.350000 0.541325 -0.474729
v -0.350000 0.556568 -0.456763
v -0.350000 0.571214 -0.438308
v -0.350000 0.585250 -0.419384
v -0.350000 0.598658 -0.400011
v -0.350000 0.611426 -0.380209
v -0.350000 0.623538 -0.360000
v -0.350000 0.634983 -0.339406
v -0.350000 0.645748 -0.318448
v -0.350000 0.655822 -0.297149
v -0.350000 0.665193 -0.275532
v -0.350000 0.673852 -0.253620
v -0.350000 0.681790 -0.231436
v -0.350000 0.688997 -0.209005
v -0.350000 0.695467 -0.186350
v -0.350000 0.701191 -0.163495
v -0.350000 0.706165 -0.140465
v -0.350000 0.710383 -0.117285
v -0.350000 0.713840 -0.093979
v -0.350000 0.716533 -0.070572
v -0.350000 0.718458 -0.047090
v -0.350000 0.719615 -0.023558
v 0.350000 0.720000 0.000000
v 0.350000 0.719615 0.023558
v 0.350000 0.718458 0.047090
v 0.350000 0.716533 0.070572
v 0.350000 0.713840 0.093979
v 0.350000 0.710383 0.117285
v 0.350000 0.706165 0.140465
v 0.350000 0.701191 0.163495
v 0.350000 0.695467 0.186350
v 0.350000 0.688997 0.209005
v 0.350000 0.681790 0.231436
v 0.350000 0.673852 0.253620
v 0.350000 0.665193 0.275532
v 0.350000 0.655822 0.297149
v 0.350000 0.645748 0.318448
v 0.350000 0.634983 0.339406
v 0.350000 0.623538 0.360000
v 0.350000 0.611426 0.380209
v 0.350000 0.598658 0.400011
v 0.350000 0.585250 0.419384
v 0.350000 0.571214 0.438308
v 0.350000 0.556568 0.456763
v 0.350000 0.541325 0.474729
v 0.350000 0.525502 0.492186
v 0.350000 0.509117 0.509117
v 0.350000 0.492186 0.525502
v 0.350000 0.474729 0.541325
v 0.350000 0.456763 0.556568
v 0.350000 0.438308 0.571214
v 0.350000 0.419384 0.585250
v 0.350000 0.400011 0.598658
v 0.350000 0.380209 0.611426
v 0.350000 0.360000 0.623538
v 0.350000 0.339406 0.634983
v 0.350000 0.318448 0.645748
v 0.350000 0.297149 0.655822
v 0.350000 0.275532 0.665193
v 0.350000 0.253620 0.673852
v 0.350000 0.231436 0.681790
v 0.350000 0.209005 0.688997
v 0.350000 0.186350 0.695467
v 0.350000 0.163495 0.701191
v 0.350000 0.140465 0.706165
v 0.350000 0.117285 0.710383
v 0.350000 0.093979 0.713840
v 0.350000 0.070572 0.716533
v 0.350000 0.047090 0.718458
v 0.350000 0.023558 0.719615
v 0.350000 0.000000 0.720000
v 0.350000 -0.023558 0.719615
v 0.350000 -0.047090 0.718458
v 0.350000 -0.070572 0.716533
v 0.350000 -0.093979 0.713840
v 0.350000 -0.117285 0.710383
v 0.350000 -0.140465 0.706165
v 0.350000 -0.163495 0.701191
v 0.350000 -0.186350 0.695467
v 0.350000 -0.209005 0.688997
v 0.350000 -0.231436 0.681790
v 0.350000 -0.253620 0.673852
v 0.350000 -0.275532 0.665193
v 0.350000 -0.297149 0.655822
v 0.350000 -0.318448 0.645748
v 0.350000 -0.339406 0.634983
v 0.350000 -0.360000 0.623538
v 0.350000 -0.380209 0.611426
v 0.350000 -0.400011 0.598658
v 0.350000 -0.419384 0.585250
v 0.350000 -0.438308 0.571214
v 0.350000 -0.456763 0.556568
v 0.350000 -0.474729 0.541325
v 0.350000 -0.492186 0.525502
v 0.350000 -0.509117 0.509117
v 0.350000 -0.525502 0.492186
v 0.350000 -0.541325 0.474729
v 0.350000 -0.556568 0.456763
v 0.350000 -0.571214 0.438308
v 0.350000 -0.585250 0.419384
v 0.350000 -0.598658 0.400011
v 0.350000 -0.611426 0.380209
v 0.350000 -0.623538 0.360000
v 0.350000 -0.634983 0.339406
v 0.350000 -0.645748 0.318448
v 0.350000 -0.655822 0.297149
v 0.350000 -0.665193 0.275532
v 0.350000 -0.673852 0.253620
v 0.350000 -0.681790 0.231436
v 0.350000 -0.688997 0.209005
v 0.350000 -0.695467 0.186350
v 0.350000 -0.701191 0.163495
v 0.350000 -0.706165 0.140465
v 0.350000 -0.710383 0.117285
v 0.350000 -0.713840 0.093979
v 0.350000 -0.716533 0.070572
v 0.350000 -0.718458 0.047090
v 0.350000 -0.719615 0.023558
v 0.350000 -0.720000 0.000000
v 0.350000 -0.719615 -0.023558
v 0.350000 -0.718458 -0.047090
v 0.350000 -0.716533 -0.070572
v 0.350000 -0.713840 -0.093979
v 0.350000 -0.710383 -0.117285
v 0.350000 -0.706165 -0.140465
v 0.350000 -0.701191 -0.163495
v 0.350000 -0.695467 -0.186350
v 0.350000 -0.688997 -0.209005
v 0.350000 -0.681790 -0.231436
v 0.350000 -0.673852 -0.253620
v 0.350000 -0.665193 -0.275532
v 0.350000 -0.655822 -0.297149
v 0.350000 -0.645748 -0.318448
v 0.350000 -0.634983 -0.339406
v 0.350000 -0.623538 -0.360000
v 0.350000 -0.611426 -0.380209
v 0.350000 -0.598658 -0.400011
v 0.350000 -0.585250 -0.419384
v 0.350000 -0.571214 -0.438308
v 0.350000 -0.556568 -0.456763
v 0.350000 -0.541325 -0.474729
v 0.350000 -0.525502 -0.492186
v 0.350000 -0.509117 -0.509117
v 0.350000 -0.492186 -0.525502
v 0.350000 -0.474729 -0.541325
v 0.350000 -0.456763 -0.556568
v 0.350000 -0.438308 -0.571214
v 0.350000 -0.419384 -0.585250
v 0.350000 -0.400011 -0.598658
v 0.350000 -0.380209 -0.611426
v 0.350000 -0.360000 -0.623538
v 0.350000 -0.339406 -0.634983
v 0.350000 -0.318448 -0.645748
v 0.350000 -0.297149 -0.655822
v 0.350000 -0.275532 -0.665193
v 0.350000 -0.253620 -0.673852
v 0.350000 -0.231436 -0.681790
v 0.350000 -0.209005 -0.688997
v 0.350000 -0.186350 -0.695467
v 0.350000 -0.163495 -0.701191
v 0.350000 -0.140465 -0.706165
v 0.350000 -0.117285 -0.710383
v 0.350000 -0.093979 -0.713840
v 0.350000 -0.070572 -0.716533
v 0.350000 -0.047090 -0.718458
v 0.350000 -0.023558 -0.719615
v 0.350000 -0.000000 -0.720000
v 0.350000 0.023558 -0.719615
v 0.350000 0.047090 -0.718458
v 0.350000 0.070572 -0.716533
v 0.350000 0.093979 -0.713840
v 0.350000 0.117285 -0.710383
v 0.350000 0.140465 -0.706165
v 0.350000 0.163495 -0.701191
v 0.350000 0.186350 -0.695467
v 0.350000 0.209005 -0.688997
v 0.350000 0.231436 -0.681790
v 0.350000 0.253620 -0.673852
v 0.350000 0.275532 -0.665193
v 0.350000 0.297149 -0.655822
v 0.350000 0.318448 -0.645748
v 0.350000 0.339406 -0.634983
v 0.350000 0.360000 -0.623538
v 0.350000 0.380209 -0.611426
v 0.350000 0.400011 -0.598658
v 0.350000 0.419384 -0.585250
v 0.350000 0.438308 -0.571214
v 0.350000 0.456763 -0.556568
v 0.350000 0.474729 -0.541325
v 0.350000 0.492186 -0.525502
v 0.350000 0.509117 -0.509117
v 0.350000 0.525502 -0.492186
v 0.350000 0.541325 -0.474729
v 0.350000 0.556568 -0.456763
v 0.350000 0.571214 -0.438308
v 0.350000 0.585250 -0.419384
v 0.350000 0.598658 -0.400011
v 0.350000 0.611426 -0.380209
v 0.350000 0.623538 -0.360000
v 0.350000 0.634983 -0.339406
v 0.350000 0.645748 -0.318448
v 0.350000 0.655822 -0.297149
v 0.350000 0.665193 -0.275532
v 0.350000 0.673852 -0.253620
v 0.350000 0.681790 -0.231436
v 0.350000 0.688997 -0.209005
v 0.350000 0.695467 -0.186350
v 0.350000 0.701191 -0.163495
v 0.350000 0.706165 -0.140465
v 0.350000 0.710383 -0.117285
v 0.350000 0.713840 -0.093979
v 0.350000 0.716533 -0.070572
v 0.350000 0.718458 -0.047090
v 0.350000 0.719615 -0.023558
v 0.070000 0.997723 0.023513
v 0.330000 0.997992 0.003919
v 0.330000 0.983139 0.171585
v 0.070000 0.989118 0.132855
v 0.070000 1.064704 0.025091
v 0.330000 1.064992 0.004182
v 0.330000 1.049141 0.183104
v 0.070000 1.055521 0.141774
v 0.000000 0.997844 0.017635
v 0.120000 0.993753 0.091969
v 0.000000 0.984133 0.165791
v -0.120000 0.993753 0.091969
v 0.000000 1.049836 0.018554
v 0.120000 1.045532 0.096761
v 0.000000 1.035410 0.174430
v -0.120000 1.045532 0.096761
v -0.070000 0.973965 0.217707
v -0.330000 0.978052 0.198542
v -0.330000 0.930774 0.360089
v -0.070000 0.944193 0.323270
v -0.070000 1.039351 0.232323
v -0.330000 1.043712 0.211871
v -0.330000 0.993261 0.384264
v -0.070000 1.007581 0.344972
v 0.000000 0.975230 0.211966
v 0.120000 0.956716 0.284074
v 0.000000 0.932879 0.354600
v -0.120000 0.956716 0.284074
v 0.000000 1.026044 0.223010
v 0.120000 1.006565 0.298875
v 0.000000 0.981486 0.373076
v -0.120000 1.006565 0.298875
v 0.070000 0.912778 0.403535
v 0.330000 0.920525 0.385536
v 0.330000 0.842639 0.534755
v 0.070000 0.862984 0.501261
v 0.070000 0.974057 0.430626
v 0.330000 0.982324 0.411419
v 0.330000 0.899209 0.570656
v 0.070000 0.920920 0.534913
v 0.000000 0.915139 0.398151
v 0.120000 0.882913 0.465261
v 0.000000 0.845775 0.529782
v -0.120000 0.882913 0.465261
v 0.000000 0.962822 0.418897
v 0.120000 0.928917 0.489503
v 0.000000 0.889843 0.557386
v -0.120000 0.928917 0.489503
v -0.070000 0.816513 0.573855
v -0.330000 0.827623 0.557713
v -0.330000 0.722123 0.688871
v -0.070000 0.748611 0.659989
v -0.070000 0.871329 0.612381
v -0.330000 0.883185 0.595155
v -0.330000 0.770602 0.735118
v -0.070000 0.798868 0.704297
v 0.000000 0.819880 0.569036
v 0.120000 0.775180 0.628569
v 0.000000 0.726168 0.684605
v -0.120000 0.775180 0.628569
v 0.000000 0.862599 0.598685
v 0.120000 0.815571 0.661320
v 0.000000 0.764004 0.720276
v -0.120000 0.815571 0.661320
v 0.070000 0.688871 0.722123
v 0.330000 0.702916 0.708458
v 0.330000 0.573855 0.816513
v 0.070000 0.605469 0.793354
v 0.070000 0.735118 0.770602
v 0.330000 0.750106 0.756020
v 0.330000 0.612381 0.871329
v 0.070000 0.646117 0.846616
v 0.000000 0.693112 0.718052
v 0.120000 0.637658 0.767722
v 0.000000 0.578655 0.813119
v -0.120000 0.637658 0.767722
v 0.000000 0.729226 0.755466
v 0.120000 0.670882 0.807723
v 0.000000 0.608805 0.855486
v -0.120000 0.670882 0.807723
v -0.070000 0.534755 0.842639
v -0.330000 0.551196 0.831978
v -0.330000 0.403535 0.912778
v -0.070000 0.439059 0.896232
v -0.070000 0.570656 0.899209
v -0.330000 0.588200 0.887832
v -0.330000 0.430626 0.974057
v -0.070000 0.468535 0.956399
v 0.000000 0.539709 0.839475
v 0.120000 0.475630 0.877371
v 0.000000 0.408905 0.910385
v -0.120000 0.475630 0.877371
v 0.000000 0.567831 0.883215
v 0.120000 0.500413 0.923086
v 0.000000 0.430210 0.957820
v -0.120000 0.500413 0.923086
v 0.070000 0.360089 0.930774
v 0.330000 0.378294 0.923524
v 0.330000 0.217707 0.973965
v 0.070000 0.255777 0.964667
v 0.070000 0.384264 0.993261
v 0.330000 0.403691 0.985525
v 0.330000 0.232323 1.039351
v 0.070000 0.272948 1.029429
v 0.000000 0.365566 0.928637
v 0.120000 0.295325 0.953303
v 0.000000 0.223440 0.972666
v -0.120000 0.295325 0.953303
v 0.000000 0.384613 0.977022
v 0.120000 0.310712 1.002975
v 0.000000 0.235082 1.023346
v -0.120000 0.310712 1.002975
v -0.070000 0.171585 0.983139
v -0.330000 0.190855 0.979581
v -0.330000 0.023513 0.997723
v -0.070000 0.062665 0.996031
v -0.070000 0.183104 1.049141
v -0.330000 0.203668 1.045344
v -0.330000 0.025091 1.064704
v -0.070000 0.066872 1.062898
v 0.000000 0.177373 0.982111
v 0.120000 0.103670 0.992601
v 0.000000 0.029389 0.997567
v -0.120000 0.103670 0.992601
v 0.000000 0.186615 1.033283
v 0.120000 0.109071 1.044320
v 0.000000 0.030921 1.049545
v -0.120000 0.109071 1.044320
v 0.070000 -0.023513 0.997723
v 0.330000 -0.003919 0.997992
v 0.330000 -0.171585 0.983139
v 0.070000 -0.132855 0.989118
v 0.070000 -0.025091 1.064704
v 0.330000 -0.004182 1.064992
v 0.330000 -0.183104 1.049141
v 0.070000 -0.141774 1.055521
v 0.000000 -0.017635 0.997844
v 0.120000 -0.091969 0.993753
v 0.000000 -0.165791 0.984133
v -0.120000 -0.091969 0.993753
v 0.000000 -0.018554 1.049836
v 0.120000 -0.096761 1.045532
v 0.000000 -0.174430 1.035410
v -0.120000 -0.096761 1.045532
v -0.070000 -0.217707 0.973965
v -0.330000 -0.198542 0.978052
v -0.330000 -0.360089 0.930774
v -0.070000 -0.323270 0.944193
v -0.070000 -0.232323 1.039351
v -0.330000 -0.211871 1.043712
v -0.330000 -0.384264 0.993261
v -0.070000 -0.344972 1.007581
v 0.000000 -0.211966 0.975230
v 0.120000 -0.284074 0.956716
v 0.000000 -0.354600 0.932879
v -0.120000 -0.284074 0.956716
v 0.000000 -0.223010 1.026044
v 0.120000 -0.298875 1.006565
v 0.000000 -0.373076 0.981486
v -0.120000 -0.298875 1.006565
v 0.070000 -0.403535 0.912778
v 0.330000 -0.385536 0.920525
v 0.330000 -0.534755 0.842639
v 0.070000 -0.501261 0.862984
v 0.070000 -0.430626 0.974057
v 0.330000 -0.411419 0.982324
v 0.330000 -0.570656 0.899209
v 0.070000 -0.534913 0.920920
v 0.000000 -0.398151 0.915139
v 0.120000 -0.465261 0.882913
v 0.000000 -0.529782 0.845775
v -0.120000 -0.465261 0.882913
v 0.000000 -0.418897 0.962822
v 0.120000 -0.489503 0.928917
v 0.000000 -0.557386 0.889843
v -0.120000 -0.489503 0.928917
v -0.070000 -0.573855 0.816513
v -0.330000 -0.557713 0.827623
v -0.330000 -0.688871 0.722123
v -0.070000 -0.659989 0.748611
v -0.070000 -0.612381 0.871329
v -0.330000 -0.595155 0.883185
v -0.330000 -0.735118 0.770602
v -0.070000 -0.704297 0.798868
v 0.000000 -0.569036 0.819880
v 0.120000 -0.628569 0.775180
v 0.000000 -0.684605 0.726168
v -0.120000 -0.628569 0.775180
v 0.000000 -0.598685 0.862599
v 0.120000 -0.661320 0.815571
v 0.000000 -0.720276 0.764004
v -0.120000 -0.661320 0.815571
v 0.070000 -0.722123 0.688871
v 0.330000 -0.708458 0.702916
v 0.330000 -0.816513 0.573855
v 0.070000 -0.793354 0.605469
v 0.070000 -0.770602 0.735118
v 0.330000 -0.756020 0.750106
v 0.330000 -0.871329 0.612381
v 0.070000 -0.846616 0.646117
v 0.000000 -0.718052 0.693112
v 0.120000 -0.767722 0.637658
v 0.000000 -0.813119 0.578655
v -0.120000 -0.767722 0.637658
v 0.000000 -0.755466 0.729226
v 0.120000 -0.807723 0.670882
v 0.000000 -0.855486 0.608805
v -0.120000 -0.807723 0.670882
v -0.070000 -0.842639 0.534755
v -0.330000 -0.831978 0.551196
v -0.330000 -0.912778 0.403535
v -0.070000 -0.896232 0.439059
v -0.070000 -0.899209 0.570656
v -0.330000 -0.887832 0.588200
v -0.330000 -0.974057 0.430626
v -0.070000 -0.956399 0.468535
v 0.000000 -0.839475 0.539709
v 0.120000 -0.877371 0.475630
v 0.000000 -0.910385 0.408905
v -0.120000 -0.877371 0.475630
v 0.000000 -0.883215 0.567831
v 0.120000 -0.923086 0.500413
v 0.000000 -0.957820 0.430210
v -0.120000 -0.923086 0.500413
v 0.070000 -0.930774 0.360089
v 0.330000 -0.923524 0.378294
v 0.330000 -0.973965 0.217707
v 0.070000 -0.964667 0.255777
v 0.070000 -0.993261 0.384264
v 0.330000 -0.985525 0.403691
v 0.330000 -1.039351 0.232323
v 0.070000 -1.029429 0.272948
v 0.000000 -0.928637 0.365566
v 0.120000 -0.953303 0.295325
v 0.000000 -0.972666 0.223440
v -0.120000 -0.953303 0.295325
v 0.000000 -0.977022 0.384613
v 0.120000 -1.002975 0.310712
v 0.000000 -1.023346 0.235082
v -0.120000 -1.002975 0.310712
v -0.070000 -0.983139 0.171585
v -0.330000 -0.979581 0.190855
v -0.330000 -0.997723 0.023513
v -0.070000 -0.996031 0.062665
v -0.070000 -1.049141 0.183104
v -0.330000 -1.045344 0.203668
v -0.330000 -1.064704 0.025091
v -0.070000 -1.062898 0.066872
v 0.000000 -0.982111 0.177373
v 0.120000 -0.992601 0.103670
v 0.000000 -0.997567 0.029389
v -0.120000 -0.992601 0.103670
v 0.000000 -1.033283 0.186615
v 0.120000 -1.044320 0.109071
v 0.000000 -1.049545 0.030921
v -0.120000 -1.044320 0.109071
v 0.070000 -0.997723 -0.023513
v 0.330000 -0.997992 -0.003919
v 0.330000 -0.983139 -0.171585
v 0.070000 -0.989118 -0.132855
v 0.070000 -1.064704 -0.025091
v 0.330000 -1.064992 -0.004182
v 0.330000 -1.049141 -0.183104
v 0.070000 -1.055521 -0.141774
v 0.000000 -0.997844 -0.017635
v 0.120000 -0.993753 -0.091969
v 0.000000 -0.984133 -0.165791
v -0.120000 -0.993753 -0.091969
v 0.000000 -1.049836 -0.018554
v 0.120000 -1.045532 -0.096761
v 0.000000 -1.035410 -0.174430
v -0.120000 -1.045532 -0.096761
v -0.070000 -0.973965 -0.217707
v -0.330000 -0.978052 -0.198542
v -0.330000 -0.930774 -0.360089
v -0.070000 -0.944193 -0.323270
v -0.070000 -1.039351 -0.232323
v -0.330000 -1.043712 -0.211871
v -0.330000 -0.993261 -0.384264
v -0.070000 -1.007581 -0.344972
v 0.000000 -0.975230 -0.211966
v 0.120000 -0.956716 -0.284074
v 0.000000 -0.932879 -0.354600
v -0.120000 -0.956716 -0.284074
v 0.000000 -1.026044 -0.223010
v 0.120000 -1.006565 -0.298875
v 0.000000 -0.981486 -0.373076
v -0.120000 -1.006565 -0.298875
v 0.070000 -0.912778 -0.403535
v 0.330000 -0.920525 -0.385536
v 0.330000 -0.842639 -0.534755
v 0.070000 -0.862984 -0.501261
v 0.070000 -0.974057 -0.430626
v 0.330000 -0.982324 -0.411419
v 0.330000 -0.899209 -0.570656
v 0.070000 -0.920920 -0.534913
v 0.000000 -0.915139 -0.398151
v 0.120000 -0.882913 -0.465261
v 0.000000 -0.845775 -0.529782
v -0.120000 -0.882913 -0.465261
v 0.000000 -0.962822 -0.418897
v 0.120000 -0.928917 -0.489503
v 0.000000 -0.889843 -0.557386
v -0.120000 -0.928917 -0.489503
v -0.070000 -0.816513 -0.573855
v -0.330000 -0.827623 -0.557713
v -0.330000 -0.722123 -0.688871
v -0.070000 -0.748611 -0.659989
v -0.070000 -0.871329 -0.612381
v -0.330000 -0.883185 -0.595155
v -0.330000 -0.770602 -0.735118
v -0.070000 -0.798868 -0.704297
v 0.000000 -0.819880 -0.569036
v 0.120000 -0.775180 -0.628569
v 0.000000 -0.726168 -0.684605
v -0.120000 -0.775180 -0.628569
v 0.000000 -0.862599 -0.598685
v 0.120000 -0.815571 -0.661320
v 0.000000 -0.764004 -0.720276
v -0.120000 -0.815571 -0.661320
v 0.070000 -0.688871 -0.722123
v 0.330000 -0.702916 -0.708458
v 0.330000 -0.573855 -0.816513
v 0.070000 -0.605469 -0.793354
v 0.070000 -0.735118 -0.770602
v 0.330000 -0.750106 -0.756020
v 0.330000 -0.612381 -0.871329
v 0.070000 -0.646117 -0.846616
v 0.000000 -0.693112 -0.718052
v 0.120000 -0.637658 -0.767722
v 0.000000 -0.578655 -0.813119
v -0.120000 -0.637658 -0.767722
v 0.000000 -0.729226 -0.755466
v 0.120000 -0.670882 -0.807723
v 0.000000 -0.608805 -0.855486
v -0.120000 -0.670882 -0.807723
v -0.070000 -0.534755 -0.842639
v -0.330000 -0.551196 -0.831978
v -0.330000 -0.403535 -0.912778
v -0.070000 -0.439059 -0.896232
v -0.070000 -0.570656 -0.899209
v -0.330000 -0.588200 -0.887832
v -0.330000 -0.430626 -0.974057
v -0.070000 -0.468535 -0.956399
v 0.000000 -0.539709 -0.839475
v 0.120000 -0.475630 -0.877371
v 0.000000 -0.408905 -0.910385
v -0.120000 -0.475630 -0.877371
v 0.000000 -0.567831 -0.883215
v 0.120000 -0.500413 -0.923086
v 0.000000 -0.430210 -0.957820
v -0.120000 -0.500413 -0.923086
v 0.070000 -0.360089 -0.930774
v 0.330000 -0.378294 -0.923524
v 0.330000 -0.217707 -0.973965
v 0.070000 -0.255777 -0.964667
v 0.070000 -0.384264 -0.993261
v 0.330000 -0.403691 -0.985525
v 0.330000 -0.232323 -1.039351
v 0.070000 -0.272948 -1.029429
v 0.000000 -0.365566 -0.928637
v 0.120000 -0.295325 -0.953303
v 0.000000 -0.223440 -0.972666
v -0.120000 -0.295325 -0.953303
v 0.000000 -0.384613 -0.977022
v 0.120000 -0.310712 -1.002975
v 0.000000 -0.235082 -1.023346
v -0.120000 -0.310712 -1.002975
v -0.070000 -0.171585 -0.983139
v -0.330000 -0.190855 -0.979581
v -0.330000 -0.023513 -0.997723
v -0.070000 -0.062665 -0.996031
v -0.070000 -0.183104 -1.049141
v -0.330000 -0.203668 -1.045344
v -0.330000 -0.025091 -1.064704
v -0.070000 -0.066872 -1.062898
v 0.000000 -0.177373 -0.982111
v 0.120000 -0.103670 -0.992601
v 0.000000 -0.029389 -0.997567
v -0.120000 -0.103670 -0.992601
v 0.000000 -0.186615 -1.033283
v 0.120000 -0.109071 -1.044320
v 0.000000 -0.030921 -1.049545
v -0.120000 -0.109071 -1.044320
v 0.070000 0.023513 -0.997723
v 0.330000 0.003919 -0.997992
v 0.330000 0.171585 -0.983139
v 0.070000 0.132855 -0.989118
v 0.070000 0.025091 -1.064704
v 0.330000 0.004182 -1.064992
v 0.330000 0.183104 -1.049141
v 0.070000 0.141774 -1.055521
v 0.000000 0.017635 -0.997844
v 0.120000 0.091969 -0.993753
v 0.000000 0.165791 -0.984133
v -0.120000 0.091969 -0.993753
v 0.000000 0.018554 -1.049836
v 0.120000 0.096761 -1.045532
v 0.000000 0.174430 -1.035410
v -0.120000 0.096761 -1.045532
v -0.070000 0.217707 -0.973965
v -0.330000 0.198542 -0.978052
v -0.330000 0.360089 -0.930774
v -0.070000 0.323270 -0.944193
v -0.070000 0.232323 -1.039351
v -0.330000 0.211871 -1.043712
v -0.330000 0.384264 -0.993261
v -0.070000 0.344972 -1.007581
v 0.000000 0.211966 -0.975230
v 0.120000 0.284074 -0.956716
v 0.000000 0.354600 -0.932879
v -0.120000 0.284074 -0.956716
v 0.000000 0.223010 -1.026044
v 0.120000 0.298875 -1.006565
v 0.000000 0.373076 -0.981486
v -0.120000 0.298875 -1.006565
v 0.070000 0.403535 -0.912778
v 0.330000 0.385536 -0.920525
v 0.330000 0.534755 -0.842639
v 0.070000 0.501261 -0.862984
v 0.070000 0.430626 -0.974057
v 0.330000 0.411419 -0.982324
v 0.330000 0.570656 -0.899209
v 0.070000 0.534913 -0.920920
v 0.000000 0.398151 -0.915139
v 0.120000 0.465261 -0.882913
v 0.000000 0.529782 -0.845775
v -0.120000 0.465261 -0.882913
v 0.000000 0.418897 -0.962822
v 0.120000 0.489503 -0.928917
v 0.000000 0.557386 -0.889843
v -0.120000 0.489503 -0.928917
v -0.070000 0.573855 -0.816513
v -0.330000 0.557713 -0.827623
v -0.330000 0.688871 -0.722123
v -0.070000 0.659989 -0.748611
v -0.070000 0.612381 -0.871329
v -0.330000 0.595155 -0.883185
v -0.330000 0.735118 -0.770602
v -0.070000 0.704297 -0.798868
v 0.000000 0.569036 -0.819880
v 0.120000 0.628569 -0.775180
v 0.000000 0.684605 -0.726168
v -0.120000 0.628569 -0.775180
v 0.000000 0.598685 -0.862599
v 0.120000 0.661320 -0.815571
v 0.000000 0.720276 -0.764004
v -0.120000 0.661320 -0.815571
v 0.070000 0.722123 -0.688871
v 0.330000 0.708458 -0.702916
v 0.330000 0.816513 -0.573855
v 0.070000 0.793354 -0.605469
v 0.070000 0.770602 -0.735118
v 0.330000 0.756020 -0.750106
v 0.330000 0.871329 -0.612381
v 0.070000 0.846616 -0.646117
v 0.000000 0.718052 -0.693112
v 0.120000 0.767722 -0.637658
v 0.000000 0.813119 -0.578655
v -0.120000 0.767722 -0.637658
v 0.000000 0.755466 -0.729226
v 0.120000 0.807723 -0.670882
v 0.000000 0.855486 -0.608805
v -0.120000 0.807723 -0.670882
v -0.070000 0.842639 -0.534755
v -0.330000 0.831978 -0.551196
v -0.330000 0.912778 -0.403535
v -0.070000 0.896232 -0.439059
v -0.070000 0.899209 -0.570656
v -0.330000 0.887832 -0.588200
v -0.330000 0.974057 -0.430626
v -0.070000 0.956399 -0.468535
v 0.000000 0.839475 -0.539709
v 0.120000 0.877371 -0.475630
v 0.000000 0.910385 -0.408905
v -0.120000 0.877371 -0.475630
v 0.000000 0.883215 -0.567831
v 0.120000 0.923086 -0.500413
v 0.000000 0.957820 -0.430210
v -0.120000 0.923086 -0.500413
v 0.070000 0.930774 -0.360089
v 0.330000 0.923524 -0.378294
v 0.330000 0.973965 -0.217707
v 0.070000 0.964667 -0.255777
v 0.070000 0.993261 -0.384264
v 0.330000 0.985525 -0.403691
v 0.330000 1.039351 -0.232323
v 0.070000 1.029429 -0.272948
v 0.000000 0.928637 -0.365566
v 0.120000 0.953303 -0.295325
v 0.000000 0.972666 -0.223440
v -0.120000 0.953303 -0.295325
v 0.000000 0.977022 -0.384613
v 0.120000 1.002975 -0.310712
v 0.000000 1.023346 -0.235082
v -0.120000 1.002975 -0.310712
v -0.070000 0.983139 -0.171585
v -0.330000 0.979581 -0.190855
v -0.330000 0.997723 -0.023513
v -0.070000 0.996031 -0.062665
v -0.070000 1.049141 -0.183104
v -0.330000 1.045344 -0.203668
v -0.330000 1.064704 -0.025091
v -0.070000 1.062898 -0.066872
v 0.000000 0.982111 -0.177373
v 0.120000 0.992601 -0.103670
v 0.000000 0.997567 -0.029389
v -0.120000 0.992601 -0.103670
v 0.000000 1.033283 -0.186615
v 0.120000 1.044320 -0.109071
v 0.000000 1.049545 -0.030921
v -0.120000 1.044320 -0.109071
f 1 2 194 193
f 385 577 578 386
f 1 2 386 385
f 193 577 578 194
f 2 3 195 194
f 386 578 579 387
f 2 3 387 386
f 194 578 579 195
f 3 4 196 195
f 387 579 580 388
f 3 4 388 387
f 195 579 580 196
f 4 5 197 196
f 388 580 581 389
f 4 5 389 388
f 196 580 581 197
f 5 6 198 197
f 389 581 582 390
f 5 6 390 389
f 197 581 582 198
f 6 7 199 198
f 390 582 583 391
f 6 7 391 390
f 198 582 583 199
f 7 8 200 199
f 391 583 584 392
f 7 8 392 391
f 199 583 584 200
f 8 9 201 200
f 392 584 585 393
f 8 9 393 392
f 200 584 585 201
f 9 10 202 201
f 393 585 586 394
f 9 10 394 393
f 201 585 586 202
f 10 11 203 202
f 394 586 587 395
f 10 11 395 394
f 202 586 587 203
f 11 12 204 203
f 395 587 588 396
f 11 12 396 395
f 203 587 588 204
f 12 13 205 204
f 396 588 589 397
f 12 13 397 396
f 204 588 589 205
f 13 14 206 205
f 397 589 590 398
f 13 14 398 397
f 205 589 590 206
f 14 15 207 206
f 398 590 591 399
f 14 15 399 398
f 206 590 591 207
f 15 16 208 207
f 399 591 592 400
f 15 16 400 399
f 207 591 592 208
f 16 17 209 208
f 400 592 593 401
f 16 17 401 400
f 208 592 593 209
f 17 18 210 209
f 401 593 594 402
f 17 18 402 401
f 209 593 594 210
f 18 19 211 210
f 402 594 595 403
f 18 19 403 402
f 210 594 595 211
f 19 20 212 211
f 403 595 596 404
f 19 20 404 403
f 211 595 596 212
f 20 21 213 212
f 404 596 597 405
f 20 21 405 404
f 212 596 597 213
f 21 22 214 213
f 405 597 598 406
f 21 22 406 405
f 213 597 598 214
f 22 23 215 214
f 406 598 599 407
f 22 23 407 406
f 214 598 599 215
f 23 24 216 215
f 407 599 600 408
f 23 24 408 407
f 215 599 600 216
f 24 25 217 216
f 408 600 601 409
f 24 25 409 408
f 216 600 601 217
f 25 26 218 217
f 409 601 602 410
f 25 26 410 409
f 217 601 602 218
f 26 27 219 218
f 410 602 603 411
f 26 27 411 410
f 218 602 603 219
f 27 28 220 219
f 411 603 604 412
f 27 28 412 411
f 219 603 604 220
f 28 29 221 220
f 412 604 605 413
f 28 29 413 412
f 220 604 605 221
f 29 30 222 221
f 413 605 606 414
f 29 30 414 413
f 221 605 606 222
f 30 31 223 222
f 414 606 607 415
f 30 31 415 414
f 222 606 607 223
f 31 32 224 223
f 415 607 608 416
f 31 32 416 415
f 223 607 608 224
f 32 33 225 224
f 416 608 609 417
f 32 33 417 416
f 224 608 609 225
f 33 34 226 225
f 417 609 610 418
f 33 34 418 417
f 225 609 610 226
f 34 35 227 226
f 418 610 611 419
f 34 35 419 418
f 226 610 611 227
f 35 36 228 227
f 419 611 612 420
f 35 36 420 419
f 227 611 612 228
f 36 37 229 228
f 420 612 613 421
f 36 37 421 420
f 228 612 613 229
f 37 38 230 229
f 421 613 614 422
f 37 38 422 421
f 229 613 614 230
f 38 39 231 230
f 422 614 615 423
f 38 39 423 422
f 230 614 615 231
f 39 40 232 231
f 423 615 616 424
f 39 40 424 423
f 231 615 616 232
f 40 41 233 232
f 424 616 617 425
f 40 41 425 424
f 232 616 617 233
f 41 42 234 233
f 425 617 618 426
f 41 42 426 425
f 233 617 618 234
f 42 43 235 234
f 426 618 619 427
f 42 43 427 426
f 234 618 619 235
f 43 44 236 235
f 427 619 620 428
f 43 44 428 427
f 235 619 620 236
f 44 45 237 236
f 428 620 621 429
f 44 45 429 428
f 236 620 621 237
f 45 46 238 237
f 429 621 622 430
f 45 46 430 429
f 237 621 622 238
f 46 47 239 238
f 430 622 623 431
f 46 47 431 430
f 238 622 623 239
f 47 48 240 239
f 431 623 624 432
f 47 48 432 431
f 239 623 624 240
f 48 49 241 240
f 432 624 625 433
f 48 49 433 432
f 240 624 625 241
f 49 50 242 241
f 433 625 626 434
f 49 50 434 433
f 241 625 626 242
f 50 51 243 242
f 434 626 627 435
f 50 51 435 434
f 242 626 627 243
f 51 52 244 243
f 435 627 628 436
f 51 52 436 435
f 243 627 628 244
f 52 53 245 244
f 436 628 629 437
f 52 53 437 436
f 244 628 629 245
f 53 54 246 245
f 437 629 630 438
f 53 54 438 437
f 245 629 630 246
f 54 55 247 246
f 438 630 631 439
f 54 55 439 438
f 246 630 631 247
f 55 56 248 247
f 439 631 632 440
f 55 56 440 439
f 247 631 632 248
f 56 57 249 248
f 440 632 633 441
f 56 57 441 440
f 248 632 633 249
f 57 58 250 249
f 441 633 634 442
f 57 58 442 441
f 249 633 634 250
f 58 59 251 250
f 442 634 635 443
f 58 59 443 442
f 250 634 635 251
f 59 60 252 251
f 443 635 636 444
f 59 60 444 443
f 251 635 636 252
f 60 61 253 252
f 444 636 637 445
f 60 61 445 444
f 252 636 637 253
f 61 62 254 253
f 445 637 638 446
f 61 62 446 445
f 253 637 638 254
f 62 63 255 254
f 446 638 639 447
f 62 63 447 446
f 254 638 639 255
f 63 64 256 255
f 447 639 640 448
f 63 64 448 447
f 255 639 640 256
f 64 65 257 256
f 448 640 641 449
f 64 65 449 448
f 256 640 641 257
f 65 66 258 257
f 449 641 642 450
f 65 66 450 449
f 257 641 642 258
f 66 67 259 258
f 450 642 643 451
f 66 67 451 450
f 258 642 643 259
f 67 68 260 259
f 451 643 644 452
f 67 68 452 451
f 259 643 644 260
f 68 69 261 260
f 452 644 645 453
f 68 69 453 452
f 260 644 645 261
f 69 70 262 261
f 453 645 646 454
f 69 70 454 453
f 261 645 646 262
f 70 71 263 262
f 454 646 647 455
f 70 71 455 454
f 262 646 647 263
f 71 72 264 263
f 455 647 648 456
f 71 72 456 455
f 263 647 648 264
f 72 73 265 264
f 456 648 649 457
f 72 73 457 456
f 264 648 649 265
f 73 74 266 265
f 457 649 650 458
f 73 74 458 457
f 265 649 650 266
f 74 75 267 266
f 458 650 651 459
f 74 75 459 458
f 266 650 651 267
f 75 76 268 267
f 459 651 652 460
f 75 76 460 459
f 267 651 652 268
f 76 77 269 268
f 460 652 653 461
f 76 77 461 460
f 268 652 653 269
f 77 78 270 269
f 461 653 654 462
f 77 78 462 461
f 269 653 654 270
f 78 79 271 270
f 462 654 655 463
f 78 79 463 462
f 270 654 655 271
f 79 80 272 271
f 463 655 656 464
f 79 80 464 463
f 271 655 656 272
f 80 81 273 272
f 464 656 657 465
f 80 81 465 464
f 272 656 657 273
f 81 82 274 273
f 465 657 658 466
f 81 82 466 465
f 273 657 658 274
f 82 83 275 274
f 466 658 659 467
f 82 83 467 466
f 274 658 659 275
f 83 84 276 275
f 467 659 660 468
f 83 84 468 467
f 275 659 660 276
f 84 85 277 276
f 468 660 661 469
f 84 85 469 468
f 276 660 661 277
f 85 86 278 277
f 469 661 662 470
f 85 86 470 469
f 277 661 662 278
f 86 87 279 278
f 470 662 663 471
f 86 87 471 470
f 278 662 663 279
f 87 88 280 279
f 471 663 664 472
f 87 88 472 471
f 279 663 664 280
f 88 89 281 280
f 472 664 665 473
f 88 89 473 472
f 280 664 665 281
f 89 90 282 281
f 473 665 666 474
f 89 90 474 473
f 281 665 666 282
f 90 91 283 282
f 474 666 667 475
f 90 91 475 474
f 282 666 667 283
f 91 92 284 283
f 475 667 668 476
f 91 92 476 475
f 283 667 668 284
f 92 93 285 284
f 476 668 669 477
f 92 93 477 476
f 284 668 669 285
f 93 94 286 285
f 477 669 670 478
f 93 94 478 477
f 285 669 670 286
f 94 95 287 286
f 478 670 671 479
f 94 95 479 478
f 286 670 671 287
f 95 96 288 287
f 479 671 672 480
f 95 96 480 479
f 287 671 672 288
f 96 97 289 288
f 480 672 673 481
f 96 97 481 480
f 288 672 673 289
f 97 98 290 289
f 481 673 674 482
f 97 98 482 481
f 289 673 674 290
f 98 99 291 290
f 482 674 675 483
f 98 99 483 482
f 290 674 675 291
f 99 100 292 291
f 483 675 676 484
f 99 100 484 483
f 291 675 676 292
f 100 101 293 292
f 484 676 677 485
f 100 101 485 484
f 292 676 677 293
f 101 102 294 293
f 485 677 678 486
f 101 102 486 485
f 293 677 678 294
f 102 103 295 294
f 486 678 679 487
f 102 103 487 486
f 294 678 679 295
f 103 104 296 295
f 487 679 680 488
f 103 104 488 487
f 295 679 680 296
f 104 105 297 296
f 488 680 681 489
f 104 105 489 488
f 296 680 681 297
f 105 106 298 297
f 489 681 682 490
f 105 106 490 489
f 297 681 682 298
f 106 107 299 298
f 490 682 683 491
f 106 107 491 490
f 298 682 683 299
f 107 108 300 299
f 491 683 684 492
f 107 108 492 491
f 299 683 684 300
f 108 109 301 300
f 492 684 685 493
f 108 109 493 492
f 300 684 685 301
f 109 110 302 301
f 493 685 686 494
f 109 110 494 493
f 301 685 686 302
f 110 111 303 302
f 494 686 687 495
f 110 111 495 494
f 302 686 687 303
f 111 112 304 303
f 495 687 688 496
f 111 112 496 495
f 303 687 688 304
f 112 113 305 304
f 496 688 689 497
f 112 113 497 496
f 304 688 689 305
f 113 114 306 305
f 497 689 690 498
f 113 114 498 497
f 305 689 690 306
f 114 115 307 306
f 498 690 691 499
f 114 115 499 498
f 306 690 691 307
f 115 116 308 307
f 499 691 692 500
f 115 116 500 499
f 307 691 692 308
f 116 117 309 308
f 500 692 693 501
f 116 117 501 500
f 308 692 693 309
f 117 118 310 309
f 501 693 694 502
f 117 118 502 501
f 309 693 694 310
f 118 119 311 310
f 502 694 695 503
f 118 119 503 502
f 310 694 695 311
f 119 120 312 311
f 503 695 696 504
f 119 120 504 503
f 311 695 696 312
f 120 121 313 312
f 504 696 697 505
f 120 121 505 504
f 312 696 697 313
f 121 122 314 313
f 505 697 698 506
f 121 122 506 505
f 313 697 698 314
f 122 123 315 314
f 506 698 699 507
f 122 123 507 506
f 314 698 699 315
f 123 124 316 315
f 507 699 700 508
f 123 124 508 507
f 315 699 700 316
f 124 125 317 316
f 508 700 701 509
f 124 125 509 508
f 316 700 701 317
f 125 126 318 317
f 509 701 702 510
f 125 126 510 509
f 317 701 702 318
f 126 127 319 318
f 510 702 703 511
f 126 127 511 510
f 318 702 703 319
f 127 128 320 319
f 511 703 704 512
f 127 128 512 511
f 319 703 704 320
f 128 129 321 320
f 512 704 705 513
f 128 129 513 512
f 320 704 705 321
f 129 130 322 321
f 513 705 706 514
f 129 130 514 513
f 321 705 706 322
f 130 131 323 322
f 514 706 707 515
f 130 131 515 514
f 322 706 707 323
f 131 132 324 323
f 515 707 708 516
f 131 132 516 515
f 323 707 708 324
f 132 133 325 324
f 516 708 709 517
f 132 133 517 516
f 324 708 709 325
f 133 134 326 325
f 517 709 710 518
f 133 134 518 517
f 325 709 710 326
f 134 135 327 326
f 518 710 711 519
f 134 135 519 518
f 326 710 711 327
f 135 136 328 327
f 519 711 712 520
f 135 136 520 519
f 327 711 712 328
f 136 137 329 328
f 520 712 713 521
f 136 137 521 520
f 328 712 713 329
f 137 138 330 329
f 521 713 714 522
f 137 138 522 521
f 329 713 714 330
f 138 139 331 330
f 522 714 715 523
f 138 139 523 522
f 330 714 715 331
f 139 140 332 331
f 523 715 716 524
f 139 140 524 523
f 331 715 716 332
f 140 141 333 332
f 524 716 717 525
f 140 141 525 524
f 332 716 717 333
f 141 142 334 333
f 525 717 718 526
f 141 142 526 525
f 333 717 718 334
f 142 143 335 334
f 526 718 719 527
f 142 143 527 526
f 334 718 719 335
f 143 144 336 335
f 527 719 720 528
f 143 144 528 527
f 335 719 720 336
f 144 145 337 336
f 528 720 721 529
f 144 145 529 528
f 336 720 721 337
f 145 146 338 337
f 529 721 722 530
f 145 146 530 529
f 337 721 722 338
f 146 147 339 338
f 530 722 723 531
f 146 147 531 530
f 338 722 723 339
f 147 148 340 339
f 531 723 724 532
f 147 148 532 531
f 339 723 724 340
f 148 149 341 340
f 532 724 725 533
f 148 149 533 532
f 340 724 725 341
f 149 150 342 341
f 533 725 726 534
f 149 150 534 533
f 341 725 726 342
f 150 151 343 342
f 534 726 727 535
f 150 151 535 534
f 342 726 727 343
f 151 152 344 343
f 535 727 728 536
f 151 152 536 535
f 343 727 728 344
f 152 153 345 344
f 536 728 729 537
f 152 153 537 536
f 344 728 729 345
f 153 154 346 345
f 537 729 730 538
f 153 154 538 537
f 345 729 730 346
f 154 155 347 346
f 538 730 731 539
f 154 155 539 538
f 346 730 731 347
f 155 156 348 347
f 539 731 732 540
f 155 156 540 539
f 347 731 732 348
f 156 157 349 348
f 540 732 733 541
f 156 157 541 540
f 348 732 733 349
f 157 158 350 349
f 541 733 734 542
f 157 158 542 541
f 349 733 734 350
f 158 159 351 350
f 542 734 735 543
f 158 159 543 542
f 350 734 735 351
f 159 160 352 351
f 543 735 736 544
f 159 160 544 543
f 351 735 736 352
f 160 161 353 352
f 544 736 737 545
f 160 161 545 544
f 352 736 737 353
f 161 162 354 353
f 545 737 738 546
f 161 162 546 545
f 353 737 738 354
f 162 163 355 354
f 546 738 739 547
f 162 163 547 546
f 354 738 739 355
f 163 164 356 355
f 547 739 740 548
f 163 164 548 547
f 355 739 740 356
f 164 165 357 356
f 548 740 741 549
f 164 165 549 548
f 356 740 741 357
f 165 166 358 357
f 549 741 742 550
f 165 166 550 549
f 357 741 742 358
f 166 167 359 358
f 550 742 743 551
f 166 167 551 550
f 358 742 743 359
f 167 168 360 359
f 551 743 744 552
f 167 168 552 551
f 359 743 744 360
f 168 169 361 360
f 552 744 745 553
f 168 169 553 552
f 360 744 745 361
f 169 170 362 361
f 553 745 746 554
f 169 170 554 553
f 361 745 746 362
f 170 171 363 362
f 554 746 747 555
f 170 171 555 554
f 362 746 747 363
f 171 172 364 363
f 555 747 748 556
f 171 172 556 555
f 363 747 748 364
f 172 173 365 364
f 556 748 749 557
f 172 173 557 556
f 364 748 749 365
f 173 174 366 365
f 557 749 750 558
f 173 174 558 557
f 365 749 750 366
f 174 175 367 366
f 558 750 751 559
f 174 175 559 558
f 366 750 751 367
f 175 176 368 367
f 559 751 752 560
f 175 176 560 559
f 367 751 752 368
f 176 177 369 368
f 560 752 753 561
f 176 177 561 560
f 368 752 753 369
f 177 178 370 369
f 561 753 754 562
f 177 178 562 561
f 369 753 754 370
f 178 179 371 370
f 562 754 755 563
f 178 179 563 562
f 370 754 755 371
f 179 180 372 371
f 563 755 756 564
f 179 180 564 563
f 371 755 756 372
f 180 181 373 372
f 564 756 757 565
f 180 181 565 564
f 372 756 757 373
f 181 182 374 373
f 565 757 758 566
f 181 182 566 565
f 373 757 758 374
f 182 183 375 374
f 566 758 759 567
f 182 183 567 566
f 374 758 759 375
f 183 184 376 375
f 567 759 760 568
f 183 184 568 567
f 375 759 760 376
f 184 185 377 376
f 568 760 761 569
f 184 185 569 568
f 376 760 761 377
f 185 186 378 377
f 569 761 762 570
f 185 186 570 569
f 377 761 762 378
f 186 187 379 378
f 570 762 763 571
f 186 187 571 570
f 378 762 763 379
f 187 188 380 379
f 571 763 764 572
f 187 188 572 571
f 379 763 764 380
f 188 189 381 380
f 572 764 765 573
f 188 189 573 572
f 380 764 765 381
f 189 190 382 381
f 573 765 766 574
f 189 190 574 573
f 381 765 766 382
f 190 191 383 382
f 574 766 767 575
f 190 191 575 574
f 382 766 767 383
f 191 192 384 383
f 575 767 768 576
f 191 192 576 575
f 383 767 768 384
f 192 1 193 384
f 576 768 577 385
f 192 1 385 576
f 384 768 577 193
f 776 775 774 773
f 769 770 771 772
f 772 771 775 776
f 771 770 774 775
f 770 769 773 774
f 769 772 776 773
f 784 783 782 781
f 777 778 779 780
f 780 779 783 784
f 779 778 782 783
f 778 777 781 782
f 777 780 784 781
f 789 790 791 792
f 788 787 786 785
f 785 786 790 789
f 786 787 791 790
f 787 788 792 791
f 788 785 789 792
f 800 799 798 797
f 793 794 795 796
f 796 795 799 800
f 795 794 798 799
f 794 793 797 798
f 793 796 800 797
f 808 807 806 805
f 801 802 803 804
f 804 803 807 808
f 803 802 806 807
f 802 801 805 806
f 801 804 808 805
f 816 815 814 813
f 809 810 811 812
f 812 811 815 816
f 811 810 814 815
f 810 809 813 814
f 809 812 816 813
f 821 822 823 824
f 820 819 818 817
f 817 818 822 821
f 818 819 823 822
f 819 820 824 823
f 820 817 821 824
f 832 831 830 829
f 825 826 827 828
f 828 827 831 832
f 827 826 830 831
f 826 825 829 830
f 825 828 832 829
f 840 839 838 837
f 833 834 835 836
f 836 835 839 840
f 835 834 838 839
f 834 833 837 838
f 833 836 840 837
f 848 847 846 845
f 841 842 843 844
f 844 843 847 848
f 843 842 846 847
f 842 841 845 846
f 841 844 848 845
f 853 854 855 856
f 852 851 850 849
f 849 850 854 853
f 850 851 855 854
f 851 852 856 855
f 852 849 853 856
f 864 863 862 861
f 857 858 859 860
f 860 859 863 864
f 859 858 862 863
f 858 857 861 862
f 857 860 864 861
f 872 871 870 869
f 865 866 867 868
f 868 867 871 872
f 867 866 870 871
f 866 865 869 870
f 865 868 872 869
f 880 879 878 877
f 873 874 875 876
f 876 875 879 880
f 875 874 878 879
f 874 873 877 878
f 873 876 880 877
f 885 886 887 888
f 884 883 882 881
f 881 882 886 885
f 882 883 887 886
f 883 884 888 887
f 884 881 885 888
f 896 895 894 893
f 889 890 891 892
f 892 891 895 896
f 891 890 894 895
f 890 889 893 894
f 889 892 896 893
f 904 903 902 901
f 897 898 899 900
f 900 899 903 904
f 899 898 902 903
f 898 897 901 902
f 897 900 904 901
f 912 911 910 909
f 905 906 907 908
f 908 907 911 912
f 907 906 910 911
f 906 905 909 910
f 905 908 912 909
f 917 918 919 920
f 916 915 914 913
f 913 914 918 917
f 914 915 919 918
f 915 916 920 919
f 916 913 917 920
f 928 927 926 925
f 921 922 923 924
f 924 923 927 928
f 923 922 926 927
f 922 921 925 926
f 921 924 928 925
f 936 935 934 933
f 929 930 931 932
f 932 931 935 936
f 931 930 934 935
f 930 929 933 934
f 929 932 936 933
f 944 943 942 941
f 937 938 939 940
f 940 939 943 944
f 939 938 942 943
f 938 937 941 942
f 937 940 944 941
f 949 950 951 952
f 948 947 946 945
f 945 946 950 949
f 946 947 951 950
f 947 948 952 951
f 948 945 949 952
f 960 959 958 957
f 953 954 955 956
f 956 955 959 960
f 955 954 958 959
f 954 953 957 958
f 953 956 960 957
f 968 967 966 965
f 961 962 963 964
f 964 963 967 968
f 963 962 966 967
f 962 961 965 966
f 961 964 968 965
f 976 975 974 973
f 969 970 971 972
f 972 971 975 976
f 971 970 974 975
f 970 969 973 974
f 969 972 976 973
f 981 982 983 984
f 980 979 978 977
f 977 978 982 981
f 978 979 983 982
f 979 980 984 983
f 980 977 981 984
f 992 991 990 989
f 985 986 987 988
f 988 987 991 992
f 987 986 990 991
f 986 985 989 990
f 985 988 992 989
f 1000 999 998 997
f 993 994 995 996
f 996 995 999 1000
f 995 994 998 999
f 994 993 997 998
f 993 996 1000 997
f 1008 1007 1006 1005
f 1001 1002 1003 1004
f 1004 1003 1007 1008
f 1003 1002 1006 1007
f 1002 1001 1005 1006
f 1001 1004 1008 1005
f 1013 1014 1015 1016
f 1012 1011 1010 1009
f 1009 1010 1014 1013
f 1010 1011 1015 1014
f 1011 1012 1016 1015
f 1012 1009 1013 1016
f 1024 1023 1022 1021
f 1017 1018 1019 1020
f 1020 1019 1023 1024
f 1019 1018 1022 1023
f 1018 1017 1021 1022
f 1017 1020 1024 1021
f 1032 1031 1030 1029
f 1025 1026 1027 1028
f 1028 1027 1031 1032
f 1027 1026 1030 1031
f 1026 1025 1029 1030
f 1025 1028 1032 1029
f 1040 1039 1038 1037
f 1033 1034 1035 1036
f 1036 1035 1039 1040
f 1035 1034 1038 1039
f 1034 1033 1037 1038
f 1033 1036 1040 1037
f 1045 1046 1047 1048
f 1044 1043 1042 1041
f 1041 1042 1046 1045
f 1042 1043 1047 1046
f 1043 1044 1048 1047
f 1044 1041 1045 1048
f 1056 1055 1054 1053
f 1049 1050 1051 1052
f 1052 1051 1055 1056
f 1051 1050 1054 1055
f 1050 1049 1053 1054
f 1049 1052 1056 1053
f 1064 1063 1062 1061
f 1057 1058 1059 1060
f 1060 1059 1063 1064
f 1059 1058 1062 1063
f 1058 1057 1061 1062
f 1057 1060 1064 1061
f 1072 1071 1070 1069
f 1065 1066 1067 1068
f 1068 1067 1071 1072
f 1067 1066 1070 1071
f 1066 1065 1069 1070
f 1065 1068 1072 1069
f 1077 1078 1079 1080
f 1076 1075 1074 1073
f 1073 1074 1078 1077
f 1074 1075 1079 1078
f 1075 1076 1080 1079
f 1076 1073 1077 1080
f 1088 1087 1086 1085
f 1081 1082 1083 1084
f 1084 1083 1087 1088
f 1083 1082 1086 1087
f 1082 1081 1085 1086
f 1081 1084 1088 1085
f 1096 1095 1094 1093
f 1089 1090 1091 1092
f 1092 1091 1095 1096
f 1091 1090 1094 1095
f 1090 1089 1093 1094
f 1089 1092 1096 1093
f 1104 1103 1102 1101
f 1097 1098 1099 1100
f 1100 1099 1103 1104
f 1099 1098 1102 1103
f 1098 1097 1101 1102
f 1097 1100 1104 1101
f 1109 1110 1111 1112
f 1108 1107 1106 1105
f 1105 1106 1110 1109
f 1106 1107 1111 1110
f 1107 1108 1112 1111
f 1108 1105 1109 1112
f 1120 1119 1118 1117
f 1113 1114 1115 1116
f 1116 1115 1119 1120
f 1115 1114 1118 1119
f 1114 1113 1117 1118
f 1113 1116 1120 1117
f 1128 1127 1126 1125
f 1121 1122 1123 1124
f 1124 1123 1127 1128
f 1123 1122 1126 1127
f 1122 1121 1125 1126
f 1121 1124 1128 1125
f 1136 1135 1134 1133
f 1129 1130 1131 1132
f 1132 1131 1135 1136
f 1131 1130 1134 1135
f 1130 1129 1133 1134
f 1129 1132 1136 1133
f 1141 1142 1143 1144
f 1140 1139 1138 1137
f 1137 1138 1142 1141
f 1138 1139 1143 1142
f 1139 1140 1144 1143
f 1140 1137 1141 1144
f 1152 1151 1150 1149
f 1145 1146 1147 1148
f 1148 1147 1151 1152
f 1147 1146 1150 1151
f 1146 1145 1149 1150
f 1145 1148 1152 1149
f 1160 1159 1158 1157
f 1153 1154 1155 1156
f 1156 1155 1159 1160
f 1155 1154 1158 1159
f 1154 1153 1157 1158
f 1153 1156 1160 1157
f 1168 1167 1166 1165
f 1161 1162 1163 1164
f 1164 1163 1167 1168
f 1163 1162 1166 1167
f 1162 1161 1165 1166
f 1161 1164 1168 1165
f 1173 1174 1175 1176
f 1172 1171 1170 1169
f 1169 1170 1174 1173
f 1170 1171 1175 1174
f 1171 1172 1176 1175
f 1172 1169 1173 1176
f 1184 1183 1182 1181
f 1177 1178 1179 1180
f 1180 1179 1183 1184
f 1179 1178 1182 1183
f 1178 1177 1181 1182
f 1177 1180 1184 1181
f 1192 1191 1190 1189
f 1185 1186 1187 1188
f 1188 1187 1191 1192
f 1187 1186 1190 1191
f 1186 1185 1189 1190
f 1185 1188 1192 1189
f 1200 1199 1198 1197
f 1193 1194 1195 1196
f 1196 1195 1199 1200
f 1195 1194 1198 1199
f 1194 1193 1197 1198
f 1193 1196 1200 1197
f 1205 1206 1207 1208
f 1204 1203 1202 1201
f 1201 1202 1206 1205
f 1202 1203 1207 1206
f 1203 1204 1208 1207
f 1204 1201 1205 1208
f 1216 1215 1214 1213
f 1209 1210 1211 1212
f 1212 1211 1215 1216
f 1211 1210 1214 1215
f 1210 1209 1213 1214
f 1209 1212 1216 1213
f 1224 1223 1222 1221
f 1217 1218 1219 1220
f 1220 1219 1223 1224
f 1219 1218 1222 1223
f 1218 1217 1221 1222
f 1217 1220 1224 1221
f 1232 1231 1230 1229
f 1225 1226 1227 1228
f 1228 1227 1231 1232
f 1227 1226 1230 1231
f 1226 1225 1229 1230
f 1225 1228 1232 1229
f 1237 1238 1239 1240
f 1236 1235 1234 1233
f 1233 1234 1238 1237
f 1234 1235 1239 1238
f 1235 1236 1240 1239
f 1236 1233 1237 1240
f 1248 1247 1246 1245
f 1241 1242 1243 1244
f 1244 1243 1247 1248
f 1243 1242 1246 1247
f 1242 1241 1245 1246
f 1241 1244 1248 1245
f 1256 1255 1254 1253
f 1249 1250 1251 1252
f 1252 1251 1255 1256
f 1251 1250 1254 1255
f 1250 1249 1253 1254
f 1249 1252 1256 1253
f 1264 1263 1262 1261
f 1257 1258 1259 1260
f 1260 1259 1263 1264
f 1259 1258 1262 1263
f 1258 1257 1261 1262
f 1257 1260 1264 1261
f 1269 1270 1271 1272
f 1268 1267 1266 1265
f 1265 1266 1270 1269
f 1266 1267 1271 1270
f 1267 1268 1272 1271
f 1268 1265 1269 1272
f 1280 1279 1278 1277
f 1273 1274 1275 1276
f 1276 1275 1279 1280
f 1275 1274 1278 1279
f 1274 1273 1277 1278
f 1273 1276 1280 1277
